<svg width="140" height="220" fill="none" xmlns="http://www.w3.org/2000/svg"><path d="M0 196.595h.195c.195 0 .39-.098.536-.244.146-.146.293-.341.39-.536a2.82 2.82 0 00.244-.683c.049-.243.097-.487.097-.682v-20.522c0-.195-.048-.39-.097-.634s-.146-.439-.244-.634a2.158 2.158 0 00-.39-.536.7.7 0 00-.487-.195H.049v-.39h5.46v.39h-.196c-.195 0-.39.049-.536.195-.146.146-.292.293-.39.536-.097.195-.195.439-.292.634-.049.244-.098.439-.098.634v7.994l8.92-8.872a.99.99 0 00.293-.731c0-.244-.097-.341-.292-.341v-.39h4.143v.39c-.536.049-.975.195-1.365.487-.39.293-.828.634-1.267 1.121l-9.116 9.165c1.658.049 3.023.39 4.046 1.072a7.118 7.118 0 012.438 2.779l3.022 6.142c.195.39.439.78.731 1.267.293.439.634.878 1.024 1.268s.78.731 1.267.975c.439.292.926.39 1.463.39v.39h-1.95c-.731 0-1.365-.098-1.95-.342-.536-.195-1.024-.536-1.414-.877-.39-.39-.73-.78-1.023-1.267-.293-.439-.537-.927-.78-1.365l-3.12-6.191a5.798 5.798 0 00-1.999-2.194c-.877-.487-1.852-.78-3.022-.829v10.53c0 .195.049.438.097.633.05.244.147.439.244.683.098.195.244.39.39.536.146.146.341.244.488.244h.292v.39H0v-.39zM21.546 196.595h.195c.195 0 .341-.098.487-.244.147-.146.293-.341.39-.536.098-.195.195-.439.244-.683.049-.243.098-.487.098-.682v-20.474c0-.195-.05-.39-.098-.633-.049-.244-.146-.439-.244-.683a1.52 1.52 0 00-.438-.536c-.147-.146-.341-.195-.537-.195h-.195v-.39h6.337c2.39 0 4.241.536 5.606 1.56 1.365 1.072 1.999 2.437 1.999 4.192 0 .731-.146 1.414-.39 1.999a5.636 5.636 0 01-.975 1.56c-.39.438-.829.877-1.267 1.17a6.228 6.228 0 01-1.317.78c1.073.195 2 .536 2.682 1.023.73.488 1.316 1.024 1.755 1.658.438.633.73 1.316.926 1.998.195.731.243 1.414.243 2.096 0 1.317-.243 2.438-.73 3.364a6.205 6.205 0 01-1.95 2.242c-.83.585-1.707.975-2.78 1.268-1.023.243-2.095.39-3.216.39h-6.825v-.244zm11.358-18.963c-.098-1.511-.585-2.681-1.56-3.558-.975-.877-2.242-1.316-3.85-1.316h-1.95v9.749h1.998c1.072 0 1.95-.146 2.632-.439.683-.292 1.219-.633 1.657-1.121.39-.439.683-.926.83-1.511.145-.536.243-1.072.243-1.609v-.195zm1.609 12.333c-.195-1.998-.878-3.509-1.999-4.582-1.121-1.072-2.73-1.608-4.777-1.608h-2.145v11.991h2.194c2.096 0 3.704-.487 4.923-1.413 1.17-.927 1.804-2.243 1.804-3.9v-.488zM55.084 196.595h.195c.633 0 .926-.293.926-.829a2.84 2.84 0 00-.098-.633l-3.46-9.409h-6.728l-3.363 9.214c-.098.195-.098.39-.098.584 0 .342.098.585.293.78.195.195.39.293.585.293h.195v.39h-4.29v-.39h.195c.341 0 .682-.195.975-.585.341-.39.585-.877.78-1.414l8.823-23.496 8.628 23.253c.195.536.439 1.023.731 1.511.342.487.732.731 1.268.731h.195v.39h-5.752v-.39zm-8.775-12.187h5.947l-2.973-8.043-2.974 8.043zM63.078 171.539h5.46c2.827 0 5.02.536 6.483 1.658 1.462 1.072 2.193 2.632 2.193 4.63 0 1.073-.243 2.048-.78 2.876-.536.829-1.17 1.56-2.047 2.145a8.862 8.862 0 01-2.827 1.316 11.457 11.457 0 01-3.12.439h-1.462v9.798c0 .195.048.439.097.683.049.243.146.487.244.682.097.195.243.39.39.536.146.147.292.244.536.244h.195v.39h-5.41v-.39h.194c.195 0 .341-.097.488-.244a2.16 2.16 0 00.39-.536c.097-.195.194-.439.243-.682.049-.244.098-.488.098-.683v-20.522c0-.341-.098-.78-.293-1.219-.195-.438-.487-.731-.877-.78h-.195v-.341zm3.948 1.365v10.383h1.17c1.024 0 1.95-.146 2.779-.439.828-.292 1.51-.633 2.047-1.121.536-.439.975-.975 1.219-1.56a3.94 3.94 0 00.439-1.803c0-.732-.147-1.463-.39-2.096a4.582 4.582 0 00-1.22-1.755c-.584-.537-1.267-.878-2.193-1.17-.926-.293-1.998-.439-3.314-.439h-.537zM90.279 196.595h.195v.39h-5.46v-.39h.195c.195 0 .39-.098.536-.244.147-.146.293-.341.39-.536.098-.195.195-.439.244-.683.049-.243.097-.487.097-.682v-21.497h-4.484c-.39 0-.78.097-1.073.292-.292.195-.584.39-.78.683a3.688 3.688 0 00-.438.877 3.313 3.313 0 00-.146.926h-.39v-4.192H96.47v4.192h-.44c0-.292-.048-.633-.145-.926a2.468 2.468 0 00-.44-.877c-.194-.293-.438-.488-.779-.683-.292-.195-.682-.292-1.072-.292H89.06v21.497c0 .195.049.439.098.682.048.244.146.488.243.683.098.195.244.39.39.536a.6.6 0 00.488.244zM109.728 196.595h.195c.634 0 .926-.293.926-.829 0-.195-.048-.439-.097-.633l-3.51-9.409h-6.727l-3.363 9.214c-.098.195-.098.39-.098.584 0 .342.098.585.293.78.195.195.39.293.585.293h.195v.39h-4.29v-.39h.195c.341 0 .682-.195.975-.585.341-.39.585-.877.78-1.414l8.823-23.496 8.628 23.253c.195.536.439 1.023.731 1.511.341.487.731.731 1.268.731h.195v.39h-5.704v-.39zm-8.823-12.187h5.947l-2.973-8.043-2.974 8.043zM120.989 194.255a5.92 5.92 0 01-1.072 1.852c-.488.585-1.219.829-2.145.829h-1.17v-.39c.146 0 .341-.049.634-.146.243-.098.536-.244.828-.439.293-.195.585-.487.829-.78.292-.341.536-.731.731-1.218l7.263-19.938c.147-.39.195-.682.195-.877 0-.39-.097-.683-.341-.926-.195-.195-.439-.342-.682-.342v-.39h3.168l8.628 23.545c.147.341.39.683.731.975.342.292.78.439 1.17.487v.39h-5.508v-.39c.195 0 .439-.097.634-.243a.854.854 0 00.341-.683c0-.097-.049-.195-.097-.341l-7.264-19.937-6.873 18.962z" fill="#201600"/><path d="M135.369 0H8.921v152.674h126.448V0z" fill="#B39D92"/><path d="M73.46 152.674h26.47V75.118L73.46 59.373v93.301zM63.858 63.322v89.352h5.606v-92.57l-5.606 3.218zM55.084 67.27v85.404h5.605V64.102l-5.605 3.168zM46.163 71.755v80.919h5.654V68.538l-5.654 3.217zM36.901 75.8v76.874h5.655v-80.09L36.9 75.8zM28.468 80.188v72.486h5.606V77.02l-5.606 3.168z" fill="#525256"/><path d="M109.485 152.674h25.884V86.525l-25.884-15.453v81.602zM99.882 75.02v77.654h5.654V71.852l-5.654 3.169zM91.107 79.018v73.656h5.655V75.801l-5.655 3.217zM82.235 83.454v69.22h5.606V80.237l-5.606 3.217zM18.377 103.05v49.624h5.655V99.881l-5.655 3.169zM9.506 107.535v45.139h5.605v-48.356l-5.605 3.217zM3.071 213.9c0 .097 0 .195.049.341.048.097.048.244.097.341.049.098.098.195.195.244.049.097.146.097.244.097v.195H1.267v-.195c.098 0 .147-.048.244-.097.049-.049.146-.146.195-.244a.703.703 0 00.098-.341c.048-.097.048-.244.048-.341v-5.509c0-.097 0-.195-.048-.292-.05-.098-.05-.195-.098-.341-.049-.098-.097-.195-.195-.244a.371.371 0 00-.244-.098v-.195h2.34v.195a.371.371 0 00-.244.098c-.048.049-.146.146-.146.244a.703.703 0 00-.097.341c-.049.097-.049.195-.049.292v2.243h4.24v-2.243c0-.097 0-.195-.048-.292-.049-.098-.049-.195-.097-.341a1.063 1.063 0 00-.147-.244.371.371 0 00-.243-.098v-.195h2.34v.195a.371.371 0 00-.244.098c-.049.049-.146.146-.195.244a.703.703 0 00-.098.341c0 .097-.048.195-.048.292v5.509c0 .097 0 .195.048.341.05.097.05.244.098.341.049.098.097.195.195.244.049.097.146.097.244.097v.195h-2.34v-.195c.097 0 .146-.048.243-.097.05-.049.147-.146.195-.244a.703.703 0 00.098-.341c.049-.097.049-.244.049-.341v-2.584H3.07v2.584zM15.891 215.118v-.975l-.097.098c-.293.292-.683.536-1.073.731-.39.195-.877.244-1.462.244-.439 0-.829-.049-1.121-.146-.293-.098-.585-.244-.78-.439a1.853 1.853 0 01-.439-.634 1.955 1.955 0 01-.146-.731c0-.439.097-.78.341-1.121.244-.341.585-.634 1.024-.878a8.44 8.44 0 011.608-.682c.634-.195 1.365-.39 2.145-.585-.048-.487-.146-.877-.292-1.17a1.722 1.722 0 00-.634-.682c-.244-.147-.487-.293-.731-.342-.244-.048-.488-.097-.682-.097-.342 0-.634.049-.878.146-.244.098-.487.195-.634.39-.146.195-.34.341-.438.536l-.293.585h-.146v-1.462c.097 0 .244-.049.39-.098.146-.097.341-.195.536-.292.195-.098.439-.195.731-.293.293-.097.634-.097 1.073-.097.682 0 1.218.097 1.657.244.439.195.731.39.975.682.244.293.39.634.439.975.097.39.097.731.097 1.121v3.705c0 .244.049.487.195.682.146.195.293.342.488.342v.195H15.89v.048zm0-1.754v-2.682l-.195.049c-.292.098-.682.195-1.072.293-.39.097-.829.292-1.219.487-.39.195-.73.439-.975.731-.292.293-.39.585-.39.975s.147.731.488.975c.341.244.731.39 1.267.39.39 0 .78-.097 1.073-.292.292-.195.585-.439.877-.683l.146-.243zM30.905 203.273c-.926 0-1.706.146-2.388.488a5.776 5.776 0 00-1.706 1.267 5.967 5.967 0 00-1.024 1.804c-.195.682-.341 1.316-.341 1.949 0 .732.146 1.463.438 2.145a6.635 6.635 0 001.17 1.853 5.925 5.925 0 001.755 1.316c.683.341 1.414.487 2.194.487.244 0 .487-.048.78-.097.292-.049.585-.146.926-.293.292-.146.585-.341.829-.585.243-.243.438-.585.585-1.023h.195v2.096c-.195 0-.39.049-.585.097-.195.049-.44.098-.683.147-.341.097-.682.146-1.072.243-.39.098-.829.098-1.268.098-1.072 0-2.047-.195-2.876-.585-.828-.39-1.51-.878-2.047-1.463-.536-.585-.975-1.267-1.219-2.047-.292-.731-.39-1.511-.39-2.291s.146-1.56.39-2.291c.293-.78.683-1.463 1.268-2.047.536-.585 1.267-1.073 2.096-1.463.828-.39 1.852-.585 2.973-.585.39 0 .78.049 1.121.098.342.097.634.146.878.243.195.049.341.098.536.147.146.048.293.048.439.048v2.096h-.195c-.098-.389-.195-.731-.39-.974a2.557 2.557 0 00-.683-.585 2.651 2.651 0 00-.877-.293h-.829zM37.047 211.316c.05.439.147.829.342 1.268.146.39.39.731.633 1.023.293.293.585.537.975.732.39.195.83.292 1.365.292.293 0 .585-.049.878-.097.292-.098.585-.195.828-.342.244-.146.488-.341.683-.536.195-.195.341-.487.439-.731h.146v1.414c-.098 0-.146.048-.244.097-.097.049-.195.098-.341.195-.244.146-.585.293-1.024.488-.438.146-.975.243-1.706.243-.585 0-1.072-.097-1.609-.243-.536-.147-.974-.39-1.316-.732-.39-.341-.682-.78-.926-1.267-.244-.536-.341-1.17-.341-1.852 0-.439.097-.927.244-1.414.146-.488.39-.878.73-1.267.342-.39.732-.683 1.22-.927.487-.243 1.12-.341 1.803-.341.634 0 1.17.098 1.657.341.488.244.878.488 1.17.878.293.39.537.828.683 1.316a5.99 5.99 0 01.244 1.706h-6.532v-.244zm2.73-3.558a2.53 2.53 0 00-1.12.244 2.83 2.83 0 00-.83.682c-.243.292-.39.585-.536.926-.146.341-.195.683-.243 1.073h5.313c0-.342-.098-.732-.195-1.073a2.8 2.8 0 00-.488-.926c-.194-.292-.487-.487-.828-.682-.293-.195-.683-.244-1.073-.244zM48.113 207.124c.682 0 1.267.097 1.755.341.487.244.926.536 1.218.926.342.39.585.829.731 1.268.147.487.244.975.244 1.511 0 .487-.097.975-.244 1.462-.146.488-.39.927-.73 1.316-.342.39-.732.683-1.17.927-.488.243-1.024.341-1.707.341-.39 0-.78-.098-1.17-.293a4.316 4.316 0 01-1.072-.78v3.851c0 .098 0 .195.049.342.048.097.048.243.097.341.049.097.098.195.195.244.049.097.146.097.244.097v.195h-2.438v-.195c.098 0 .147-.049.244-.097.098-.098.146-.147.195-.244.049-.098.098-.195.098-.341.048-.098.048-.244.048-.342v-9.651-.342c0-.097-.048-.195-.048-.292a.38.38 0 00-.195-.195.702.702 0 00-.342-.098v-.195h1.853v.829c.244-.292.536-.536.926-.682.39-.147.731-.244 1.219-.244zm.146 7.507c.439 0 .829-.098 1.121-.293.341-.195.585-.438.829-.731.195-.292.39-.633.487-1.023a4.53 4.53 0 00.147-1.17 4.1 4.1 0 00-.196-1.316c-.146-.439-.292-.829-.536-1.17-.243-.342-.536-.634-.877-.829-.341-.195-.731-.341-1.17-.341-.244 0-.536.048-.78.146a2.037 2.037 0 00-.682.439 2.45 2.45 0 00-.488.682c-.097.244-.195.536-.195.829v2.437c0 .341.049.634.195.926.146.293.293.536.536.731.195.195.488.342.732.488.34.146.633.195.877.195zM58.69 215.118v-.975l-.097.098c-.292.292-.682.536-1.072.731-.39.195-.877.244-1.462.244-.44 0-.83-.049-1.122-.146-.292-.098-.584-.244-.78-.439a1.854 1.854 0 01-.438-.634 1.957 1.957 0 01-.147-.731c0-.439.098-.78.342-1.121.243-.341.585-.634 1.023-.878a8.44 8.44 0 011.609-.682c.634-.195 1.365-.39 2.145-.585-.049-.487-.146-.877-.293-1.17a1.722 1.722 0 00-.633-.682c-.244-.147-.488-.293-.732-.342-.243-.048-.487-.097-.682-.097-.341 0-.634.049-.877.146-.244.098-.488.195-.634.39-.146.195-.341.341-.439.536l-.292.585h-.147v-1.462c.098 0 .244-.049.39-.098.147-.097.342-.195.537-.292.195-.098.438-.195.73-.293.293-.097.635-.097 1.073-.097.683 0 1.219.097 1.658.244.438.195.73.39.975.682.243.293.39.634.438.975.098.39.098.731.098 1.121v3.705c0 .244.049.487.195.682.146.195.292.342.487.342v.195h-1.852v.048zm0-1.754v-2.682l-.194.049c-.293.098-.683.195-1.073.293-.39.097-.828.292-1.218.487s-.731.439-.975.731c-.293.293-.39.585-.39.975s.146.731.487.975c.342.244.732.39 1.268.39.39 0 .78-.097 1.072-.292.293-.195.585-.439.878-.683l.146-.243zM70.585 207.124c.634 0 1.121.098 1.56.341.439.244.78.536 1.072.878.293.39.488.78.585 1.267.098.488.195.975.195 1.511 0 .488-.049.975-.195 1.511-.146.488-.34.927-.633 1.317-.293.39-.683.682-1.122.926-.438.243-.974.341-1.608.341-.244 0-.439-.049-.683-.098-.243-.048-.39-.146-.585-.243-.195-.098-.39-.195-.585-.341v3.461c0 .097 0 .195.05.341.048.097.048.243.097.341.048.097.097.195.195.244.048.097.146.097.243.097v.195h-2.388v-.195a.376.376 0 00.243-.097c.098-.049.147-.147.196-.244.048-.098.097-.195.097-.341.049-.098.049-.244.049-.341v-3.461a3.037 3.037 0 01-.585.438c-.293.146-.683.244-1.17.244-.634 0-1.121-.098-1.609-.341a3.607 3.607 0 01-1.12-.975 4.23 4.23 0 01-.683-1.316c-.147-.488-.195-1.024-.195-1.511 0-.488.048-.975.195-1.463.146-.487.34-.877.585-1.267.292-.39.633-.683 1.072-.878a3.866 3.866 0 011.56-.341c.585 0 1.023.098 1.316.244.293.146.488.341.634.439v-2.243c0-.097 0-.195-.049-.292-.049-.098-.049-.195-.097-.293-.05-.097-.098-.195-.195-.244-.098-.048-.147-.097-.244-.097v-.195h2.388v.195c-.097 0-.146.049-.243.097-.098.049-.147.147-.195.244-.05.098-.098.195-.098.293-.049.097-.049.195-.049.292v2.194c.147-.146.342-.293.634-.439.341-.097.78-.195 1.365-.195zm-4.826 7.507c.244 0 .439-.049.634-.146a1.53 1.53 0 00.536-.439c.146-.195.244-.341.341-.585.098-.195.098-.39.098-.585v-3.168c0-.293-.049-.537-.146-.78a1.747 1.747 0 00-.39-.585c-.147-.195-.342-.293-.585-.39a1.55 1.55 0 00-.683-.146c-.439 0-.829.097-1.121.243-.293.146-.536.39-.731.683a2.41 2.41 0 00-.39.975c-.098.39-.147.731-.147 1.121 0 .439.05.926.147 1.365.097.438.292.877.487 1.218.195.342.488.634.829.878.341.195.682.341 1.121.341zm4.534 0c.438 0 .828-.097 1.12-.244.293-.195.586-.39.78-.682.196-.293.342-.634.44-.975.097-.39.146-.731.146-1.17 0-.439-.05-.926-.147-1.365a4.16 4.16 0 00-.438-1.17c-.195-.341-.44-.634-.78-.829a2 2 0 00-1.073-.341c-.536 0-.975.195-1.267.536-.341.342-.488.829-.488 1.365v3.169c0 .195.05.39.147.585.097.195.195.39.39.585.146.195.34.341.536.439.195.048.438.097.633.097zM82.87 213.9c0 .097 0 .195.048.341.049.097.049.244.097.341.05.098.098.195.195.244.098.097.147.097.244.097v.195h-2.388v-.195c.097 0 .146-.048.243-.097.098-.049.147-.146.195-.244a.702.702 0 00.098-.341c.048-.097.048-.244.048-.341v-4.485l-4.436 4.339v.146c0 .097 0 .195.05.341.048.097.048.244.097.341.048.098.097.195.195.244.049.097.146.097.243.097v.195h-2.388v-.195c.097 0 .146-.048.244-.097.097-.049.146-.146.195-.244a.702.702 0 00.097-.341c.049-.097.049-.244.049-.341v-5.509c0-.097 0-.195-.049-.292-.049-.098-.049-.195-.097-.341-.05-.098-.098-.195-.195-.244-.098-.049-.147-.098-.244-.098v-.195h2.388v.195a.372.372 0 00-.243.098c-.049.049-.147.146-.147.244a.703.703 0 00-.097.341c-.049.097-.049.195-.049.292v4.485l4.436-4.338v-.098c0-.097 0-.195-.049-.292-.048-.098-.048-.195-.097-.342-.049-.097-.097-.195-.195-.243-.098-.049-.146-.098-.244-.098v-.195h2.389v.195c-.098 0-.195.049-.293.098-.097.048-.146.146-.195.243-.048.098-.097.195-.097.342-.049.097-.049.195-.049.292v5.46zM93.837 213.9c0 .097 0 .195.049.341.049.097.049.244.098.341.048.098.097.195.195.244.097.049.146.097.243.097v.195h-2.437v-.195a.37.37 0 00.244-.097c.097-.049.146-.146.195-.244a.702.702 0 00.097-.341c.049-.097.049-.244.049-.341v-5.07l-3.12 6.435-2.973-6.045v4.68c0 .097 0 .195.048.341.05.097.049.244.098.341.048.098.097.195.195.244.097.097.146.097.243.097v.195h-1.754v-.195a.371.371 0 00.243-.097c.098-.098.147-.146.195-.244a.703.703 0 00.098-.341c.049-.097.049-.244.049-.341v-5.509c0-.243-.05-.438-.098-.633-.049-.195-.244-.342-.487-.342v-.195h1.657l2.876 5.85 2.876-5.85h1.755v.195c-.195 0-.341.098-.439.342-.097.243-.146.438-.146.633v5.509h-.049zM100.223 215.265c-.634 0-1.17-.098-1.706-.293a3.8 3.8 0 01-1.267-.829 3.803 3.803 0 01-.83-1.267 4.294 4.294 0 01-.292-1.609c0-.633.098-1.169.342-1.657a3.9 3.9 0 01.877-1.316 4.63 4.63 0 011.316-.829c.488-.195 1.073-.292 1.658-.292s1.17.097 1.657.292c.487.195.926.488 1.267.829.342.341.634.78.829 1.267.195.488.293 1.024.293 1.56s-.098 1.073-.293 1.56c-.195.488-.439.975-.829 1.316-.341.39-.78.683-1.316.926a4.23 4.23 0 01-1.706.342zm-.146-7.507c-.439.048-.829.146-1.17.341a3.2 3.2 0 00-.877.731c-.244.293-.39.634-.537 1.024-.097.39-.195.78-.195 1.17 0 .438.05.926.195 1.316.147.439.342.829.634 1.17.244.341.585.585.975.828.39.244.78.293 1.267.293.439 0 .878-.098 1.219-.293.341-.195.634-.438.877-.779.244-.342.39-.683.537-1.073.146-.39.195-.78.195-1.219 0-.39-.049-.828-.195-1.267a4.107 4.107 0 00-.585-1.121 2.691 2.691 0 00-.975-.829c-.341-.195-.829-.292-1.365-.292zM112.41 209.123c0 .194-.049.389-.146.584a3.274 3.274 0 01-.342.537c-.146.146-.292.292-.438.39-.195.097-.342.195-.488.292.195.049.439.098.683.195.243.098.438.244.633.39.195.146.342.341.488.585.146.244.195.536.195.877 0 .195-.049.39-.098.634a2.034 2.034 0 01-.438.683c-.195.195-.488.39-.829.585-.341.195-.829.243-1.365.243h-4.143v-.195a.368.368 0 00.243-.097c.098-.098.147-.146.195-.244a.7.7 0 00.098-.341c.049-.098.049-.244.049-.341v-5.46c0-.195-.049-.439-.147-.634-.097-.243-.243-.341-.438-.341v-.195h3.802c.439 0 .829.049 1.17.195.341.098.585.293.78.439.195.146.341.39.438.585.049.195.098.439.098.634zm-4.485 1.559h1.463c.341 0 .682-.048.926-.146.244-.097.439-.195.585-.341.146-.146.243-.293.341-.488.049-.195.097-.341.097-.536 0-.146-.048-.292-.146-.487a1.572 1.572 0 00-.39-.439 3.616 3.616 0 00-.585-.341 2.087 2.087 0 00-.828-.146h-1.463v2.924zm1.804 3.851c.146 0 .341 0 .585-.048a3.62 3.62 0 00.682-.195c.195-.098.39-.244.585-.488.146-.195.244-.487.244-.829 0-.341-.098-.633-.341-.877-.195-.244-.439-.39-.731-.536a5.871 5.871 0 00-.878-.244c-.292-.049-.536-.049-.682-.049h-1.268v3.218h1.804v.048zM122.11 213.9c0 .097 0 .195.049.341.049.097.049.244.097.341.049.098.098.195.195.244.098.097.147.097.244.097v.195h-2.389v-.195c.098 0 .147-.048.244-.097.098-.049.146-.146.195-.244a.7.7 0 00.098-.341c.048-.097.048-.244.048-.341v-4.485l-4.436 4.339v.146c0 .097 0 .195.049.341.049.097.049.244.098.341.048.098.097.195.195.244.048.097.146.097.243.097v.195h-2.388v-.195c.097 0 .146-.048.244-.097.097-.049.146-.146.195-.244.048-.097.097-.195.097-.341.049-.097.049-.244.049-.341v-5.509c0-.097 0-.195-.049-.292-.049-.098-.049-.195-.097-.341-.049-.098-.098-.195-.195-.244-.098-.049-.147-.098-.244-.098v-.195h2.388v.195a.369.369 0 00-.243.098c-.049.049-.147.146-.147.244-.048.097-.097.195-.097.341-.049.097-.049.195-.049.292v4.485l4.436-4.338v-.098c0-.097 0-.195-.049-.292-.048-.098-.048-.195-.097-.342-.049-.097-.098-.195-.195-.243-.098-.049-.146-.098-.244-.098v-.195h2.389v.195c-.098 0-.195.049-.293.098-.097.048-.146.146-.195.243-.048.098-.097.195-.097.342-.049.097-.049.195-.049.292v5.46zM130.787 213.948c0 .098 0 .195.049.342.048.097.048.195.097.341.049.097.098.195.146.244a.378.378 0 00.244.097v.195h-2.388v-.195c.097 0 .146-.049.243-.097.049-.049.147-.147.195-.244.049-.098.098-.195.098-.341.049-.098.049-.195.049-.342v-2.583c-.293.292-.585.536-.927.682a2.93 2.93 0 01-1.17.244c-.438 0-.828-.097-1.218-.244-.341-.195-.634-.39-.878-.682-.243-.293-.39-.634-.536-.975-.097-.39-.195-.731-.195-1.17v-.731c0-.098 0-.195-.049-.293 0-.097-.048-.195-.097-.341-.049-.097-.098-.195-.146-.244-.049-.048-.098-.097-.195-.097v-.195h2.193v.195c-.097 0-.146.049-.195.097-.048.049-.146.147-.146.244a.703.703 0 00-.097.341c-.049.098-.049.195-.049.293v.731c0 .439.049.78.195 1.072.146.293.292.537.487.732.195.195.39.292.634.39.244.097.439.097.634.097.341 0 .633-.097.877-.244.293-.146.536-.39.829-.731v-2.096c0-.097 0-.195-.049-.292-.049-.098-.049-.195-.097-.342-.049-.097-.098-.195-.195-.243a.374.374 0 00-.244-.098v-.195h2.388v.195a.369.369 0 00-.243.098c-.049.048-.098.146-.147.243-.048.098-.097.195-.097.342-.049.097-.049.195-.049.292v5.508h.049zM138.147 215.118v-.975l-.097.098c-.293.292-.683.536-1.072.731-.39.195-.878.244-1.463.244-.439 0-.829-.049-1.121-.146-.293-.098-.585-.244-.78-.439a1.861 1.861 0 01-.585-1.365c0-.439.098-.78.341-1.121.244-.341.585-.634 1.024-.878a8.445 8.445 0 011.609-.682c.633-.195 1.364-.39 2.144-.585-.048-.487-.146-.877-.292-1.17a1.719 1.719 0 00-.634-.682c-.243-.147-.487-.293-.731-.342-.244-.048-.487-.097-.682-.097-.342 0-.634.049-.878.146-.244.098-.487.195-.634.39-.146.195-.341.341-.438.536l-.293.585h-.146v-1.462c.098 0 .244-.049.39-.098.146-.097.341-.195.536-.292.195-.098.439-.195.731-.293.293-.097.634-.097 1.073-.097.682 0 1.219.097 1.657.244.439.195.731.39.975.682.244.293.39.634.439.975.097.39.097.731.097 1.121v3.705c0 .244.049.487.195.682.147.195.293.342.488.342v.195h-1.853v.048zm0-1.754v-2.682l-.195.049c-.292.098-.682.195-1.072.293-.39.097-.829.292-1.219.487-.39.195-.731.439-.975.731-.292.293-.39.585-.39.975s.147.731.488.975c.341.244.731.39 1.267.39.39 0 .78-.097 1.073-.292.292-.195.585-.439.877-.683l.146-.243z" fill="#201600"/></svg>