<svg width="1224" height="881" fill="none" xmlns="http://www.w3.org/2000/svg"><path d="M126.982 100.964l126.206-9.32c4.53.13 15.455-1.398 22.911-8.543 7.456-7.145 7.766-30.419 6.99-41.162.129 9.837 3.417 31.532 15.533 39.609 15.144 10.096 21.358 12.038 38.444 10.096 13.669-1.553 27.959-2.459 33.396-2.718 4.66-1.294 16.387-1.32 26.018 8.932 2.206 2.349 31.616 31.02 78.805 76.888m721.145 699.373C993.975 677.951 634.029 329.045 475.285 174.746m0 0l202.73-16.698 57.084 7.766 297.071-25.241m0 0c17.47-.647 55.68-6.446 68.73-24.464m-68.73 24.464c8.15 0 19.8-2.116 26.4 9.708 5.42 9.709 15.92 11.65 20.2 9.709M1083.81 129.7c-6.73 2.33-25.86 13.281-26.79 24.465" stroke="#E4E3E1" stroke-width="8" stroke-linecap="round" stroke-linejoin="round"/><path d="M125.817 850.821l665.978-57.472c27.312-.259 88.538-8 114.944-36.891 26.406-28.892 97.211-100.835 129.311-133.196 8.67-8.672 26.72-34.794 29.51-69.898 2.8-35.105 12.04-153.906 16.31-208.919l-2.72-161.931c-.64-12.686 1.4-42.095 14.76-58.249 13.36-16.154 52.68-61.355 70.68-81.937M658.599 465.991l62.909-4.66c4.53-.647 15.3-.311 22.134 6.213m0 0a1034.557 1034.557 0 0115.145 14.756c2.071 2.201 6.213 7.379 6.213 10.485m-21.358-25.241c-4.038-15.533 8.414-17.086 15.145-15.921" stroke="#E4E3E1" stroke-width="8" stroke-linecap="round" stroke-linejoin="round"/><path d="M758.398 480.358c10.874-.311 14.11-10.226 13.98-15.922-.647-2.847 1.32-12.348 9.708-19.804-3.106 3.365-13.979 12.814-21.746 7.378m24.076 22.523c-5.825-2.33-18.795-2.097-19.416 17.474M725.002 460.941c7.508-.647 31.066-7.766 24.077-20.581m-104.459 6.602c-4.039 11.805 9.319 18.38 15.921 19.028-6.602.776-19.805 6.368-15.145 19.416m-13.98-26.018c-9.63 11.805-16.698 10.873-19.804 11.65 5.695 0 25.241 6.213 37.667 17.863" stroke="#E4E3E1" stroke-width="8" stroke-linecap="round" stroke-linejoin="round"/><circle cx="288.137" cy="94.751" r="13.086" stroke="#E4E3E1" stroke-width="8" stroke-linecap="round" stroke-linejoin="round"/><path d="M352.599 831.015l-27.354-318.426c1.351-5.696 9.568-18.252 20.752-19.805-13.048 1.243-22.379-11.65-24.055-18.64L292.02 125.817c-.647-9.838 5.281-31.532 32.619-33.396M321.533 471.814c.311 14.291-11.132 23.3-15.921 24.465 5.307.776 17.863 5.126 19.416 17.863M252.023 91.644c8.802 1.424 33.163 14.135 39.997 36.503M125.817 511.035l182.513-15.079m315.708-26.083L339.396 493.39m477.251 382.671l-24.464-82.325L765 491.231m-126.982-12.038l134.36 115.72m161.543-445.02l-303.67 310.66m149.117-13.203l274.542-282.312c1.43-1.942 12.97-5.437 26.02-3.883M1052.75 144.068c4.01 3.495 6.68 15.145-.78 22.911" stroke="#E4E3E1" stroke-width="8" stroke-linecap="round" stroke-linejoin="round"/><circle cx="323.863" cy="494.726" r="9.32" stroke="#E4E3E1" stroke-width="8" stroke-linecap="round" stroke-linejoin="round"/><circle cx="637.629" cy="467.543" r="10.096" stroke="#E4E3E1" stroke-width="8" stroke-linecap="round" stroke-linejoin="round"/><path d="M886.934 574.332c-25.759 27.054-78.675 82.403-84.266 87.373-5.592 4.971-9.838 5.955-11.262 5.825h-12.038l-207.365 16.951m204.647-89.567l236.49-242.703 67.18 5.824M372.792 87.373c16.309-.777 20.969-3.883 26.018-8.543 4.038-3.728 18.51-5.954 25.241-6.602l315.708-25.63 10.096 116.498 2.33 38.444-119.604 124.264m-505.599 3.495l411.625-35.337m0 0l30.289-28.348L670.637 159.99m-132.03 133.972l33.396 390.519M126.982 388.713l415.896-35.338m29.125 331.106l-77.665 6.349 10.484 126.205 4.66 58.249m62.521-190.803l16.309 190.803m-461.33-245.033l206.977-17.863m319.203-451.233l1.942 15.144M547.926 42.327l9.32 124.264M389.878 367.355l29.513 351.434 3.883 3.495 8.543 153m-79.218-44.657l3.495 44.657" stroke="#E4E3E1" stroke-width="5" stroke-linecap="round" stroke-linejoin="round"/><path d="M425.216 487.736l4.66 54.754m-21.746 37.279l26.794-2.33m93.586-99.411l4.272 58.248 5.436 38.056-2.718 8.932v10.873m-52.424-52.424l24.465-1.553 2.33 26.794M505.599 517.637l1.941 22.911m-92.421 120.381l114.168-9.078m12.814-1.019l-12.814 1.019m-3.107-56.549l3.107 56.549M462.495 601.515l3.106 54.754m-29.124-52.812l4.272 55.142m383.276-499.774c1.554 5.048 6.757 17.164 15.145 25.241 8.388 8.077 119.992 115.462 174.75 168.145m-211.641-65.239l139.409 139.02m-48.153 50.482l148.725 140.962M476.863 175.134l-81.937 6.146M171.64 626.756l-24.127-324.754a9.973 9.973 0 012.864-7.774c31.005-31.272 88.833-89.583 95.433-96.182 6.834-6.835 11.908-7.249 13.591-6.602l135.525-10.164M240.373 503.269l29.124 335.124m-19.804-459l9.708 118.439m145.233-192.609l-9.708-123.943" stroke="#E4E3E1" stroke-width="2"/><path d="M481.523 297.457l-4.272-37.668-129.312 10.097m-4.66-39.998l129.701-11.65m603.84-87.373L963.434 41.939m-75.335 107.954l-3.495-29.124 3.495-64.462m0 0l8.931-14.368m-8.931 14.368l-77.277-14.368M958.774 643.066l20.668-20.97m32.528-33.007l-32.528 33.007m0 0l29.038 27.96m46.21-54.366l93.59 4.272s22.01 20.117 36.11 33.007" stroke="#E4E3E1" stroke-width="2"/><path d="M1201.09 578.992l-80 88.538-74.55 60.967-107.182 57.084c-6.213 2.848-20.969 10.795-30.289 19.805-11.65 11.261-57.472 58.637-93.587 60.967M126.594 739.37l292.409-20.193 3.883 2.719 10.485-1.165 10.484-2.719 52.813-5.048m-1.942-21.746l-9.847-118.439m-17.724-213.19l17.724 213.19m-151.308 39.609l231.83-20.581M451.622 486.183l3.106 45.822m2.33 12.815l1.68 26.193a4 4 0 004.35 3.728l21.791-1.962M552.975 604.622l.793 10.485m-21.763 64.073l22.533-2.319a4 4 0 003.579-4.281l-4.349-57.473m11.633-1.165l-11.633 1.165M640.736 680.345l11.65 123.487 4.272 2.719v13.591l-1.942 13.591m0 0l3.107 41.551m-3.107-41.551l-224.063 19.028M580.157 758.398l22.911-3.106 21.358-1.942h22.912m-224.064-12.038l-46.217 4.658a4 4 0 00-3.588 4.276l3.68 49.514a4 4 0 004.368 3.685l44.864-4.273 121.901-8.653a4 4 0 003.711-4.199l-2.681-51.266a4 4 0 00-4.428-3.768l-120.445 13.133-1.165-3.107zm198.741-10.851l3.639 46.31a4 4 0 01-3.834 4.31l-12.195.469a4 4 0 01-4.141-3.681l-3.646-46.075a4 4 0 013.757-4.309l12.202-.704a4 4 0 014.218 3.68zM375.51 774.32l24.853-1.942m-1.942-28.348l4.272 57.084m119.604-66.792l1.758 26.018m2.125 31.454l-2.125-31.454m26.201-1.165l-26.201 1.165" stroke="#E4E3E1" stroke-width="2"/><path d="M449.292 796.842c-1.683-11.002-1.553-33.162 12.426-33.784m0 0c13.98-.621 17.993 20.711 18.251 31.455m-18.251-31.455l-1.941-22.134m182.512-42.328l70.093-5.436m70.093-5.437l-70.093 5.437m0 0l7.961 106.789m360.367-441.914l69.51 5.825 8.15 4.66h10.1m33.4 123.876l-24.47-13.203c-2.46-.906-6.52-3.728-3.11-7.767 3.04-3.584 16.29-21.097 24.66-32.231m0 0c1.06-1.41 2.04-2.718 2.92-3.883l-2.92 3.883zm0 0l-23.49-17.474c-1.3-1.295-3.11-4.893 0-8.932 3.11-4.038 18.9-24.982 26.41-34.949" stroke="#E4E3E1" stroke-width="2"/><path d="M1188.66 396.091l-11.65-6.601c-1.94-.518-5.9-3.029-6.21-8.932-.39-7.378-3.11-14.368 1.55-29.512 3.73-12.116 6.22-19.546 6.99-21.747.78-1.165 2.1-4.582 1.17-8.931-.93-4.349-5.05-14.239-6.99-18.64m11.26 331.241l16.7-17.086m-62.91-17.086l13.2-16.698 5.83-18.64 43.88-53.977" stroke="#E4E3E1" stroke-width="2"/><path fill-rule="evenodd" clip-rule="evenodd" d="M727.721 443.079c0 6.867-5.093 12.544-11.707 13.461l-1.896 3.236-1.88-3.237c-6.611-.92-11.7-6.596-11.7-13.46 0-7.507 6.085-13.592 13.592-13.592 7.506 0 13.591 6.085 13.591 13.592zm-11.65 19.416a1.941 1.941 0 11-3.882 0 1.941 1.941 0 013.882 0z" fill="#D04B8D"/><path d="M717.252 437.303l-.137-.001-2.916 5.714-3.02-5.762-4.135 10.409h-1.069v.836h5.855v-.836h-1.162l1.162-3.253 2.369 4.089 2.277-4.089 1.162 3.253h-1.162v.836h5.808v-.836h-1.006l-4.026-10.36z" fill="#fff"/><path fill-rule="evenodd" clip-rule="evenodd" d="M966.929 247.363c0 6.867-5.093 12.544-11.707 13.462l-1.896 3.236-1.88-3.238c-6.611-.92-11.7-6.596-11.7-13.46 0-7.507 6.085-13.592 13.592-13.592 7.506 0 13.591 6.085 13.591 13.592zm-11.65 19.416a1.942 1.942 0 11-3.884 0 1.942 1.942 0 013.884 0z" fill="#D04B8D"/><path d="M956.46 241.587h-.137l-2.915 5.713-3.021-5.762-4.135 10.409h-1.069v.836h5.855v-.836h-1.162l1.162-3.253 2.37 4.089 2.277-4.089 1.161 3.253h-1.161v.836h5.808v-.836h-1.006l-4.027-10.36z" fill="#fff"/><path fill-rule="evenodd" clip-rule="evenodd" d="M500.595 518.242c0 13.196-10.195 24.01-23.139 24.996l-1.942 3.164-1.926-3.165c-12.939-.989-23.131-11.802-23.131-24.995 0-13.846 11.224-25.07 25.069-25.07 13.846 0 25.069 11.224 25.069 25.07zm-23.198 31.429a1.87 1.87 0 11-3.742 0 1.87 1.87 0 013.742 0z" fill="#CD7858"/><path d="M475.563 531.781h5.106v-14.764l-5.106-2.998v17.762zM473.715 514.767v17.014h1.083v-17.62l-1.083.606zM472.018 515.522v16.259h1.083v-16.865l-1.083.606zM470.299 516.374v15.407h1.091v-16.02l-1.091.613zM468.511 517.151v14.63h1.091v-15.243l-1.091.613zM466.882 517.988v13.792h1.091v-14.405l-1.091.613zM482.517 531.78h4.992v-12.595l-4.992-2.938v15.533z" fill="#fff"/><path d="M480.661 517.002v14.779h1.091v-15.392l-1.091.613zM478.972 517.757v14.024h1.083v-14.63l-1.083.606zM477.252 518.602v13.179h1.091v-13.785l-1.091.606zM464.936 522.339v9.442h1.09v-10.047l-1.09.605zM463.224 523.191v8.589h1.083v-9.202l-1.083.613z" fill="#fff"/><path fill-rule="evenodd" clip-rule="evenodd" d="M462.883 502.492h24.853v29.513h-24.853v-29.513zm.455.449v28.615h23.943v-28.615h-23.943z" fill="#fff"/><path fill-rule="evenodd" clip-rule="evenodd" d="M714.118 467.543l-2.707 4.66h5.437l-2.73-4.66z" fill="#292B32"/><path fill="#292B32" d="M639 472h150v26H639z"/><path d="M655.626 488.96c0 .085.011.181.032.288.021.096.053.186.096.272.053.085.112.16.176.224a.308.308 0 00.224.096v.16h-2.08v-.16c.085 0 .16-.027.224-.08a.868.868 0 00.16-.224c.043-.096.075-.192.096-.288.021-.107.032-.203.032-.288v-4.32l-2.672 5.504-2.56-5.184v4c0 .085.011.181.032.288.021.096.053.186.096.272.043.085.096.16.16.224a.308.308 0 00.224.096v.16h-1.552v-.16c.085 0 .16-.032.224-.096a.625.625 0 00.144-.224c.043-.086.075-.176.096-.272.021-.107.032-.203.032-.288v-4.688c0-.192-.027-.379-.08-.56-.043-.182-.181-.272-.416-.272v-.16h1.424l2.448 5.008 2.448-5.008h1.52v.16c-.16 0-.288.101-.384.304a1.195 1.195 0 00-.144.528v4.688zm2.206.352c0-.214.069-.395.208-.544a.738.738 0 01.544-.224c.213 0 .395.074.544.224a.74.74 0 01.224.544.744.744 0 01-.224.544.773.773 0 01-.544.208.773.773 0 01-.544-.208.77.77 0 01-.208-.544zm7.263.528h.08c.085 0 .16-.027.224-.08a.868.868 0 00.16-.224c.043-.096.075-.192.096-.288.021-.107.032-.203.032-.288v-8.528a.82.82 0 00-.048-.256 1.14 1.14 0 00-.096-.272.63.63 0 00-.16-.208.29.29 0 00-.208-.096h-.08v-.16h8.192v.16h-.128a.241.241 0 00-.192.096.747.747 0 00-.144.224 1.964 1.964 0 00-.08.272 1.168 1.168 0 00-.032.24v8.528c0 .085.005.176.016.272.021.096.048.192.08.288.043.085.091.16.144.224a.29.29 0 00.208.096h.128v.16h-2.24v-.16h.144a.241.241 0 00.192-.096.625.625 0 00.144-.224.806.806 0 00.08-.272c.021-.107.032-.203.032-.288V480h-4.88v8.96c0 .085.011.181.032.288.021.096.048.186.08.272.043.085.096.16.16.224a.308.308 0 00.224.096h.08v.16h-2.24v-.16zm14.519 0a.48.48 0 00.256-.096.309.309 0 00.144-.272.533.533 0 00-.032-.128.815.815 0 00-.08-.24l-2.032-4.8-2.112 5.04c-.182.437-.539.656-1.072.656h-.352v-.16c.149 0 .309-.075.48-.224a1.85 1.85 0 00.432-.56l2.176-5.088c.053-.139.08-.251.08-.336 0-.128-.086-.192-.256-.192v-.16h1.296l2.464 5.76c.074.16.181.336.32.528.149.181.288.272.416.272v.16h-2.128v-.16zm6.45.272a3.864 3.864 0 01-1.44-.256 3.636 3.636 0 01-1.104-.72 3.44 3.44 0 01-.704-1.088 3.76 3.76 0 01-.24-1.36c0-.523.091-.998.272-1.424.182-.438.432-.811.752-1.12.32-.31.699-.55 1.136-.72a3.879 3.879 0 011.424-.256c.512 0 .982.085 1.408.256a3.088 3.088 0 011.824 1.76c.171.405.256.853.256 1.344 0 .458-.08.906-.24 1.344a3.18 3.18 0 01-.688 1.136c-.298.33-.672.597-1.12.8-.437.202-.949.304-1.536.304zm-.096-6.416a2.283 2.283 0 00-1.024.288c-.288.16-.533.373-.736.64a2.98 2.98 0 00-.448.88 3.59 3.59 0 00-.144 1.008c0 .394.059.778.176 1.152.128.362.304.688.528.976.235.288.512.517.832.688.32.17.678.256 1.072.256.395 0 .742-.086 1.04-.256.31-.171.566-.39.768-.656.203-.278.352-.587.448-.928.107-.342.16-.683.16-1.024 0-.352-.053-.704-.16-1.056a2.897 2.897 0 00-.496-.976 2.511 2.511 0 00-.848-.72c-.33-.182-.72-.272-1.168-.272zm15.703 5.776v1.968h-.16a1.906 1.906 0 00-.144-.448 1.858 1.858 0 00-.272-.464 1.887 1.887 0 00-.4-.384.87.87 0 00-.48-.144h-9.072v-.16a.241.241 0 00.192-.096.757.757 0 00.128-.224c.032-.086.054-.176.064-.272.022-.096.032-.176.032-.24v-4.688c0-.075-.01-.166-.032-.272a.797.797 0 00-.08-.288.616.616 0 00-.144-.224.306.306 0 00-.224-.096v-.16h1.984v.16a.308.308 0 00-.224.096.85.85 0 00-.16.224 1.917 1.917 0 00-.08.288 3.01 3.01 0 00-.016.272v5.152h2.896v-5.152c0-.075-.01-.166-.032-.272a.829.829 0 00-.24-.512.241.241 0 00-.192-.096v-.16h1.984v.16a.308.308 0 00-.224.096.63.63 0 00-.16.208 2.112 2.112 0 00-.08.272.955.955 0 00-.032.224v5.232h2.912v-5.152c0-.075-.01-.166-.032-.272a.797.797 0 00-.08-.288.616.616 0 00-.144-.224.326.326 0 00-.24-.096v-.16h2.016v.16a.326.326 0 00-.24.096 1.166 1.166 0 00-.144.224 1.917 1.917 0 00-.08.288 3.01 3.01 0 00-.016.272v4.272a2.883 2.883 0 00.064.544.739.739 0 00.128.24.326.326 0 00.24.096h.784zm5.273.528v-.816l-.08.08a2.928 2.928 0 01-.928.624c-.341.149-.757.224-1.248.224-.373 0-.693-.043-.96-.128a1.844 1.844 0 01-.656-.352 1.582 1.582 0 01-.384-.544 1.83 1.83 0 01-.112-.64c0-.363.096-.683.288-.96.203-.278.491-.523.864-.736a7.054 7.054 0 011.36-.576 23.666 23.666 0 011.856-.528c-.021-.416-.107-.752-.256-1.008a1.783 1.783 0 00-.528-.592 1.552 1.552 0 00-.64-.288 2.51 2.51 0 00-.576-.08c-.277 0-.523.042-.736.128-.213.074-.4.181-.56.32-.16.128-.293.277-.4.448-.096.17-.171.341-.224.512h-.144v-1.248a.773.773 0 00.336-.096c.128-.075.277-.155.448-.24.181-.086.395-.16.64-.224.256-.075.56-.112.912-.112.587 0 1.061.074 1.424.224.363.149.64.346.832.592.203.245.336.528.4.848.064.309.096.629.096.96v3.168c0 .213.053.416.16.608.107.181.251.272.432.272v.16h-1.616zm0-1.52v-2.288l-.16.032a29.05 29.05 0 00-.944.256 5.803 5.803 0 00-1.04.416c-.331.17-.613.373-.848.608a1.116 1.116 0 00-.352.816c0 .341.139.624.416.848.277.224.64.336 1.088.336.352 0 .661-.075.928-.224.267-.16.512-.363.736-.608l.176-.192zm10.209.992v1.968h-.16a3.556 3.556 0 00-.112-.448 2.085 2.085 0 00-.224-.464 1.502 1.502 0 00-.352-.384.727.727 0 00-.448-.144h-5.088a.794.794 0 00-.464.144 1.747 1.747 0 00-.368.384 2.723 2.723 0 00-.24.464c-.054.17-.086.32-.096.448h-.16v-1.968h.608a.247.247 0 00.176-.08c.064-.054.122-.118.176-.192.064-.075.122-.155.176-.24.053-.096.101-.182.144-.256.16-.363.352-.795.576-1.296.234-.502.469-1.019.704-1.552.245-.534.48-1.051.704-1.552l.576-1.312 2.704 5.904c.085.181.165.325.24.432a.364.364 0 00.304.144h.624zm-6.224 0h4.16l-2.08-4.56-2.08 4.56zm9.982-3.28c.491 0 .917.048 1.28.144.373.096.677.229.912.4.245.17.427.373.544.608a1.666 1.666 0 010 1.488 1.596 1.596 0 01-.56.608c-.245.17-.555.309-.928.416a5.38 5.38 0 01-1.328.144h-2.736v-.16c.085 0 .16-.027.224-.08a.868.868 0 00.16-.224c.053-.096.091-.192.112-.288.021-.107.032-.203.032-.288v-4.688c0-.075-.011-.16-.032-.256a.86.86 0 00-.112-.272.63.63 0 00-.16-.208.308.308 0 00-.224-.096v-.16h2.096v.16c-.16 0-.288.101-.384.304a1.195 1.195 0 00-.144.528v1.92h1.248zm-.112 3.28c.704 0 1.211-.112 1.52-.336.32-.235.48-.523.48-.864 0-.192-.043-.379-.128-.56a1.266 1.266 0 00-.4-.496 1.831 1.831 0 00-.64-.352 2.495 2.495 0 00-.88-.144h-1.088v2.752h1.136zm17.185.368h.08a.29.29 0 00.208-.096.844.844 0 00.16-.224.847.847 0 00.112-.272c.022-.107.032-.203.032-.288v-8.416l-4.128 9.632-3.92-9.136v7.92a1.254 1.254 0 00.128.56c.054.085.112.16.176.224a.308.308 0 00.224.096h.08v.16h-1.744v-.16h.08a.29.29 0 00.208-.096.844.844 0 00.16-.224c.043-.086.075-.176.096-.272.022-.107.032-.203.032-.288v-8.528c0-.075-.01-.16-.032-.256a1.14 1.14 0 00-.096-.272.617.617 0 00-.16-.208.29.29 0 00-.208-.096h-.08v-.16h1.632l3.712 8.752 3.712-8.752h1.808v.16h-.08a.308.308 0 00-.224.096.858.858 0 00-.176.208 1.236 1.236 0 00-.128.528v8.528a1.254 1.254 0 00.128.56c.054.085.112.16.176.224a.308.308 0 00.224.096h.08v.16h-2.272v-.16zm8.054.16v-.816l-.08.08a2.928 2.928 0 01-.928.624c-.342.149-.758.224-1.248.224-.374 0-.694-.043-.96-.128a1.836 1.836 0 01-.656-.352 1.582 1.582 0 01-.384-.544 1.83 1.83 0 01-.112-.64c0-.363.096-.683.288-.96.202-.278.49-.523.864-.736a7.027 7.027 0 011.36-.576 23.542 23.542 0 011.856-.528c-.022-.416-.107-.752-.256-1.008a1.805 1.805 0 00-.528-.592 1.552 1.552 0 00-.64-.288 2.51 2.51 0 00-.576-.08c-.278 0-.523.042-.736.128-.214.074-.4.181-.56.32-.16.128-.294.277-.4.448-.096.17-.171.341-.224.512h-.144v-1.248a.773.773 0 00.336-.096c.128-.075.277-.155.448-.24.181-.086.394-.16.64-.224.256-.075.56-.112.912-.112.586 0 1.061.074 1.424.224.362.149.64.346.832.592.202.245.336.528.4.848.064.309.096.629.096.96v3.168c0 .213.053.416.16.608.106.181.25.272.432.272v.16h-1.616zm0-1.52v-2.288l-.16.032a29.05 29.05 0 00-.944.256c-.363.106-.71.245-1.04.416-.331.17-.614.373-.848.608a1.116 1.116 0 00-.352.816c0 .341.138.624.416.848.277.224.64.336 1.088.336.352 0 .661-.075.928-.224.266-.16.512-.363.736-.608l.176-.192zm6.496-5.312c.576 0 1.072.101 1.488.304.427.192.779.448 1.056.768.288.32.502.688.64 1.104a4.01 4.01 0 010 2.544c-.128.416-.33.789-.608 1.12-.266.33-.602.597-1.008.8-.405.202-.885.304-1.44.304-.33 0-.672-.086-1.024-.256a4.188 4.188 0 01-.928-.672v3.296c0 .085.011.176.032.272.022.106.054.202.096.288.054.085.107.16.16.224a.308.308 0 00.224.096v.16h-2.08v-.16a.29.29 0 00.208-.096.844.844 0 00.16-.224.844.844 0 00.112-.288c.022-.096.032-.187.032-.272v-8.256c0-.096-.005-.187-.016-.272a.534.534 0 00-.048-.24.36.36 0 00-.16-.176.5.5 0 00-.288-.096v-.16h1.568v.704c.214-.256.47-.454.768-.592.31-.15.662-.224 1.056-.224zm.144 6.4a2.04 2.04 0 00.976-.256c.278-.16.507-.368.688-.624.182-.256.315-.539.4-.848.086-.32.128-.651.128-.992 0-.384-.053-.763-.16-1.136a3.238 3.238 0 00-.464-.992 2.4 2.4 0 00-.752-.72 1.745 1.745 0 00-.992-.288c-.224 0-.448.042-.672.128a1.83 1.83 0 00-.576.368c-.16.16-.293.352-.4.576a1.734 1.734 0 00-.144.72v2.096c0 .288.059.554.176.8.118.234.267.442.448.624.192.17.406.304.64.4.235.096.47.144.704.144zm9.531-.816a2.722 2.722 0 00.608.72c.138.106.277.197.416.272a.951.951 0 00.4.096v.16h-.608c-.491 0-.87-.102-1.136-.304a2.224 2.224 0 01-.624-.72l-.752-1.424c-.118-.224-.315-.416-.592-.576a1.652 1.652 0 00-.88-.256v2.272c0 .085.005.176.016.272.021.096.053.186.096.272.042.085.096.16.16.224a.34.34 0 00.224.08v.16h-2.064v-.16a.322.322 0 00.208-.08.731.731 0 00.176-.224 1.254 1.254 0 00.128-.544v-4.704c0-.075-.011-.16-.032-.256a1.188 1.188 0 00-.096-.288.481.481 0 00-.144-.208.326.326 0 00-.24-.096v-.16h2.048v.16a.29.29 0 00-.208.096.747.747 0 00-.144.208 1.108 1.108 0 00-.096.288 1.152 1.152 0 00-.032.256v1.648c.458-.406.912-.795 1.36-1.168.448-.384.901-.779 1.36-1.184 0-.011.005-.022.016-.032.01-.011.016-.022.016-.032 0-.054-.027-.08-.08-.08v-.16h1.392v.16a.498.498 0 00-.192.048c-.075.032-.15.069-.224.112a1.586 1.586 0 00-.256.16c-.48.405-.96.821-1.44 1.248-.48.416-.96.826-1.44 1.232.458 0 .832.085 1.12.256.298.17.549.442.752.816l.784 1.44zm7.618.672a.474.474 0 00-.24.064c-.075.032-.16.074-.256.128a5.34 5.34 0 01-.72.336c-.299.106-.672.16-1.12.16a4.297 4.297 0 01-1.504-.256 3.772 3.772 0 01-1.168-.736 3.421 3.421 0 01-.768-1.104 3.49 3.49 0 01-.272-1.376c0-.459.08-.896.24-1.312.171-.416.411-.784.72-1.104.309-.32.688-.576 1.136-.768a3.986 3.986 0 011.552-.288c.395 0 .715.048.96.144.245.085.453.17.624.256.096.053.187.096.272.128a.906.906 0 00.288.048v1.216h-.16a1.209 1.209 0 00-.288-.528 1.916 1.916 0 00-.48-.4 2.203 2.203 0 00-.592-.24 2.532 2.532 0 00-.624-.08c-.437 0-.821.08-1.152.24a2.237 2.237 0 00-.816.608 2.474 2.474 0 00-.48.848c-.107.32-.16.65-.16.992 0 .394.059.784.176 1.168.128.373.304.709.528 1.008.235.298.517.538.848.72.341.181.725.272 1.152.272.299 0 .576-.043.832-.128.256-.086.475-.198.656-.336.192-.139.341-.288.448-.448.117-.171.187-.331.208-.48h.16v1.248zm5.289.576v-.816l-.08.08a2.928 2.928 0 01-.928.624c-.341.149-.757.224-1.248.224-.373 0-.693-.043-.96-.128a1.844 1.844 0 01-.656-.352 1.582 1.582 0 01-.384-.544 1.83 1.83 0 01-.112-.64c0-.363.096-.683.288-.96.203-.278.491-.523.864-.736a7.054 7.054 0 011.36-.576 23.666 23.666 0 011.856-.528c-.021-.416-.107-.752-.256-1.008a1.783 1.783 0 00-.528-.592 1.552 1.552 0 00-.64-.288 2.51 2.51 0 00-.576-.08c-.277 0-.523.042-.736.128-.213.074-.4.181-.56.32-.16.128-.293.277-.4.448-.096.17-.171.341-.224.512h-.144v-1.248a.773.773 0 00.336-.096c.128-.075.277-.155.448-.24.181-.086.395-.16.64-.224.256-.075.56-.112.912-.112.587 0 1.061.074 1.424.224.363.149.64.346.832.592.203.245.336.528.4.848.064.309.096.629.096.96v3.168c0 .213.053.416.16.608.107.181.251.272.432.272v.16h-1.616zm0-1.52v-2.288l-.16.032a29.05 29.05 0 00-.944.256 5.803 5.803 0 00-1.04.416c-.331.17-.613.373-.848.608a1.116 1.116 0 00-.352.816c0 .341.139.624.416.848.277.224.64.336 1.088.336.352 0 .661-.075.928-.224.267-.16.512-.363.736-.608l.176-.192zm3.232.032c.31 0 .534.106.672.32.15.213.224.458.224.736 0 .16-.021.336-.064.528-.042.202-.128.4-.256.592-.117.202-.293.4-.528.592a3.516 3.516 0 01-.896.56l-.08-.144c.214-.192.379-.368.496-.528a1.62 1.62 0 00.272-.416.887.887 0 00.112-.336c.022-.107.032-.219.032-.336 0-.086-.026-.15-.08-.192a1.064 1.064 0 00-.176-.144 4.193 4.193 0 01-.256-.176c-.085-.075-.128-.198-.128-.368a.67.67 0 01.192-.496.633.633 0 01.464-.192z" fill="#fff"/><path fill-rule="evenodd" clip-rule="evenodd" d="M953.326 273.381l-2.707 4.659h5.437l-2.73-4.659z" fill="#292B32"/><path fill="#292B32" d="M878 278h150v26H878z"/><path d="M905.977 294.96a1.254 1.254 0 00.128.56c.054.085.112.16.176.224a.308.308 0 00.224.096v.16h-2.08v-.16a.34.34 0 00.224-.08.844.844 0 00.16-.224 1.438 1.438 0 00.128-.576v-4.32l-2.672 5.504-2.56-5.184v4a1.254 1.254 0 00.128.56c.043.085.096.16.16.224a.308.308 0 00.224.096v.16h-1.552v-.16c.086 0 .16-.032.224-.096a.625.625 0 00.144-.224c.043-.086.075-.176.096-.272.022-.107.032-.203.032-.288v-4.688a1.95 1.95 0 00-.08-.56c-.042-.182-.181-.272-.416-.272v-.16h1.424l2.448 5.008 2.448-5.008h1.52v.16c-.16 0-.288.101-.384.304a1.195 1.195 0 00-.144.528v4.688zm2.206.352c0-.214.07-.395.208-.544a.74.74 0 01.544-.224c.214 0 .395.074.544.224.15.149.224.33.224.544a.74.74 0 01-.224.544.772.772 0 01-.544.208.775.775 0 01-.544-.208.775.775 0 01-.208-.544zm12.895-9.456c-.789 0-1.477.144-2.064.432a4.249 4.249 0 00-1.44 1.104 4.566 4.566 0 00-.864 1.52 5.484 5.484 0 00-.272 1.68c0 .629.123 1.248.368 1.856a5.46 5.46 0 001.008 1.6c.438.458.944.832 1.52 1.12.576.277 1.2.416 1.872.416.192 0 .416-.022.672-.064.267-.043.528-.123.784-.24.256-.128.491-.304.704-.528a2.16 2.16 0 00.512-.88h.16v1.776c-.16 0-.33.021-.512.064l-.576.144a12.55 12.55 0 01-.928.208c-.33.064-.682.096-1.056.096-.928 0-1.744-.16-2.448-.48a5.365 5.365 0 01-1.76-1.248 5.181 5.181 0 01-1.056-1.728 5.783 5.783 0 01-.352-1.968c0-.662.118-1.318.352-1.968a5.015 5.015 0 011.072-1.744c.48-.523 1.083-.944 1.808-1.264.726-.32 1.579-.48 2.56-.48.352 0 .667.032.944.096.288.064.544.128.768.192.16.053.304.096.432.128.139.021.272.032.4.032v1.776h-.16a1.837 1.837 0 00-.96-1.328 2.35 2.35 0 00-.736-.24 3.63 3.63 0 00-.752-.08zm9.511 5.104c0-.118-.022-.246-.064-.384a1.103 1.103 0 00-.192-.368 1.028 1.028 0 00-.32-.288.871.871 0 00-.448-.112h-1.408v5.152a1.475 1.475 0 00.128.56c.053.085.106.16.16.224a.306.306 0 00.224.096v.16h-2.08v-.16c.085 0 .16-.032.224-.096a.868.868 0 00.16-.224.894.894 0 00.112-.272c.021-.107.032-.203.032-.288v-5.152h-1.376a.869.869 0 00-.448.112c-.128.074-.235.17-.32.288a1.268 1.268 0 00-.176.368 1.295 1.295 0 00-.064.384h-.16v-1.68h6.16v1.68h-.144zm3.62 7.328c-.149.448-.341.752-.576.912-.224.16-.458.24-.704.24a1.12 1.12 0 01-.432-.08 2.023 2.023 0 01-.336-.176 1.55 1.55 0 01-.224-.176 2.798 2.798 0 00-.064-.08l.528-1.296c.043.17.096.314.16.432a.985.985 0 00.224.288.514.514 0 00.352.128c.256 0 .459-.187.608-.56l.768-1.968-2.56-5.824a3.245 3.245 0 00-.272-.48c-.085-.139-.234-.208-.448-.208v-.16h2.064v.16c-.042 0-.096.037-.16.112a.425.425 0 00-.096.288c0 .085.022.17.064.256l1.968 4.528 1.888-4.624a.532.532 0 00.048-.208.319.319 0 00-.112-.256.29.29 0 00-.208-.096v-.16h1.552v.16c-.17 0-.32.074-.448.224a1.791 1.791 0 00-.288.48l-3.296 8.144zm12.139-2.816v1.968h-.16a3.556 3.556 0 00-.112-.448 2.085 2.085 0 00-.224-.464 1.502 1.502 0 00-.352-.384.727.727 0 00-.448-.144h-5.088a.794.794 0 00-.464.144 1.747 1.747 0 00-.368.384 2.723 2.723 0 00-.24.464c-.054.17-.086.32-.096.448h-.16v-1.968h.608a.247.247 0 00.176-.08c.064-.054.122-.118.176-.192.064-.075.122-.155.176-.24.053-.096.101-.182.144-.256.16-.363.352-.795.576-1.296.234-.502.469-1.019.704-1.552.245-.534.48-1.051.704-1.552l.576-1.312 2.704 5.904c.085.181.165.325.24.432a.364.364 0 00.304.144h.624zm-6.224 0h4.16l-2.08-4.56-2.08 4.56zm8.046-2.704c.043.373.133.73.272 1.072.139.33.32.624.544.88.235.256.517.464.848.624.331.149.715.224 1.152.224.235 0 .48-.032.736-.096.267-.075.512-.176.736-.304.224-.128.421-.283.592-.464.181-.192.304-.406.368-.64h.144v1.2a.51.51 0 00-.224.064c-.075.042-.165.096-.272.16a6.696 6.696 0 01-.864.416c-.363.138-.843.208-1.44.208-.48 0-.939-.07-1.376-.208a3.236 3.236 0 01-1.136-.64 3.171 3.171 0 01-.8-1.104c-.192-.448-.288-.982-.288-1.6 0-.395.064-.795.192-1.2.139-.406.341-.768.608-1.088a3.06 3.06 0 011.056-.8c.427-.203.939-.304 1.536-.304.533 0 .997.09 1.392.272.405.181.736.432.992.752.267.32.464.698.592 1.136.128.437.192.917.192 1.44h-5.552zm2.32-3.072c-.373 0-.699.074-.976.224a2.374 2.374 0 00-.688.576 2.665 2.665 0 00-.448.8 3.862 3.862 0 00-.208.896h4.56a2.997 2.997 0 00-.176-.912 2.59 2.59 0 00-.416-.8 1.956 1.956 0 00-.688-.56 1.984 1.984 0 00-.96-.224zm6.134 5.264c0 .085.01.181.032.288a1.156 1.156 0 00.24.496.29.29 0 00.208.096v.16h-2.016v-.16a.265.265 0 00.192-.08.868.868 0 00.16-.224c.042-.096.074-.192.096-.288.021-.107.032-.203.032-.288v-4.688a1.236 1.236 0 00-.128-.528.63.63 0 00-.16-.208.244.244 0 00-.192-.096v-.16h2.016v.16a.306.306 0 00-.224.096.747.747 0 00-.144.208 1.964 1.964 0 00-.08.272 1.152 1.152 0 00-.032.256v1.936h3.648v-1.936a1.236 1.236 0 00-.128-.528.481.481 0 00-.144-.208.26.26 0 00-.208-.096v-.16h2.016v.16a.306.306 0 00-.224.096.747.747 0 00-.144.208 1.14 1.14 0 00-.096.272 2.261 2.261 0 00-.016.256v4.688c0 .085.01.181.032.288a1.156 1.156 0 00.24.496.29.29 0 00.208.096v.16h-2.016v-.16a.265.265 0 00.192-.08.868.868 0 00.16-.224c.042-.096.074-.192.096-.288.021-.107.032-.203.032-.288v-2.224h-3.648v2.224zm12.089.032c0 .085.01.176.032.272.032.096.069.186.112.272.042.085.09.16.144.224.053.053.122.08.208.08v.16h-2.032v-.16a.265.265 0 00.192-.08.868.868 0 00.16-.224 1.254 1.254 0 00.128-.544v-2.208a2.889 2.889 0 01-.784.592c-.267.128-.603.192-1.008.192-.384 0-.726-.075-1.024-.224a2.292 2.292 0 01-.752-.592 3.06 3.06 0 01-.448-.848 3.435 3.435 0 01-.144-.992v-.64c0-.075-.011-.16-.032-.256a1.138 1.138 0 00-.064-.272.57.57 0 00-.128-.208c-.043-.064-.091-.096-.144-.096v-.16h1.872v.16c-.064 0-.128.032-.192.096a.747.747 0 00-.144.208 1.964 1.964 0 00-.08.272 1.152 1.152 0 00-.032.256v.64c0 .362.053.672.16.928.106.245.24.448.4.608.16.149.336.261.528.336.192.064.378.096.56.096.277 0 .528-.064.752-.192.234-.139.469-.347.704-.624v-1.792a1.236 1.236 0 00-.128-.528.63.63 0 00-.16-.208.244.244 0 00-.192-.096v-.16h2.032v.16a.257.257 0 00-.208.096.747.747 0 00-.144.208 2.01 2.01 0 00-.112.272 1.152 1.152 0 00-.032.256v4.72zm2.941-2.224c.043.373.134.73.272 1.072.139.33.32.624.544.88.235.256.518.464.848.624.331.149.715.224 1.152.224.235 0 .48-.032.736-.096.267-.075.512-.176.736-.304.224-.128.422-.283.592-.464.182-.192.304-.406.368-.64h.144v1.2a.513.513 0 00-.224.064c-.074.042-.165.096-.272.16a6.696 6.696 0 01-.864.416c-.362.138-.842.208-1.44.208-.48 0-.938-.07-1.376-.208a3.245 3.245 0 01-1.136-.64 3.184 3.184 0 01-.8-1.104c-.192-.448-.288-.982-.288-1.6 0-.395.064-.795.192-1.2.139-.406.342-.768.608-1.088.278-.331.63-.598 1.056-.8.427-.203.939-.304 1.536-.304.534 0 .998.09 1.392.272.406.181.736.432.992.752.267.32.464.698.592 1.136.128.437.192.917.192 1.44h-5.552zm2.32-3.072c-.373 0-.698.074-.976.224a2.387 2.387 0 00-.688.576 2.665 2.665 0 00-.448.8 3.913 3.913 0 00-.208.896h4.56a2.967 2.967 0 00-.176-.912 2.57 2.57 0 00-.416-.8 1.948 1.948 0 00-.688-.56 1.984 1.984 0 00-.96-.224zm10.126 5.728a.474.474 0 00-.24.064 2.76 2.76 0 00-.256.128 5.34 5.34 0 01-.72.336c-.298.106-.672.16-1.12.16a4.297 4.297 0 01-1.504-.256 3.772 3.772 0 01-1.168-.736 3.452 3.452 0 01-.768-1.104 3.49 3.49 0 01-.272-1.376c0-.459.08-.896.24-1.312.171-.416.411-.784.72-1.104.31-.32.688-.576 1.136-.768a3.986 3.986 0 011.552-.288c.395 0 .715.048.96.144.246.085.454.17.624.256.096.053.187.096.272.128a.906.906 0 00.288.048v1.216h-.16a1.209 1.209 0 00-.288-.528 1.881 1.881 0 00-.48-.4 2.19 2.19 0 00-.592-.24 2.532 2.532 0 00-.624-.08c-.437 0-.821.08-1.152.24-.33.149-.602.352-.816.608a2.474 2.474 0 00-.48.848c-.106.32-.16.65-.16.992 0 .394.059.784.176 1.168.128.373.304.709.528 1.008.235.298.518.538.848.72.342.181.726.272 1.152.272.299 0 .576-.043.832-.128.256-.086.475-.198.656-.336.192-.139.342-.288.448-.448.118-.171.187-.331.208-.48h.16v1.248zm5.913-.672c.064.117.149.24.256.368.107.128.224.245.352.352.139.106.277.197.416.272a.955.955 0 00.4.096v.16h-.608c-.491 0-.869-.102-1.136-.304a2.224 2.224 0 01-.624-.72l-.752-1.424c-.117-.224-.315-.416-.592-.576a1.65 1.65 0 00-.88-.256v2.272c0 .085.005.176.016.272.021.096.053.186.096.272.043.085.096.16.16.224.064.053.139.08.224.08v.16h-2.064v-.16a.32.32 0 00.208-.08.716.716 0 00.176-.224 1.28 1.28 0 00.128-.544v-4.704c0-.075-.011-.16-.032-.256a1.108 1.108 0 00-.096-.288.481.481 0 00-.144-.208.326.326 0 00-.24-.096v-.16h2.048v.16a.29.29 0 00-.208.096.792.792 0 00-.144.208 1.108 1.108 0 00-.096.288 1.215 1.215 0 00-.032.256v1.648a59.95 59.95 0 011.36-1.168c.448-.384.901-.779 1.36-1.184 0-.011.005-.022.016-.032.011-.011.016-.022.016-.032 0-.054-.027-.08-.08-.08v-.16h1.392v.16a.507.507 0 00-.192.048 2.126 2.126 0 00-.224.112 1.63 1.63 0 00-.256.16c-.48.405-.96.821-1.44 1.248-.48.416-.96.826-1.44 1.232.459 0 .832.085 1.12.256.299.17.549.442.752.816l.784 1.44zm6.595 1.248v-.816l-.08.08a2.928 2.928 0 01-.928.624c-.342.149-.758.224-1.248.224-.374 0-.694-.043-.96-.128a1.836 1.836 0 01-.656-.352 1.582 1.582 0 01-.384-.544 1.83 1.83 0 01-.112-.64c0-.363.096-.683.288-.96.202-.278.49-.523.864-.736a7.027 7.027 0 011.36-.576 23.542 23.542 0 011.856-.528c-.022-.416-.107-.752-.256-1.008a1.805 1.805 0 00-.528-.592 1.552 1.552 0 00-.64-.288 2.51 2.51 0 00-.576-.08c-.278 0-.523.042-.736.128-.214.074-.4.181-.56.32-.16.128-.294.277-.4.448-.096.17-.171.341-.224.512h-.144v-1.248a.773.773 0 00.336-.096c.128-.075.277-.155.448-.24.181-.086.394-.16.64-.224.256-.075.56-.112.912-.112.586 0 1.061.074 1.424.224.362.149.64.346.832.592.202.245.336.528.4.848.064.309.096.629.096.96v3.168c0 .213.053.416.16.608.106.181.25.272.432.272v.16h-1.616zm0-1.52v-2.288l-.16.032a29.05 29.05 0 00-.944.256c-.363.106-.71.245-1.04.416-.331.17-.614.373-.848.608a1.116 1.116 0 00-.352.816c0 .341.138.624.416.848.277.224.64.336 1.088.336.352 0 .661-.075.928-.224.266-.16.512-.363.736-.608l.176-.192zm8.192.48c0 .085.01.181.03.288.02.096.06.192.1.288.05.085.1.16.16.224.06.053.14.08.22.08v.16h-2.08v-.16a.28.28 0 00.21-.096.892.892 0 00.16-.224.915.915 0 00.11-.272c.02-.107.03-.203.03-.288v-2.24c-.11.021-.25.085-.4.192a2.8 2.8 0 00-.46.384c-.16.149-.31.314-.46.496-.15.181-.29.362-.42.544l-.27.368c-.08.096-.14.186-.19.272-.11.138-.22.272-.32.4-.11.117-.23.224-.37.32-.13.096-.28.17-.47.224-.18.053-.39.08-.636.08h-.592v-.16a.763.763 0 00.384-.112c.139-.075.272-.166.4-.272a5.109 5.109 0 00.654-.752l.5-.688c.18-.246.37-.486.56-.72.19-.246.41-.438.65-.576a3.697 3.697 0 01-1.02-.16 2.32 2.32 0 01-.75-.384 1.82 1.82 0 01-.47-.544 1.686 1.686 0 01-.14-.672c0-.224.048-.438.14-.64.11-.203.28-.379.5-.528.22-.16.51-.283.85-.368.35-.096.77-.144 1.26-.144h2.64v.16a.3.3 0 00-.22.096.821.821 0 00-.16.208c-.04.085-.08.176-.1.272-.02.096-.03.181-.03.256v4.688zm-3.84-4.096c0 .16.05.32.14.48.11.16.25.304.42.432.18.128.38.234.61.32.22.074.46.112.72.112h.89v-2.416h-1.04c-.64 0-1.09.101-1.36.304a.95.95 0 00-.38.768zm6.04 3.648c.31 0 .53.106.67.32.15.213.22.458.22.736 0 .16-.02.336-.06.528-.04.202-.13.4-.26.592-.11.202-.29.4-.53.592-.22.202-.52.389-.89.56l-.08-.144c.21-.192.38-.368.49-.528.13-.15.22-.288.28-.416.06-.118.1-.23.11-.336.02-.107.03-.219.03-.336a.24.24 0 00-.08-.192.814.814 0 00-.18-.144c-.08-.054-.17-.112-.25-.176-.09-.075-.13-.198-.13-.368a.651.651 0 01.66-.688z" fill="#fff"/><path d="M659.705 538.344l3.786-4.246a10 10 0 0113.785-1.092l18.514 15.104a5.267 5.267 0 011.149 6.855 5.268 5.268 0 001.448 7.081l.813.572a6.322 6.322 0 011.218 9.218l-1.297 1.556a8.192 8.192 0 00-1.883 5.733l1.552 25.865a10 10 0 01-9.127 10.562l-57.368 4.925a9.999 9.999 0 01-10.804-8.953l-5.743-56.567c-.566-5.568 3.548-10.515 9.126-10.976l28.191-2.328a10.002 10.002 0 006.64-3.309zM523.273 300.261l-200.314 17.465c-4.34.379-7.45 4.356-6.77 8.66a7.515 7.515 0 007.938 6.325l30.033-2.061a2.91 2.91 0 002.711-2.903 2.91 2.91 0 012.712-2.904l5.604-.382a8.923 8.923 0 019.5 8.162l.925 11.093a8.026 8.026 0 01-7.439 8.672l-6.096.426a2.327 2.327 0 01-2.488-2.321 2.326 2.326 0 00-2.543-2.316l-31.02 2.899a8.2 8.2 0 00-7.416 8.749 8.2 8.2 0 008.89 7.585l200.301-17.433c5.528-.481 9.608-5.371 9.09-10.896l-2.793-29.791c-.513-5.473-5.349-9.506-10.825-9.029zM298.234 131.254l4.104 42.308a10 10 0 0010.691 9.007l58.133-4.296c5.875-.434 10.103-5.827 9.123-11.636l-8.646-51.261a9.555 9.555 0 00-1.878-4.274l-2.503-3.218a3.51 3.51 0 00-3.736-1.22 3.51 3.51 0 01-4.268-2.187l-.923-2.563c-.883-2.454-3.16-4.136-5.768-4.132-7.705.01-21.125.65-35.301 3.182-17.397 3.107-19.934 21.488-19.028 30.29z" fill="#D6F0BF"/><path fill-rule="evenodd" clip-rule="evenodd" d="M645.118 624l-2.707 4.66h5.437l-2.73-4.66z" fill="#292B32"/><path d="M536 628.457h218v26H536v-26z" fill="#292B32"/><path d="M552.079 635.856c-.79 0-1.478.144-2.064.432a4.249 4.249 0 00-1.44 1.104 4.566 4.566 0 00-.864 1.52 5.454 5.454 0 00-.272 1.68c0 .629.122 1.248.368 1.856.245.597.581 1.13 1.008 1.6a5.46 5.46 0 001.52 1.12c.576.277 1.2.416 1.872.416.192 0 .416-.022.672-.064.266-.043.528-.123.784-.24.256-.128.49-.304.704-.528.224-.224.394-.518.512-.88h.16v1.776c-.16 0-.331.021-.512.064l-.576.144c-.278.074-.587.144-.928.208a5.558 5.558 0 01-1.056.096c-.928 0-1.744-.16-2.448-.48-.704-.32-1.291-.736-1.76-1.248a5.149 5.149 0 01-1.056-1.728 5.759 5.759 0 01-.352-1.968c0-.662.117-1.318.352-1.968a5 5 0 011.072-1.744c.48-.523 1.082-.944 1.808-1.264.725-.32 1.578-.48 2.56-.48.352 0 .666.032.944.096.288.064.544.128.768.192.16.053.304.096.432.128.138.021.272.032.4.032v1.776h-.16a1.849 1.849 0 00-.352-.816 1.743 1.743 0 00-.608-.512 2.358 2.358 0 00-.736-.24 3.638 3.638 0 00-.752-.08zm9.184 8.896c.064.117.15.24.256.368.107.128.224.245.352.352.139.106.278.197.416.272a.955.955 0 00.4.096v.16h-.608c-.49 0-.869-.102-1.136-.304a2.248 2.248 0 01-.624-.72l-.752-1.424c-.117-.224-.314-.416-.592-.576a1.647 1.647 0 00-.88-.256v2.272c0 .085.006.176.016.272.022.096.054.186.096.272.043.085.096.16.16.224.064.053.139.08.224.08v.16h-2.064v-.16a.32.32 0 00.208-.08.702.702 0 00.176-.224c.043-.086.075-.176.096-.272.022-.096.032-.187.032-.272v-4.704c0-.075-.01-.16-.032-.256a1.108 1.108 0 00-.096-.288.481.481 0 00-.144-.208.326.326 0 00-.24-.096v-.16h2.048v.16a.292.292 0 00-.208.096.792.792 0 00-.144.208 1.188 1.188 0 00-.096.288 1.215 1.215 0 00-.032.256v1.648a59.95 59.95 0 011.36-1.168c.448-.384.902-.779 1.36-1.184 0-.011.006-.022.016-.032.011-.011.016-.022.016-.032 0-.054-.026-.08-.08-.08v-.16h1.392v.16a.507.507 0 00-.192.048 2.227 2.227 0 00-.224.112c-.085.042-.17.096-.256.16-.48.405-.96.821-1.44 1.248-.48.416-.96.826-1.44 1.232.459 0 .832.085 1.12.256.299.17.55.442.752.816l.784 1.44zm7.795-3.872c0 .181-.037.352-.112.512a2.034 2.034 0 01-.672.8c-.149.096-.293.17-.432.224.181.032.368.09.56.176.203.085.384.197.544.336.171.138.309.314.416.528.107.202.16.448.16.736 0 .149-.037.33-.112.544-.064.202-.187.4-.368.592-.171.181-.411.341-.72.48-.299.128-.688.192-1.168.192h-3.52v-.16c.085 0 .16-.032.224-.096a.868.868 0 00.16-.224.87.87 0 00.112-.272c.021-.107.032-.203.032-.288v-4.672a1.22 1.22 0 00-.144-.544c-.085-.203-.213-.304-.384-.304v-.16h3.264c.384 0 .709.053.976.16.277.096.501.224.672.384.181.149.309.32.384.512.085.181.128.362.128.544zm-3.856 1.328h1.232c.309 0 .565-.032.768-.096.213-.075.384-.171.512-.288a.996.996 0 00.272-.4c.064-.15.096-.304.096-.464a.838.838 0 00-.112-.4 1.09 1.09 0 00-.336-.368 1.66 1.66 0 00-.512-.288 1.974 1.974 0 00-.688-.112h-1.232v2.416zm1.568 3.28c.128 0 .288-.011.48-.032.203-.032.395-.091.576-.176.192-.096.352-.23.48-.4.139-.182.208-.416.208-.704 0-.31-.091-.56-.272-.752a1.744 1.744 0 00-.64-.432 2.518 2.518 0 00-.736-.208 5.126 5.126 0 00-.592-.048h-1.072v2.752h1.568zm5.025-2.72c.043.373.134.73.272 1.072.139.33.32.624.544.88.235.256.518.464.848.624.331.149.715.224 1.152.224.235 0 .48-.032.736-.096.267-.075.512-.176.736-.304.224-.128.422-.283.592-.464.182-.192.304-.406.368-.64h.144v1.2a.513.513 0 00-.224.064c-.074.042-.165.096-.272.16a6.696 6.696 0 01-.864.416c-.362.138-.842.208-1.44.208-.48 0-.938-.07-1.376-.208a3.245 3.245 0 01-1.136-.64 3.184 3.184 0 01-.8-1.104c-.192-.448-.288-.982-.288-1.6 0-.395.064-.795.192-1.2.139-.406.342-.768.608-1.088.278-.331.63-.598 1.056-.8.427-.203.939-.304 1.536-.304.534 0 .998.09 1.392.272.406.181.736.432.992.752.267.32.464.698.592 1.136.128.437.192.917.192 1.44h-5.552zm2.32-3.072c-.373 0-.698.074-.976.224a2.387 2.387 0 00-.688.576 2.665 2.665 0 00-.448.8 3.913 3.913 0 00-.208.896h4.56a2.967 2.967 0 00-.176-.912 2.57 2.57 0 00-.416-.8 1.948 1.948 0 00-.688-.56 1.984 1.984 0 00-.96-.224zm7.13-.528c.576 0 1.072.101 1.488.304.427.192.779.448 1.056.768.288.32.502.688.64 1.104a4.01 4.01 0 010 2.544c-.128.416-.33.789-.608 1.12-.266.33-.602.597-1.008.8-.405.202-.885.304-1.44.304-.33 0-.672-.086-1.024-.256a4.188 4.188 0 01-.928-.672v3.296c0 .085.011.176.032.272.022.106.054.202.096.288.054.085.107.16.16.224a.308.308 0 00.224.096v.16h-2.08v-.16a.29.29 0 00.208-.096.844.844 0 00.16-.224.844.844 0 00.112-.288c.022-.096.032-.187.032-.272v-8.256c0-.096-.005-.187-.016-.272a.534.534 0 00-.048-.24.36.36 0 00-.16-.176.5.5 0 00-.288-.096v-.16h1.568v.704c.214-.256.47-.454.768-.592.31-.15.662-.224 1.056-.224zm.144 6.4a2.04 2.04 0 00.976-.256c.278-.16.507-.368.688-.624.182-.256.315-.539.4-.848.086-.32.128-.651.128-.992 0-.384-.053-.763-.16-1.136a3.238 3.238 0 00-.464-.992 2.4 2.4 0 00-.752-.72 1.745 1.745 0 00-.992-.288c-.224 0-.448.042-.672.128a1.83 1.83 0 00-.576.368c-.16.16-.293.352-.4.576a1.734 1.734 0 00-.144.72v2.096c0 .288.059.554.176.8.118.234.267.442.448.624.192.17.406.304.64.4.235.096.47.144.704.144zm14.471-9.712c-.79 0-1.478.144-2.064.432a4.249 4.249 0 00-1.44 1.104 4.566 4.566 0 00-.864 1.52 5.454 5.454 0 00-.272 1.68c0 .629.122 1.248.368 1.856.245.597.581 1.13 1.008 1.6a5.46 5.46 0 001.52 1.12c.576.277 1.2.416 1.872.416.192 0 .416-.022.672-.064.266-.043.528-.123.784-.24.256-.128.49-.304.704-.528.224-.224.394-.518.512-.88h.16v1.776c-.16 0-.331.021-.512.064l-.576.144c-.278.074-.587.144-.928.208a5.558 5.558 0 01-1.056.096c-.928 0-1.744-.16-2.448-.48-.704-.32-1.291-.736-1.76-1.248a5.149 5.149 0 01-1.056-1.728 5.759 5.759 0 01-.352-1.968c0-.662.117-1.318.352-1.968a5 5 0 011.072-1.744c.48-.523 1.082-.944 1.808-1.264.725-.32 1.578-.48 2.56-.48.352 0 .666.032.944.096.288.064.544.128.768.192.16.053.304.096.432.128.138.021.272.032.4.032v1.776h-.16a1.849 1.849 0 00-.352-.816 1.743 1.743 0 00-.608-.512 2.358 2.358 0 00-.736-.24 3.638 3.638 0 00-.752-.08zm10.753 9.104c0 .085.01.181.032.288.032.096.069.186.112.272.042.085.096.16.16.224.074.064.144.096.208.096v.16h-2.048v-.16a.322.322 0 00.208-.08.868.868 0 00.16-.224c.042-.096.074-.192.096-.288.021-.107.032-.203.032-.288v-3.84l-3.808 3.728v.112c0 .085.01.181.032.288a1.156 1.156 0 00.24.496.29.29 0 00.208.096v.16h-2.032v-.16a.322.322 0 00.208-.08.868.868 0 00.16-.224c.042-.096.074-.192.096-.288.021-.107.032-.203.032-.288v-4.688a1.236 1.236 0 00-.128-.528.63.63 0 00-.16-.208.292.292 0 00-.208-.096v-.16h2.032v.16a.306.306 0 00-.224.096.747.747 0 00-.144.208 1.964 1.964 0 00-.08.272 1.152 1.152 0 00-.032.256v3.824l3.808-3.728v-.096a1.236 1.236 0 00-.128-.528.63.63 0 00-.16-.208.292.292 0 00-.208-.096v-.16h2.048v.16a.36.36 0 00-.24.096.617.617 0 00-.16.208 1.964 1.964 0 00-.08.272 1.152 1.152 0 00-.032.256v4.688zm5.508-5.792c.534 0 1.014.09 1.44.272.438.17.806.41 1.104.72.31.298.544.656.704 1.072.16.416.24.869.24 1.36 0 .522-.09 1.002-.272 1.44a3.334 3.334 0 01-.752 1.104c-.32.309-.698.549-1.136.72-.437.17-.912.256-1.424.256a3.364 3.364 0 01-1.456-.304 3.338 3.338 0 01-1.088-.864 3.906 3.906 0 01-.688-1.28 5.29 5.29 0 01-.24-1.616c0-.331.016-.635.048-.912.043-.278.102-.544.176-.8.086-.267.187-.523.304-.768.118-.246.256-.502.416-.768a5.104 5.104 0 011.68-1.664c.683-.406 1.376-.608 2.08-.608h2.032l-.624 1.024h-1.664c-.341 0-.682.064-1.024.192a3.28 3.28 0 00-.976.544 3.885 3.885 0 00-.8.864c-.234.341-.421.73-.56 1.168.288-.352.619-.63.992-.832.384-.214.88-.32 1.488-.32zm.096 6.4a2.463 2.463 0 001.04-.272 2.57 2.57 0 00.752-.64c.203-.267.352-.56.448-.88a3.384 3.384 0 00-.032-2.144 2.983 2.983 0 00-.544-.976 2.72 2.72 0 00-.848-.672 2.237 2.237 0 00-1.072-.256c-.384 0-.725.085-1.024.256-.298.16-.549.373-.752.64-.202.266-.357.57-.464.912a3.761 3.761 0 00-.144 1.024c0 .341.059.693.176 1.056.128.352.304.672.528.96.235.288.512.528.832.72.331.181.699.272 1.104.272zm11.239-.608c0 .085.011.181.032.288.032.096.07.186.112.272.043.085.096.16.16.224.075.064.144.096.208.096v.16h-2.048v-.16a.32.32 0 00.208-.08.844.844 0 00.16-.224 1.438 1.438 0 00.128-.576v-3.84l-3.808 3.728v.112a1.254 1.254 0 00.128.56c.043.085.091.16.144.224a.292.292 0 00.208.096v.16h-2.032v-.16a.32.32 0 00.208-.08.844.844 0 00.16-.224 1.438 1.438 0 00.128-.576v-4.688c0-.075-.01-.16-.032-.256a1.14 1.14 0 00-.096-.272.617.617 0 00-.16-.208.29.29 0 00-.208-.096v-.16h2.032v.16a.308.308 0 00-.224.096.792.792 0 00-.144.208 2.112 2.112 0 00-.08.272 1.215 1.215 0 00-.032.256v3.824l3.808-3.728v-.096c0-.075-.01-.16-.032-.256a1.14 1.14 0 00-.096-.272.617.617 0 00-.16-.208.29.29 0 00-.208-.096v-.16h2.048v.16a.364.364 0 00-.24.096.63.63 0 00-.16.208 2.112 2.112 0 00-.08.272 1.215 1.215 0 00-.032.256v4.688zm5.461-5.792c.576 0 1.072.101 1.488.304.427.192.779.448 1.056.768.288.32.501.688.64 1.104a4.01 4.01 0 010 2.544 3.189 3.189 0 01-.608 1.12c-.267.33-.603.597-1.008.8-.405.202-.885.304-1.44.304a2.35 2.35 0 01-1.024-.256 4.165 4.165 0 01-.928-.672v3.296c0 .085.011.176.032.272.021.106.053.202.096.288.053.085.107.16.16.224a.308.308 0 00.224.096v.16h-2.08v-.16a.29.29 0 00.208-.096.868.868 0 00.16-.224.865.865 0 00.112-.288 1.28 1.28 0 00.032-.272v-8.256c0-.096-.005-.187-.016-.272a.534.534 0 00-.048-.24.36.36 0 00-.16-.176.5.5 0 00-.288-.096v-.16h1.568v.704c.213-.256.469-.454.768-.592.309-.15.661-.224 1.056-.224zm.144 6.4c.373-.011.699-.096.976-.256s.507-.368.688-.624c.181-.256.315-.539.4-.848a3.85 3.85 0 00.128-.992c0-.384-.053-.763-.16-1.136a3.261 3.261 0 00-.464-.992 2.411 2.411 0 00-.752-.72 1.748 1.748 0 00-.992-.288c-.224 0-.448.042-.672.128a1.83 1.83 0 00-.576.368c-.16.16-.293.352-.4.576a1.734 1.734 0 00-.144.72v2.096c0 .288.059.554.176.8.117.234.267.442.448.624.192.17.405.304.64.4.235.096.469.144.704.144zm9.786-.608c0 .085.011.181.032.288.022.096.054.192.096.288.054.085.107.16.16.224.064.053.139.08.224.08v.16h-2.08v-.16a.29.29 0 00.208-.096.844.844 0 00.16-.224.847.847 0 00.112-.272c.022-.107.032-.203.032-.288v-2.24c-.117.021-.25.085-.4.192a2.856 2.856 0 00-.464.384c-.16.149-.314.314-.464.496a9.044 9.044 0 00-.416.544c-.106.149-.197.272-.272.368a3.49 3.49 0 00-.192.272c-.106.138-.213.272-.32.4a2.12 2.12 0 01-.368.32c-.128.096-.282.17-.464.224-.181.053-.394.08-.64.08h-.592v-.16a.763.763 0 00.384-.112c.139-.075.272-.166.4-.272.128-.118.246-.24.352-.368.118-.139.219-.267.304-.384l.496-.688c.182-.246.368-.486.56-.72.192-.246.411-.438.656-.576a3.696 3.696 0 01-1.024-.16 2.385 2.385 0 01-.752-.384 1.73 1.73 0 01-.464-.544 1.624 1.624 0 01-.144-.672c0-.224.048-.438.144-.64.107-.203.272-.379.496-.528a2.48 2.48 0 01.848-.368 4.854 4.854 0 011.264-.144h2.64v.16a.308.308 0 00-.224.096 1.184 1.184 0 00-.16.208 1.236 1.236 0 00-.128.528v4.688zm-3.84-4.096c0 .16.048.32.144.48.107.16.246.304.416.432.182.128.384.234.608.32.224.074.464.112.72.112h.896v-2.416h-1.04c-.64 0-1.093.101-1.36.304a.938.938 0 00-.384.768zm10.741 3.888a2.722 2.722 0 00.608.72c.138.106.277.197.416.272a.951.951 0 00.4.096v.16h-.608c-.491 0-.87-.102-1.136-.304a2.224 2.224 0 01-.624-.72l-.752-1.424c-.118-.224-.315-.416-.592-.576a1.652 1.652 0 00-.88-.256v2.272c0 .085.005.176.016.272.021.096.053.186.096.272.042.085.096.16.16.224a.34.34 0 00.224.08v.16h-2.064v-.16a.322.322 0 00.208-.08.731.731 0 00.176-.224 1.254 1.254 0 00.128-.544v-4.704c0-.075-.011-.16-.032-.256a1.188 1.188 0 00-.096-.288.481.481 0 00-.144-.208.326.326 0 00-.24-.096v-.16h2.048v.16a.29.29 0 00-.208.096.747.747 0 00-.144.208 1.108 1.108 0 00-.096.288 1.152 1.152 0 00-.032.256v1.648c.458-.406.912-.795 1.36-1.168.448-.384.901-.779 1.36-1.184 0-.011.005-.022.016-.032.01-.011.016-.022.016-.032 0-.054-.027-.08-.08-.08v-.16h1.392v.16a.498.498 0 00-.192.048c-.075.032-.15.069-.224.112a1.586 1.586 0 00-.256.16c-.48.405-.96.821-1.44 1.248-.48.416-.96.826-1.44 1.232.458 0 .832.085 1.12.256.298.17.549.442.752.816l.784 1.44zm5.074 1.36a3.864 3.864 0 01-1.44-.256 3.636 3.636 0 01-1.104-.72 3.44 3.44 0 01-.704-1.088 3.76 3.76 0 01-.24-1.36c0-.523.091-.998.272-1.424.182-.438.432-.811.752-1.12.32-.31.699-.55 1.136-.72a3.879 3.879 0 011.424-.256c.512 0 .982.085 1.408.256a3.088 3.088 0 011.824 1.76c.171.405.256.853.256 1.344 0 .458-.08.906-.24 1.344a3.18 3.18 0 01-.688 1.136c-.298.33-.672.597-1.12.8-.437.202-.949.304-1.536.304zm-.096-6.416a2.283 2.283 0 00-1.024.288c-.288.16-.533.373-.736.64a2.98 2.98 0 00-.448.88 3.59 3.59 0 00-.144 1.008c0 .394.059.778.176 1.152.128.362.304.688.528.976.235.288.512.517.832.688.32.17.678.256 1.072.256.395 0 .742-.086 1.04-.256.31-.171.566-.39.768-.656.203-.278.352-.587.448-.928.107-.342.16-.683.16-1.024 0-.352-.053-.704-.16-1.056a2.897 2.897 0 00-.496-.976 2.511 2.511 0 00-.848-.72c-.33-.182-.72-.272-1.168-.272zm10.535 1.184c0 .181-.037.352-.112.512-.074.16-.17.309-.288.448a2.008 2.008 0 01-.384.352c-.149.096-.293.17-.432.224.182.032.368.09.56.176.203.085.384.197.544.336.171.138.31.314.416.528.107.202.16.448.16.736 0 .149-.037.33-.112.544a1.55 1.55 0 01-.368.592c-.17.181-.41.341-.72.48-.298.128-.688.192-1.168.192h-3.52v-.16c.086 0 .16-.032.224-.096a.844.844 0 00.16-.224.847.847 0 00.112-.272c.022-.107.032-.203.032-.288v-4.672a1.22 1.22 0 00-.144-.544c-.085-.203-.213-.304-.384-.304v-.16h3.264c.384 0 .71.053.976.16.278.096.502.224.672.384.182.149.31.32.384.512.086.181.128.362.128.544zm-3.856 1.328h1.232c.31 0 .566-.032.768-.096.214-.075.384-.171.512-.288a.996.996 0 00.272-.4c.064-.15.096-.304.096-.464a.838.838 0 00-.112-.4 1.07 1.07 0 00-.336-.368 1.648 1.648 0 00-.512-.288 1.97 1.97 0 00-.688-.112h-1.232v2.416zm1.568 3.28c.128 0 .288-.011.48-.032.203-.032.395-.091.576-.176.192-.096.352-.23.48-.4.139-.182.208-.416.208-.704 0-.31-.09-.56-.272-.752a1.736 1.736 0 00-.64-.432 2.51 2.51 0 00-.736-.208 5.126 5.126 0 00-.592-.048h-1.072v2.752h1.568zm3.889-2.784v-.8h3.632v.8h-3.632zm7.246 3.136h.08v.16h-2.304v-.16h.08c.085 0 .16-.027.224-.08a.868.868 0 00.16-.224.87.87 0 00.112-.272 1.28 1.28 0 00.032-.272v-8.56c0-.075-.011-.16-.032-.256a.86.86 0 00-.112-.272.63.63 0 00-.16-.208.308.308 0 00-.224-.096h-.08v-.16h6.16v1.696h-.16c0-.384-.085-.667-.256-.848-.16-.192-.416-.288-.768-.288h-3.28v8.992a1.28 1.28 0 00.128.544c.053.085.112.16.176.224.064.053.139.08.224.08zm8.934-4.96c0 .181-.037.352-.112.512-.074.16-.17.309-.288.448a2.008 2.008 0 01-.384.352c-.149.096-.293.17-.432.224.182.032.368.09.56.176.203.085.384.197.544.336.171.138.31.314.416.528.107.202.16.448.16.736 0 .149-.037.33-.112.544a1.55 1.55 0 01-.368.592c-.17.181-.41.341-.72.48-.298.128-.688.192-1.168.192h-3.52v-.16c.086 0 .16-.032.224-.096a.844.844 0 00.16-.224.847.847 0 00.112-.272c.022-.107.032-.203.032-.288v-4.672a1.22 1.22 0 00-.144-.544c-.085-.203-.213-.304-.384-.304v-.16h3.264c.384 0 .71.053.976.16.278.096.502.224.672.384.182.149.31.32.384.512.086.181.128.362.128.544zm-3.856 1.328h1.232c.31 0 .566-.032.768-.096.214-.075.384-.171.512-.288a.996.996 0 00.272-.4c.064-.15.096-.304.096-.464a.838.838 0 00-.112-.4 1.07 1.07 0 00-.336-.368 1.648 1.648 0 00-.512-.288 1.97 1.97 0 00-.688-.112h-1.232v2.416zm1.568 3.28c.128 0 .288-.011.48-.032.203-.032.395-.091.576-.176.192-.096.352-.23.48-.4.139-.182.208-.416.208-.704 0-.31-.09-.56-.272-.752a1.736 1.736 0 00-.64-.432 2.51 2.51 0 00-.736-.208 5.126 5.126 0 00-.592-.048h-1.072v2.752h1.568zm8.37.512v-.816l-.08.08a2.928 2.928 0 01-.928.624c-.342.149-.758.224-1.248.224-.374 0-.694-.043-.96-.128a1.836 1.836 0 01-.656-.352 1.582 1.582 0 01-.384-.544 1.83 1.83 0 01-.112-.64c0-.363.096-.683.288-.96.202-.278.49-.523.864-.736a7.027 7.027 0 011.36-.576 23.542 23.542 0 011.856-.528c-.022-.416-.107-.752-.256-1.008a1.805 1.805 0 00-.528-.592 1.552 1.552 0 00-.64-.288 2.51 2.51 0 00-.576-.08c-.278 0-.523.042-.736.128-.214.074-.4.181-.56.32-.16.128-.294.277-.4.448-.096.17-.171.341-.224.512h-.144v-1.248a.773.773 0 00.336-.096c.128-.075.277-.155.448-.24.181-.086.394-.16.64-.224.256-.075.56-.112.912-.112.586 0 1.061.074 1.424.224.362.149.64.346.832.592.202.245.336.528.4.848.064.309.096.629.096.96v3.168c0 .213.053.416.16.608.106.181.25.272.432.272v.16h-1.616zm0-1.52v-2.288l-.16.032a29.05 29.05 0 00-.944.256c-.363.106-.71.245-1.04.416-.331.17-.614.373-.848.608a1.116 1.116 0 00-.352.816c0 .341.138.624.416.848.277.224.64.336 1.088.336.352 0 .661-.075.928-.224.266-.16.512-.363.736-.608l.176-.192zm6.496-5.312c.576 0 1.072.101 1.488.304.427.192.779.448 1.056.768.288.32.502.688.64 1.104a4.01 4.01 0 010 2.544c-.128.416-.33.789-.608 1.12-.266.33-.602.597-1.008.8-.405.202-.885.304-1.44.304-.33 0-.672-.086-1.024-.256a4.188 4.188 0 01-.928-.672v3.296c0 .085.011.176.032.272.022.106.054.202.096.288.054.085.107.16.16.224a.308.308 0 00.224.096v.16h-2.08v-.16a.29.29 0 00.208-.096.844.844 0 00.16-.224.844.844 0 00.112-.288c.022-.096.032-.187.032-.272v-8.256c0-.096-.005-.187-.016-.272a.534.534 0 00-.048-.24.36.36 0 00-.16-.176.5.5 0 00-.288-.096v-.16h1.568v.704c.214-.256.47-.454.768-.592.31-.15.662-.224 1.056-.224zm.144 6.4a2.04 2.04 0 00.976-.256c.278-.16.507-.368.688-.624.182-.256.315-.539.4-.848.086-.32.128-.651.128-.992 0-.384-.053-.763-.16-1.136a3.238 3.238 0 00-.464-.992 2.4 2.4 0 00-.752-.72 1.745 1.745 0 00-.992-.288c-.224 0-.448.042-.672.128a1.83 1.83 0 00-.576.368c-.16.16-.293.352-.4.576a1.734 1.734 0 00-.144.72v2.096c0 .288.059.554.176.8.118.234.267.442.448.624.192.17.406.304.64.4.235.096.47.144.704.144zm11.803-.096v1.968h-.16a3.556 3.556 0 00-.112-.448 2.085 2.085 0 00-.224-.464 1.502 1.502 0 00-.352-.384.727.727 0 00-.448-.144h-5.088a.794.794 0 00-.464.144 1.747 1.747 0 00-.368.384 2.723 2.723 0 00-.24.464c-.054.17-.086.32-.096.448h-.16v-1.968h.608a.247.247 0 00.176-.08c.064-.054.122-.118.176-.192.064-.075.122-.155.176-.24.053-.096.101-.182.144-.256.16-.363.352-.795.576-1.296.234-.502.469-1.019.704-1.552.245-.534.48-1.051.704-1.552l.576-1.312 2.704 5.904c.085.181.165.325.24.432a.364.364 0 00.304.144h.624zm-6.224 0h4.16l-2.08-4.56-2.08 4.56zm8.046-2.704c.043.373.133.73.272 1.072.139.33.32.624.544.88.235.256.517.464.848.624.331.149.715.224 1.152.224.235 0 .48-.032.736-.096.267-.075.512-.176.736-.304.224-.128.421-.283.592-.464.181-.192.304-.406.368-.64h.144v1.2a.51.51 0 00-.224.064c-.075.042-.165.096-.272.16a6.696 6.696 0 01-.864.416c-.363.138-.843.208-1.44.208-.48 0-.939-.07-1.376-.208a3.236 3.236 0 01-1.136-.64 3.171 3.171 0 01-.8-1.104c-.192-.448-.288-.982-.288-1.6 0-.395.064-.795.192-1.2.139-.406.341-.768.608-1.088a3.06 3.06 0 011.056-.8c.427-.203.939-.304 1.536-.304.533 0 .997.09 1.392.272.405.181.736.432.992.752.267.32.464.698.592 1.136.128.437.192.917.192 1.44h-5.552zm2.32-3.072c-.373 0-.699.074-.976.224a2.374 2.374 0 00-.688.576 2.665 2.665 0 00-.448.8 3.862 3.862 0 00-.208.896h4.56a2.997 2.997 0 00-.176-.912 2.59 2.59 0 00-.416-.8 1.956 1.956 0 00-.688-.56 1.984 1.984 0 00-.96-.224zm10.982 5.264c0 .085.01.181.032.288.032.096.069.186.112.272.042.085.096.16.16.224.074.064.144.096.208.096v.16h-2.048v-.16a.322.322 0 00.208-.08.868.868 0 00.16-.224c.042-.096.074-.192.096-.288.021-.107.032-.203.032-.288v-3.84l-3.808 3.728v.112c0 .085.01.181.032.288a1.156 1.156 0 00.24.496.29.29 0 00.208.096v.16h-2.032v-.16a.322.322 0 00.208-.08.868.868 0 00.16-.224c.042-.096.074-.192.096-.288.021-.107.032-.203.032-.288v-4.688a1.236 1.236 0 00-.128-.528.63.63 0 00-.16-.208.292.292 0 00-.208-.096v-.16h2.032v.16a.306.306 0 00-.224.096.747.747 0 00-.144.208 1.964 1.964 0 00-.08.272 1.152 1.152 0 00-.032.256v3.824l3.808-3.728v-.096a1.236 1.236 0 00-.128-.528.63.63 0 00-.16-.208.292.292 0 00-.208-.096v-.16h2.048v.16a.36.36 0 00-.24.096.617.617 0 00-.16.208 1.964 1.964 0 00-.08.272 1.152 1.152 0 00-.032.256v4.688zm-1.232-7.84c0 .17-.043.357-.128.56a1.98 1.98 0 01-.368.544c-.16.16-.352.293-.576.4a1.6 1.6 0 01-.72.16c-.246 0-.48-.048-.704-.144-.214-.107-.4-.24-.56-.4a2.026 2.026 0 01-.384-.528 1.38 1.38 0 01-.144-.592h.096c.01.064.042.154.096.272.064.106.16.218.288.336.128.117.293.218.496.304.213.085.48.128.8.128.33 0 .602-.043.816-.128.213-.086.384-.187.512-.304.128-.118.218-.23.272-.336.053-.118.09-.208.112-.272h.096zm10.548 8.352v1.936h-.16a1.06 1.06 0 00-.112-.448 1.858 1.858 0 00-.272-.464 1.645 1.645 0 00-.416-.352.87.87 0 00-.48-.144h-5.808v-.16a.262.262 0 00.192-.08.844.844 0 00.16-.224 1.475 1.475 0 00.128-.528v-4.688c0-.075-.01-.166-.032-.272a1.108 1.108 0 00-.064-.288.616.616 0 00-.144-.224.326.326 0 00-.24-.096v-.16h2.032v.16a.326.326 0 00-.24.096.747.747 0 00-.144.224 1.188 1.188 0 00-.096.288c-.01.096-.016.186-.016.272v5.152h3.488v-5.152c0-.075-.01-.166-.032-.272a.829.829 0 00-.24-.512.275.275 0 00-.224-.096v-.16h2.032v.16a.326.326 0 00-.24.096.747.747 0 00-.144.224 1.917 1.917 0 00-.08.288c-.01.096-.016.186-.016.272v4.272c0 .213.043.416.128.608.096.181.272.272.528.272h.512zm1.82-2.704c.042.373.133.73.272 1.072.138.33.32.624.544.88.234.256.517.464.848.624.33.149.714.224 1.152.224.234 0 .48-.032.736-.096.266-.075.512-.176.736-.304.224-.128.421-.283.592-.464.181-.192.304-.406.368-.64h.144v1.2a.51.51 0 00-.224.064c-.075.042-.166.096-.272.16a6.829 6.829 0 01-.864.416c-.363.138-.843.208-1.44.208-.48 0-.939-.07-1.376-.208a3.227 3.227 0 01-1.136-.64 3.158 3.158 0 01-.8-1.104c-.192-.448-.288-.982-.288-1.6 0-.395.064-.795.192-1.2.138-.406.341-.768.608-1.088a3.06 3.06 0 011.056-.8c.426-.203.938-.304 1.536-.304.533 0 .997.09 1.392.272.405.181.736.432.992.752.266.32.464.698.592 1.136.128.437.192.917.192 1.44h-5.552zm2.32-3.072c-.374 0-.699.074-.976.224a2.374 2.374 0 00-.688.576 2.644 2.644 0 00-.448.8 3.862 3.862 0 00-.208.896h4.56a3.027 3.027 0 00-.176-.912 2.59 2.59 0 00-.416-.8 1.965 1.965 0 00-.688-.56 1.99 1.99 0 00-.96-.224zm9.989 1.184c0 .181-.037.352-.112.512-.074.16-.17.309-.288.448a2.008 2.008 0 01-.384.352c-.149.096-.293.17-.432.224.182.032.368.09.56.176.203.085.384.197.544.336.171.138.31.314.416.528.107.202.16.448.16.736 0 .149-.037.33-.112.544a1.55 1.55 0 01-.368.592c-.17.181-.41.341-.72.48-.298.128-.688.192-1.168.192h-3.52v-.16c.086 0 .16-.032.224-.096a.844.844 0 00.16-.224.847.847 0 00.112-.272c.022-.107.032-.203.032-.288v-4.672a1.22 1.22 0 00-.144-.544c-.085-.203-.213-.304-.384-.304v-.16h3.264c.384 0 .71.053.976.16.278.096.502.224.672.384.182.149.31.32.384.512.086.181.128.362.128.544zm-3.856 1.328h1.232c.31 0 .566-.032.768-.096.214-.075.384-.171.512-.288a.996.996 0 00.272-.4c.064-.15.096-.304.096-.464a.838.838 0 00-.112-.4 1.07 1.07 0 00-.336-.368 1.648 1.648 0 00-.512-.288 1.97 1.97 0 00-.688-.112h-1.232v2.416zm1.568 3.28c.128 0 .288-.011.48-.032.203-.032.395-.091.576-.176.192-.096.352-.23.48-.4.139-.182.208-.416.208-.704 0-.31-.09-.56-.272-.752a1.736 1.736 0 00-.64-.432 2.51 2.51 0 00-.736-.208 5.126 5.126 0 00-.592-.048h-1.072v2.752h1.568z" fill="#fff"/><path fill-rule="evenodd" clip-rule="evenodd" d="M443.118 364l-2.707 4.66h5.437l-2.73-4.66z" fill="#292B32"/><path fill="#292B32" d="M368 368.457h150v26H368z"/><path d="M405.594 376.313c-.789 0-1.477.144-2.064.432a4.249 4.249 0 00-1.44 1.104 4.566 4.566 0 00-.864 1.52 5.484 5.484 0 00-.272 1.68c0 .629.123 1.248.368 1.856a5.46 5.46 0 001.008 1.6c.438.458.944.832 1.52 1.12.576.277 1.2.416 1.872.416.192 0 .416-.022.672-.064.267-.043.528-.123.784-.24.256-.128.491-.304.704-.528a2.16 2.16 0 00.512-.88h.16v1.776c-.16 0-.33.021-.512.064l-.576.144a12.55 12.55 0 01-.928.208c-.33.064-.682.096-1.056.096-.928 0-1.744-.16-2.448-.48a5.365 5.365 0 01-1.76-1.248 5.181 5.181 0 01-1.056-1.728 5.783 5.783 0 01-.352-1.968c0-.662.118-1.318.352-1.968a5.015 5.015 0 011.072-1.744c.48-.523 1.083-.944 1.808-1.264.726-.32 1.579-.48 2.56-.48.352 0 .667.032.944.096.288.064.544.128.768.192.16.053.304.096.432.128.139.021.272.032.4.032v1.776h-.16a1.837 1.837 0 00-.96-1.328 2.35 2.35 0 00-.736-.24 3.63 3.63 0 00-.752-.08zm9.185 8.896c.064.117.149.24.256.368.107.128.224.245.352.352.139.106.277.197.416.272a.955.955 0 00.4.096v.16h-.608c-.491 0-.869-.102-1.136-.304a2.224 2.224 0 01-.624-.72l-.752-1.424c-.117-.224-.315-.416-.592-.576a1.65 1.65 0 00-.88-.256v2.272c0 .085.005.176.016.272.021.096.053.186.096.272.043.085.096.16.16.224.064.053.139.08.224.08v.16h-2.064v-.16a.32.32 0 00.208-.08.716.716 0 00.176-.224 1.28 1.28 0 00.128-.544v-4.704c0-.075-.011-.16-.032-.256a1.108 1.108 0 00-.096-.288.481.481 0 00-.144-.208.326.326 0 00-.24-.096v-.16h2.048v.16a.29.29 0 00-.208.096.792.792 0 00-.144.208 1.108 1.108 0 00-.096.288 1.215 1.215 0 00-.032.256v1.648a59.95 59.95 0 011.36-1.168c.448-.384.901-.779 1.36-1.184 0-.011.005-.022.016-.032.011-.011.016-.022.016-.032 0-.054-.027-.08-.08-.08v-.16h1.392v.16a.507.507 0 00-.192.048 2.126 2.126 0 00-.224.112 1.63 1.63 0 00-.256.16c-.48.405-.96.821-1.44 1.248-.48.416-.96.826-1.44 1.232.459 0 .832.085 1.12.256.299.17.549.442.752.816l.784 1.44zm7.795-3.872c0 .181-.038.352-.112.512a2.034 2.034 0 01-.672.8c-.15.096-.294.17-.432.224.181.032.368.09.56.176.202.085.384.197.544.336a1.578 1.578 0 01.576 1.264c0 .149-.038.33-.112.544-.064.202-.187.4-.368.592-.171.181-.411.341-.72.48-.299.128-.688.192-1.168.192h-3.52v-.16c.085 0 .16-.032.224-.096a.868.868 0 00.16-.224.894.894 0 00.112-.272c.021-.107.032-.203.032-.288v-4.672a1.22 1.22 0 00-.144-.544c-.086-.203-.214-.304-.384-.304v-.16h3.264c.384 0 .709.053.976.16.277.096.501.224.672.384.181.149.309.32.384.512.085.181.128.362.128.544zm-3.856 1.328h1.232c.309 0 .565-.032.768-.096.213-.075.384-.171.512-.288.128-.118.218-.251.272-.4.064-.15.096-.304.096-.464a.85.85 0 00-.112-.4 1.09 1.09 0 00-.336-.368 1.671 1.671 0 00-.512-.288 1.974 1.974 0 00-.688-.112h-1.232v2.416zm1.568 3.28c.128 0 .288-.011.48-.032a2.15 2.15 0 00.576-.176c.192-.096.352-.23.48-.4.138-.182.208-.416.208-.704 0-.31-.091-.56-.272-.752a1.752 1.752 0 00-.64-.432 2.518 2.518 0 00-.736-.208 5.142 5.142 0 00-.592-.048h-1.072v2.752h1.568zm5.025-2.72c.043.373.133.73.272 1.072.139.33.32.624.544.88.235.256.517.464.848.624.331.149.715.224 1.152.224.235 0 .48-.032.736-.096.267-.075.512-.176.736-.304.224-.128.421-.283.592-.464.181-.192.304-.406.368-.64h.144v1.2a.51.51 0 00-.224.064c-.075.042-.165.096-.272.16a6.696 6.696 0 01-.864.416c-.363.138-.843.208-1.44.208-.48 0-.939-.07-1.376-.208a3.236 3.236 0 01-1.136-.64 3.171 3.171 0 01-.8-1.104c-.192-.448-.288-.982-.288-1.6 0-.395.064-.795.192-1.2.139-.406.341-.768.608-1.088a3.06 3.06 0 011.056-.8c.427-.203.939-.304 1.536-.304.533 0 .997.09 1.392.272.405.181.736.432.992.752.267.32.464.698.592 1.136.128.437.192.917.192 1.44h-5.552zm2.32-3.072c-.373 0-.699.074-.976.224a2.374 2.374 0 00-.688.576 2.665 2.665 0 00-.448.8 3.862 3.862 0 00-.208.896h4.56a2.997 2.997 0 00-.176-.912 2.59 2.59 0 00-.416-.8 1.956 1.956 0 00-.688-.56 1.984 1.984 0 00-.96-.224zm7.13-.528c.576 0 1.072.101 1.488.304.426.192.778.448 1.056.768.288.32.501.688.64 1.104a3.995 3.995 0 010 2.544 3.189 3.189 0 01-.608 1.12c-.267.33-.603.597-1.008.8-.406.202-.886.304-1.44.304a2.35 2.35 0 01-1.024-.256 4.142 4.142 0 01-.928-.672v3.296c0 .085.01.176.032.272.021.106.053.202.096.288.053.085.106.16.16.224a.306.306 0 00.224.096v.16h-2.08v-.16a.292.292 0 00.208-.096.868.868 0 00.16-.224.887.887 0 00.112-.288 1.28 1.28 0 00.032-.272v-8.256c0-.096-.006-.187-.016-.272a.534.534 0 00-.048-.24.364.364 0 00-.16-.176.5.5 0 00-.288-.096v-.16h1.568v.704c.213-.256.469-.454.768-.592.309-.15.661-.224 1.056-.224zm.144 6.4c.373-.011.698-.096.976-.256.277-.16.506-.368.688-.624a2.72 2.72 0 00.4-.848 3.85 3.85 0 00.128-.992 4.14 4.14 0 00-.16-1.136 3.285 3.285 0 00-.464-.992 2.422 2.422 0 00-.752-.72 1.748 1.748 0 00-.992-.288 1.809 1.809 0 00-1.248.496c-.16.16-.294.352-.4.576a1.734 1.734 0 00-.144.72v2.096c0 .288.058.554.176.8.117.234.266.442.448.624.192.17.405.304.64.4.234.096.469.144.704.144zm14.47-9.712c-.789 0-1.477.144-2.064.432a4.249 4.249 0 00-1.44 1.104 4.566 4.566 0 00-.864 1.52 5.484 5.484 0 00-.272 1.68c0 .629.123 1.248.368 1.856a5.46 5.46 0 001.008 1.6c.438.458.944.832 1.52 1.12.576.277 1.2.416 1.872.416.192 0 .416-.022.672-.064.267-.043.528-.123.784-.24.256-.128.491-.304.704-.528a2.16 2.16 0 00.512-.88h.16v1.776c-.16 0-.33.021-.512.064l-.576.144a12.55 12.55 0 01-.928.208c-.33.064-.682.096-1.056.096-.928 0-1.744-.16-2.448-.48a5.365 5.365 0 01-1.76-1.248 5.181 5.181 0 01-1.056-1.728 5.783 5.783 0 01-.352-1.968c0-.662.118-1.318.352-1.968a5.015 5.015 0 011.072-1.744c.48-.523 1.083-.944 1.808-1.264.726-.32 1.579-.48 2.56-.48.352 0 .667.032.944.096.288.064.544.128.768.192.16.053.304.096.432.128.139.021.272.032.4.032v1.776h-.16a1.837 1.837 0 00-.96-1.328 2.35 2.35 0 00-.736-.24 3.63 3.63 0 00-.752-.08zm9.137 9.984c.075 0 .16-.032.256-.096a.309.309 0 00.144-.272.487.487 0 00-.032-.128.76.76 0 00-.08-.24l-2.032-4.8-2.112 5.04c-.181.437-.538.656-1.072.656h-.352v-.16c.15 0 .31-.075.48-.224.182-.16.326-.347.432-.56l2.176-5.088a.982.982 0 00.08-.336c0-.128-.085-.192-.256-.192v-.16h1.296l2.464 5.76c.075.16.182.336.32.528.15.181.288.272.416.272v.16h-2.128v-.16zm7.315.16v-.816l-.08.08a2.928 2.928 0 01-.928.624c-.342.149-.758.224-1.248.224-.374 0-.694-.043-.96-.128a1.836 1.836 0 01-.656-.352 1.582 1.582 0 01-.384-.544 1.83 1.83 0 01-.112-.64c0-.363.096-.683.288-.96.202-.278.49-.523.864-.736a7.027 7.027 0 011.36-.576 23.542 23.542 0 011.856-.528c-.022-.416-.107-.752-.256-1.008a1.805 1.805 0 00-.528-.592 1.552 1.552 0 00-.64-.288 2.51 2.51 0 00-.576-.08c-.278 0-.523.042-.736.128-.214.074-.4.181-.56.32-.16.128-.294.277-.4.448-.096.17-.171.341-.224.512h-.144v-1.248a.773.773 0 00.336-.096c.128-.075.277-.155.448-.24.181-.086.394-.16.64-.224.256-.075.56-.112.912-.112.586 0 1.061.074 1.424.224.362.149.64.346.832.592.202.245.336.528.4.848.064.309.096.629.096.96v3.168c0 .213.053.416.16.608.106.181.25.272.432.272v.16h-1.616zm0-1.52v-2.288l-.16.032a29.05 29.05 0 00-.944.256c-.363.106-.71.245-1.04.416-.331.17-.614.373-.848.608a1.116 1.116 0 00-.352.816c0 .341.138.624.416.848.277.224.64.336 1.088.336.352 0 .661-.075.928-.224.266-.16.512-.363.736-.608l.176-.192zm8.512-3.6c0 .181-.037.352-.112.512-.074.16-.17.309-.288.448a2.008 2.008 0 01-.384.352c-.149.096-.293.17-.432.224.182.032.368.09.56.176.203.085.384.197.544.336.171.138.31.314.416.528.107.202.16.448.16.736 0 .149-.037.33-.112.544a1.55 1.55 0 01-.368.592c-.17.181-.41.341-.72.48-.298.128-.688.192-1.168.192h-3.52v-.16c.086 0 .16-.032.224-.096a.844.844 0 00.16-.224.847.847 0 00.112-.272c.022-.107.032-.203.032-.288v-4.672a1.22 1.22 0 00-.144-.544c-.085-.203-.213-.304-.384-.304v-.16h3.264c.384 0 .71.053.976.16.278.096.502.224.672.384.182.149.31.32.384.512.086.181.128.362.128.544zm-3.856 1.328h1.232c.31 0 .566-.032.768-.096.214-.075.384-.171.512-.288a.996.996 0 00.272-.4c.064-.15.096-.304.096-.464a.838.838 0 00-.112-.4 1.07 1.07 0 00-.336-.368 1.648 1.648 0 00-.512-.288 1.97 1.97 0 00-.688-.112h-1.232v2.416zm1.568 3.28c.128 0 .288-.011.48-.032.203-.032.395-.091.576-.176.192-.096.352-.23.48-.4.139-.182.208-.416.208-.704 0-.31-.09-.56-.272-.752a1.736 1.736 0 00-.64-.432 2.51 2.51 0 00-.736-.208 5.126 5.126 0 00-.592-.048h-1.072v2.752h1.568zm10.77.512v-.16a.322.322 0 00.208-.08.868.868 0 00.16-.224c.053-.096.09-.192.112-.288.021-.107.032-.203.032-.288v-4.688c0-.075-.011-.16-.032-.256a.884.884 0 00-.112-.272.63.63 0 00-.16-.208.292.292 0 00-.208-.096v-.16h2.08v.16c-.16 0-.288.101-.384.304a1.195 1.195 0 00-.144.528v4.688c0 .085.01.181.032.288.021.096.053.186.096.272.053.085.112.16.176.224a.306.306 0 00.224.096v.16h-2.08zm-3.776-3.808c.981 0 1.706.181 2.176.544.48.362.72.81.72 1.344 0 .266-.064.517-.192.752a1.647 1.647 0 01-.544.608c-.246.17-.555.309-.928.416a5.385 5.385 0 01-1.328.144h-2.72v-.16a.322.322 0 00.208-.08.868.868 0 00.16-.224c.053-.096.09-.192.112-.288.021-.107.032-.203.032-.288v-4.688c0-.075-.011-.16-.032-.256a.884.884 0 00-.112-.272.63.63 0 00-.16-.208.292.292 0 00-.208-.096v-.16h2.08v.16c-.16 0-.288.101-.384.304a1.195 1.195 0 00-.144.528v1.92h1.264zm-.128 3.28c.704 0 1.21-.112 1.52-.336.32-.235.48-.523.48-.864 0-.192-.043-.379-.128-.56a1.275 1.275 0 00-.4-.496 1.831 1.831 0 00-.64-.352 2.499 2.499 0 00-.88-.144h-1.088v2.752h1.136z" fill="#fff"/><path fill-rule="evenodd" clip-rule="evenodd" d="M469.873 332.183c.57 1.06 1.652 1.776 2.893 1.776 1.25 0 2.339-.727 2.906-1.803a3.61 3.61 0 00.414-1.692c0-1.697-1.149-3.112-2.674-3.429a3.203 3.203 0 00-1.219-.014" fill="#2AB776"/><path d="M472.592 335.901v-3.107" stroke="#2AB776" stroke-linejoin="round"/><path fill-rule="evenodd" clip-rule="evenodd" d="M472.203 327.746c0 3.003-1.912 5.437-4.272 5.437-2.359 0-4.271-2.434-4.271-5.437s1.912-5.437 4.271-5.437c2.36 0 4.272 2.434 4.272 5.437z" fill="#2AB776"/><path clip-rule="evenodd" d="M472.203 327.746c0 3.003-1.912 5.437-4.272 5.437-2.359 0-4.271-2.434-4.271-5.437s1.912-5.437 4.271-5.437c2.36 0 4.272 2.434 4.272 5.437z" stroke="#D6F0BF"/><path d="M467.932 335.901v-7.767" stroke="#2AB776" stroke-linejoin="round"/><path fill-rule="evenodd" clip-rule="evenodd" d="M337.066 145.01c.57 1.061 1.652 1.777 2.892 1.777 1.251 0 2.339-.727 2.906-1.803a3.617 3.617 0 00.415-1.692c0-1.697-1.149-3.112-2.674-3.429a3.142 3.142 0 00-1.219-.014" fill="#2AB776"/><path d="M339.784 148.728v-3.106" stroke="#2AB776" stroke-linejoin="round"/><path fill-rule="evenodd" clip-rule="evenodd" d="M339.396 140.573c0 3.003-1.912 5.437-4.271 5.437-2.36 0-4.272-2.434-4.272-5.437 0-3.002 1.912-5.436 4.272-5.436 2.359 0 4.271 2.434 4.271 5.436z" fill="#2AB776"/><path clip-rule="evenodd" d="M339.396 140.573c0 3.003-1.912 5.437-4.271 5.437-2.36 0-4.272-2.434-4.272-5.437 0-3.002 1.912-5.436 4.272-5.436 2.359 0 4.271 2.434 4.271 5.436z" stroke="#D6F0BF"/><path d="M335.125 148.728v-7.766" stroke="#2AB776" stroke-linejoin="round"/><path fill-rule="evenodd" clip-rule="evenodd" d="M658.599 582.264c.57 1.06 1.652 1.776 2.892 1.776 1.251 0 2.34-.727 2.907-1.802a3.629 3.629 0 00.414-1.693c0-1.697-1.149-3.112-2.674-3.428a3.135 3.135 0 00-1.219-.014" fill="#2AB776"/><path d="M661.318 585.982v-3.107" stroke="#2AB776" stroke-linejoin="round"/><path fill-rule="evenodd" clip-rule="evenodd" d="M660.929 577.827c0 3.003-1.912 5.437-4.272 5.437-2.359 0-4.271-2.434-4.271-5.437 0-3.002 1.912-5.436 4.271-5.436 2.36 0 4.272 2.434 4.272 5.436z" fill="#2AB776"/><path clip-rule="evenodd" d="M660.929 577.827c0 3.003-1.912 5.437-4.272 5.437-2.359 0-4.271-2.434-4.271-5.437 0-3.002 1.912-5.436 4.271-5.436 2.36 0 4.272 2.434 4.272 5.436z" stroke="#D6F0BF"/><path d="M656.657 585.982v-7.767" stroke="#2AB776" stroke-linejoin="round"/><path fill="url(#paint0_linear)" d="M0 34.172h1224v191.056H0z"/><path transform="rotate(180 1224 879.944)" fill="url(#paint1_linear)" d="M1224 879.944h1224v236.102H1224z"/><path transform="rotate(90 1210.02 0)" fill="url(#paint2_linear)" d="M1210.02 0h866.741v236.101H1210.02z"/><path transform="rotate(-90 124 866.741)" fill="url(#paint3_linear)" d="M124 866.741h866.741v236.101H124z"/><defs><linearGradient id="paint0_linear" x1="612" y1="34.172" x2="612" y2="225.228" gradientUnits="userSpaceOnUse"><stop stop-color="#fff"/><stop offset="1" stop-color="#fff" stop-opacity="0"/></linearGradient><linearGradient id="paint1_linear" x1="1836" y1="879.944" x2="1836" y2="1116.05" gradientUnits="userSpaceOnUse"><stop stop-color="#fff"/><stop offset="1" stop-color="#fff" stop-opacity="0"/></linearGradient><linearGradient id="paint2_linear" x1="1643.39" y1="0" x2="1643.39" y2="236.101" gradientUnits="userSpaceOnUse"><stop stop-color="#fff"/><stop offset="1" stop-color="#fff" stop-opacity="0"/></linearGradient><linearGradient id="paint3_linear" x1="557.371" y1="866.741" x2="557.371" y2="1102.84" gradientUnits="userSpaceOnUse"><stop stop-color="#fff"/><stop offset="1" stop-color="#fff" stop-opacity="0"/></linearGradient></defs></svg>