<svg width="320" height="520" fill="none" xmlns="http://www.w3.org/2000/svg"><path fill-rule="evenodd" clip-rule="evenodd" d="M-105.833 22.42a2.363 2.363 0 012.458 2.19c.056.777.103 1.66.135 2.62.219 2.57.734 5.8 1.7 8.949 1.337 4.352 3.4 8.108 6.297 10.039 4.448 2.965 7.331 4.552 10.231 5.334 2.867.773 5.956.812 10.906.25 7.944-.903 16.226-1.438 19.641-1.607 3.58-.878 11.227-.622 17.455 6.008 1.243 1.323 18.244 17.9 45.718 44.605l118.715-9.778c.171-.014.343-.01.513.014l33.47 4.553 175.268-14.892.113-.007c5.01-.185 13.044-1.115 20.731-3.29 7.807-2.21 14.696-5.55 18.054-10.19a2.364 2.364 0 013.829 2.773c-4.351 6.008-12.606 9.704-20.596 11.965a90.003 90.003 0 01-7.459 1.756c1.182.987 2.267 2.271 3.194 3.932 1.306 2.338 3.199 3.71 4.996 4.392 1.913.727 3.4.57 3.894.345a2.364 2.364 0 011.956 4.303c-2.03.923-4.907.766-7.528-.228-2.737-1.04-5.548-3.109-7.445-6.507-1.562-2.8-3.615-3.876-5.856-4.323-1.809-.36-3.573-.306-5.452-.248-.692.022-1.399.044-2.129.046l-175.43 14.905a2.31 2.31 0 01-.519-.013l-33.473-4.554-114.348 9.419c95.596 92.904 304.305 295.212 422.37 409.61a2.363 2.363 0 01-3.29 3.395C312.663 402.277 99.981 196.118 6.183 104.947c-27.839-27.06-45.286-44.068-46.639-45.508-4.988-5.31-10.96-5.19-13.018-4.618-.17.047-.344.075-.52.084-3.176.15-11.566.683-19.578 1.593-5.145.585-8.94.624-12.67-.382-3.696-.996-7.123-2.965-11.623-5.965-2.87-1.913-4.934-4.823-6.418-7.955a29.838 29.838 0 01-.758 2.933c-.678 2.135-1.668 4.224-3.186 5.68-4.968 4.76-12.025 5.762-15.113 5.706l-74.456 5.499a2.363 2.363 0 11-.348-4.714l74.57-5.507c.081-.006.161-.008.242-.006 2.337.067 8.061-.775 11.835-4.391.684-.656 1.37-1.87 1.951-3.698.567-1.785.965-3.934 1.225-6.226.391-3.458.45-7.082.36-9.97-.082-.992-.124-1.9-.134-2.69a2.363 2.363 0 012.262-2.393z" fill="#E4E3E1"/><path fill-rule="evenodd" clip-rule="evenodd" d="M416.672 23.23a2.363 2.363 0 01.224 3.335c-10.641 12.171-33.85 38.85-41.718 48.364-3.576 4.325-5.752 10.6-6.963 16.916-1.202 6.274-1.399 12.301-1.217 15.875l.003.081 1.606 95.68c.001.046 0 .092-.002.138l-.005.084c-2.524 32.504-7.985 102.703-9.637 123.448-1.703 21.382-12.66 37.317-18.116 42.778-18.98 19.133-60.777 61.603-76.34 78.631-8.278 9.057-21.782 14.61-34.922 17.939-13.169 3.337-26.388 4.54-34.626 4.626l-393.414 33.951a2.363 2.363 0 01-.407-4.71l393.505-33.958c.06-.005.12-.008.18-.009 7.907-.075 20.796-1.238 33.601-4.482 12.884-3.264 25.27-8.533 32.594-16.546 15.642-17.115 57.517-59.663 76.473-78.771l.007-.007c4.794-4.794 15.153-19.724 16.753-39.817 1.65-20.716 7.1-90.773 9.628-123.328l-1.604-95.528c-.196-3.926.023-10.313 1.298-16.965 1.271-6.631 3.646-13.818 7.962-19.038 7.919-9.576 31.18-36.313 41.802-48.463a2.364 2.364 0 013.335-.224zM167.218 265.855c2.754-1.744 6.285-1.724 8.528-1.336a2.363 2.363 0 01-.806 4.658c-1.735-.3-3.872-.165-5.194.672a2.855 2.855 0 00-1.259 1.657c-.224.736-.311 1.859.045 3.523a605.688 605.688 0 018.482 8.274l.05.052a25.597 25.597 0 012.545 3.213c.427.646.847 1.363 1.167 2.091.305.694.601 1.578.601 2.511a2.363 2.363 0 01-4.727 0c0 .014-.009-.172-.201-.609a9.752 9.752 0 00-.783-1.386 20.845 20.845 0 00-2.021-2.555c-1.31-1.31-4.886-4.84-8.883-8.655-1.589-1.517-3.721-2.386-5.879-2.816-2.159-.43-4.149-.38-5.233-.225a2.114 2.114 0 01-.16.017l-37.171 2.754a2.364 2.364 0 01-.349-4.714l37.095-2.748c1.597-.217 4.086-.249 6.741.28 1.233.245 2.542.62 3.834 1.176a8.98 8.98 0 01.326-1.561 7.573 7.573 0 013.252-4.273z" fill="#E4E3E1"/><path fill-rule="evenodd" clip-rule="evenodd" d="M190.796 261.063c.882.899.904 2.333.05 3.259-.328.355-.78.808-1.331 1.305a15.76 15.76 0 00-3.08 4.838 11.512 11.512 0 00-.69 2.409c-.107.67-.07.995-.068 1.021l.001.002c.035.154.054.311.058.47.022.96-.084 2.075-.36 3.231a11.206 11.206 0 015.988.594 2.362 2.362 0 11-1.756 4.389c-1.272-.509-3.276-.687-4.878.189-1.42.776-3.187 2.761-3.354 8.016a2.365 2.365 0 01-4.725-.15c.056-1.746.268-3.304.617-4.685-.654.136-1.349.218-2.088.239a2.363 2.363 0 11-.135-4.725c2.377-.068 3.782-1.128 4.669-2.458.914-1.373 1.291-3.085 1.298-4.358-.124-.78-.071-1.669.065-2.52.097-.605.247-1.265.457-1.959-2.106.475-4.457.365-6.629-1.156a2.362 2.362 0 01-.581-3.291 2.362 2.362 0 013.291-.581c1.186.83 2.85.725 5.019-.394 1.369-.706 2.637-1.676 3.572-2.504.415-.438.859-.87 1.333-1.292a2.364 2.364 0 013.257.111zm-22.322-2.943a2.364 2.364 0 013.207.943c1.406 2.578 1.331 5.111.147 7.298-1.093 2.018-3.014 3.537-4.934 4.653-3.851 2.239-8.783 3.478-11.311 3.696a2.363 2.363 0 01-.406-4.709c1.909-.165 6.154-1.22 9.34-3.073 1.598-.929 2.66-1.906 3.154-2.818.403-.743.519-1.576-.14-2.784a2.363 2.363 0 01.943-3.206zm-59.824 3.739a2.364 2.364 0 011.471 3.001c-.435 1.27-.373 2.28-.087 3.111.298.867.897 1.691 1.752 2.439 1.769 1.546 4.245 2.43 5.736 2.576a2.363 2.363 0 01.046 4.7c-1.61.189-4.041.994-5.682 2.442-.788.695-1.33 1.48-1.584 2.359-.223.772-.27 1.769.116 3.066a33.356 33.356 0 011.836 1.599 2.363 2.363 0 11-3.233 3.448c-3.399-3.187-7.851-5.692-11.92-7.404-2.022-.851-3.91-1.49-5.472-1.912-1.614-.436-2.724-.599-3.248-.599a2.363 2.363 0 01-.573-4.657c.363-.09.74-.146 1.04-.189l.242-.033c.237-.033.46-.064.71-.105a9.86 9.86 0 002.111-.573c1.55-.618 3.704-1.951 6.34-5.184a2.363 2.363 0 113.664 2.988c-1.871 2.293-3.639 3.886-5.284 4.999.747.274 1.518.577 2.304.908a53.084 53.084 0 016.599 3.326c.058-.336.133-.667.227-.991.556-1.923 1.692-3.439 2.998-4.591a12.92 12.92 0 011.72-1.275 14.53 14.53 0 01-1.804-1.34c-1.307-1.142-2.478-2.622-3.11-4.457-.645-1.872-.675-3.963.083-6.181a2.365 2.365 0 013.002-1.471z" fill="#E4E3E1"/><path fill-rule="evenodd" clip-rule="evenodd" d="M-126.421 53.773a2.363 2.363 0 012.711-1.956c3.105.502 8.361 2.814 13.31 6.599 4.996 3.82 9.996 9.378 12.206 16.611a2.363 2.363 0 11-4.521 1.382c-1.828-5.984-6.045-10.789-10.556-14.238-4.558-3.485-9.099-5.35-11.194-5.688a2.364 2.364 0 01-1.956-2.71zm406.897 33.104c.933.913.95 2.409.038 3.342L101.085 273.778a2.362 2.362 0 11-3.38-3.304L277.134 86.915a2.363 2.363 0 013.342-.038zm70.991 12.234l.033-.02c.143-.082.387-.202.751-.343.722-.28 1.756-.583 3.039-.835a31.358 31.358 0 019.527-.345 2.363 2.363 0 00.559-4.694 36.082 36.082 0 00-10.997.4c-1.492.294-2.802.665-3.837 1.067-.515.2-1.002.422-1.423.667-.325.19-.787.492-1.164.937L185.809 262.677a2.363 2.363 0 003.389 3.296l162.22-166.81a1.59 1.59 0 00.049-.052zM98.079 277.438a2.363 2.363 0 01-2.16 2.55l-168.186 13.896a2.364 2.364 0 01-.39-4.711L95.53 275.277a2.363 2.363 0 012.55 2.161zm4.114 4.159a2.363 2.363 0 013.333-.248l76.213 65.639-5.079-56.524a2.364 2.364 0 114.708-.423l16.04 178.505 14.388 48.417a2.364 2.364 0 11-4.531 1.346l-14.455-48.643a2.329 2.329 0 01-.089-.462L182.337 353.64a2.321 2.321 0 01-.506-.334l-79.389-68.376a2.363 2.363 0 01-.249-3.333zM-88.462 292.85a2.363 2.363 0 01-2.161 2.55l-107.841 8.91a2.363 2.363 0 11-.389-4.711l107.84-8.91a2.363 2.363 0 012.55 2.161z" fill="#E4E3E1"/><path fill-rule="evenodd" clip-rule="evenodd" d="M103.754 272.654a3.602 3.602 0 100 7.205 3.602 3.602 0 000-7.205zm-8.329 3.602a8.33 8.33 0 1116.658.002 8.33 8.33 0 01-16.658-.002z" fill="#E4E3E1"/><path fill-rule="evenodd" clip-rule="evenodd" d="M50.641 23.537a1.477 1.477 0 011.584 1.363l.763 10.172 110.992-9.01a1.477 1.477 0 011.591 1.344l5.966 68.835.003.038 1.376 22.715c.025.413-.124.817-.41 1.114l-70.67 73.424a1.478 1.478 0 01-2.129-2.049l70.221-72.957-1.335-22.03-.002-.038-5.836-67.333-109.546 8.893 4.523 60.305a1.477 1.477 0 01-2.946.221l-4.522-60.287-72.565 5.89-.01.002c-1.945.187-5.009.603-7.864 1.238-1.432.318-2.78.685-3.896 1.093-1.155.423-1.909.838-2.284 1.184-1.554 1.435-3.15 2.723-5.668 3.68-2.474.939-5.748 1.525-10.636 1.758a1.477 1.477 0 01-.14-2.951c4.748-.227 7.67-.788 9.727-1.57 2.014-.764 3.286-1.77 4.714-3.088.818-.756 2.028-1.332 3.271-1.787 1.283-.47 2.769-.869 4.27-1.203 3.006-.668 6.2-1.1 8.233-1.296l.022-.002 72.605-5.894-.764-10.19a1.477 1.477 0 011.362-1.584zm73.641 69.932c.588.566.605 1.501.039 2.089l-8.908 9.248a1.48 1.48 0 01-.648.673l-50.559 52.489a1.365 1.365 0 01-.055.053l-17.373 16.26 19.546 228.565 121.059-9.896c.04-.003.08-.005.12-.005h7.113c.045 0 .089.002.134.006-.001 0-.001 0 0 0 .005 0 .044.002.123-.005a2.98 2.98 0 00.354-.059 6.56 6.56 0 001.199-.408c.988-.434 2.312-1.225 3.863-2.603 1.595-1.418 10.175-10.261 20.343-20.839a9824.068 9824.068 0 0029.359-30.701 1.476 1.476 0 112.139 2.037 9704.762 9704.762 0 01-29.368 30.711c-10.097 10.504-18.802 19.481-20.511 21-1.753 1.559-3.335 2.528-4.638 3.1-1.215.533-2.286.764-3.052.715h-6.998l-120.987 9.89 9.51 111.262a1.478 1.478 0 01-2.943.252L63.63 406.03l-42.949 3.511 6.073 73.096 2.754 34.422a1.478 1.478 0 11-2.945.236l-2.753-34.417-6.195-74.567a1.477 1.477 0 011.352-1.594l44.412-3.631-16.482-192.731-87.984 7.476 17.313 206.172 1.86 1.673c.29.261.465.626.487 1.016l5.048 90.403a1.478 1.478 0 01-2.95.164l-5.014-89.794-1.842-1.658c-.28-.251-.452-.6-.484-.974L-44.03 218.081l-153.815 13.069a1.477 1.477 0 11-.25-2.944l244.741-20.795-2.747-32.12-241.743 20.753a1.477 1.477 0 11-.253-2.943l242.706-20.836 17.496-16.374 50.407-52.332-1.045-8.15a1.477 1.477 0 112.931-.376l.743 5.797 7.053-7.322a1.476 1.476 0 012.088-.039zm200.291 113.61a1.48 1.48 0 011.186-.441l39.694 3.442a1.476 1.476 0 11-.255 2.943l-38.997-3.381-139.246 142.904a1.477 1.477 0 11-2.116-2.062l139.734-143.405zM-74.203 361.713a1.477 1.477 0 01-1.344 1.599l-122.296 10.555a1.477 1.477 0 11-.254-2.944l122.296-10.554a1.477 1.477 0 011.598 1.344zm9.427 127.605a1.477 1.477 0 011.588 1.357l2.065 26.387a1.478 1.478 0 01-2.945.23l-2.065-26.386a1.476 1.476 0 011.357-1.588z" fill="#E4E3E1"/><path fill-rule="evenodd" clip-rule="evenodd" d="M38.69 282.494l1.179-.086 2.522 34.397 3.228 22.596L44 344.72v6.336h-1.18v-6.512l1.593-5.236-3.196-22.376-2.526-34.438zm-58.28 38.096l-2.753-32.353 1.178-.1 2.753 32.353-1.177.1zm47.018-2.053l1.427 16.407-1.178.102-1.326-15.257-13.88.881-.074-1.179 15.03-.954zm-43.394 23.242l-15.832 1.376-.103-1.177 15.832-1.377.103 1.178z" fill="#E4E3E1"/><path fill-rule="evenodd" clip-rule="evenodd" d="M26.3 319.442l-1.147-13.537 1.178-.1 1.147 13.537-1.178.1zm12.817 65.172l-1.804-32.837 1.18-.065 1.802 32.809 6.968-.554.094 1.178-75.03 5.965-.093-1.178 66.883-5.318z" fill="#E4E3E1"/><path fill-rule="evenodd" clip-rule="evenodd" d="M222.428 109.184c-5.056-4.868-8.17-12.132-9.103-15.166l1.129-.347c.903 2.932 3.938 9.986 8.794 14.662 4.956 4.773 70.899 68.223 103.252 99.351l-.82.852c-32.352-31.129-98.295-94.579-103.252-99.352zm-213.71-6.292l.089 1.179-47.823 3.586 5.69 72.644-1.178.092-5.69-72.647-79.623 5.971-.124-.047c-.311-.12-1.15-.196-2.453.294-1.284.482-2.974 1.5-4.947 3.473-3.899 3.898-38.066 38.35-56.387 56.829a5.305 5.305 0 00-1.522 4.133l14.255 191.887-1.178.088-14.256-191.887a6.487 6.487 0 011.862-5.053c18.319-18.477 52.489-52.932 56.39-56.833 2.065-2.065 3.893-3.19 5.367-3.743 1.361-.512 2.463-.551 3.158-.338l128.37-9.628zm274.277 149.232l-82.372-82.143.835-.837 82.372 82.143-.835.837zm-403.312 42.077l-5.737-69.981 1.178-.097 5.736 69.982-1.177.096zm462.75 71.051l-87.878-83.29.812-.857 87.879 83.289-.813.858zm-456.784 130.179l-17.209-198.014 1.177-.103 17.209 198.014-1.177.103zM1.519 387.802l-1.836-32.353 1.18-.067L2.7 387.735l-1.18.067zm-14.684 1.388l-2.524-32.581 1.178-.091 2.524 32.581-1.178.091z" fill="#E4E3E1"/><path fill-rule="evenodd" clip-rule="evenodd" d="M251.131 33.756l-45.15-8.395.216-1.161 45.263 8.415 5.064-8.146 1.004.623-5.197 8.361-2.054 37.886 2.059 17.158-1.174.14-2.071-17.26 2.04-37.62zm45.496-9.44l66.999 52.543-.73.93-66.999-52.544.73-.93zM6.521 129.539l-76.636 6.883-.105-1.177 76.635-6.883.106 1.177zm2.994 23.329l2.588 22.823-1.174.133-2.46-21.689-75.837 5.921-.092-1.178 76.975-6.01zm297.046 214.698l18.803-19.078-.842-.829-31.434 31.893.841.83 11.802-11.975 16.737 16.116.82-.852-16.727-16.105zm98.678-12.487l-55.084-2.515.054-1.18 55.511 2.534.158.144-.399.436.399-.436h.001l.001.002 21.337 19.501-.798.872-21.18-19.358z" fill="#E4E3E1"/><path fill-rule="evenodd" clip-rule="evenodd" d="M437.123 342.504l-47.297 52.347-44.133 36.089-63.395 33.764-.016.008c-3.649 1.672-12.297 6.335-17.732 11.589-.463.447-1.017.992-1.657 1.619-4.102 4.027-11.683 11.469-20.619 18.414-10.302 8.005-22.53 15.454-33.394 16.155l-.076-1.179c10.474-.676 22.453-7.911 32.745-15.91 8.876-6.898 16.404-14.287 20.511-18.318.642-.631 1.201-1.179 1.668-1.631 5.57-5.384 14.343-10.107 18.046-11.806l63.261-33.694 43.974-35.958 47.237-52.281.877.792zM3.616 212.42l11.7 140.729 45.709-4.058.104 1.177-45.716 4.059 4.493 54.043-1.177.097-4.493-54.036-90.087 7.998-.105-1.177 90.094-7.998-1.178-14.176-12.283 1.106a2.954 2.954 0 01-3.214-2.753l-.992-15.477 1.18-.075.992 15.476a1.772 1.772 0 001.928 1.652l12.29-1.106L2.439 212.518l1.178-.098zm-8.521 101.965l-1.836-27.075 1.18-.08 1.835 27.075-1.18.08zm-5.732 110.449l31.158-2.978-.112-1.177-31.252 2.988-6.2 1.607-5.931.659-2.283-1.598-172.983 11.946.081 1.179 172.566-11.917 2.306 1.614 6.459-.718 6.19-1.605z" fill="#E4E3E1"/><path fill-rule="evenodd" clip-rule="evenodd" d="M53.145 357.296l1.179-.089.423 5.591 6.271-.628.118 1.176-6.3.631 2.526 33.384a2.955 2.955 0 01-2.643 3.162l-13.314 1.37-.121-1.175 13.314-1.371a1.772 1.772 0 001.586-1.897l-3.038-40.154zm51.857 44.753l1.177-.111 6.856 72.677 2.554 1.625v8.397l-1.144 8.009 1.83 24.487-1.178.088-1.791-23.956-131.797 11.193-.1-1.178 131.923-11.203 1.075-7.524v-7.664l-2.494-1.587-6.911-73.253z" fill="#E4E3E1"/><path fill-rule="evenodd" clip-rule="evenodd" d="M92.002 428.842a2.954 2.954 0 013.116 2.718l1.02 12.979h13.353v1.182h-13.26l1.036 13.201a2.954 2.954 0 01-2.831 3.184l-7.206.277a2.954 2.954 0 01-3.058-2.719l-1.01-12.767-13.287 1.802-.158-1.171 13.351-1.811-1.05-13.277a2.954 2.954 0 012.774-3.182l7.21-.416zm-7.665 17.938l10.714-.974 1.038 13.209a1.772 1.772 0 01-1.699 1.91l-7.205.277a1.772 1.772 0 01-1.835-1.631l-1.013-12.791zm10.622-2.153l-10.715.974-1.049-13.254a1.773 1.773 0 011.665-1.91l7.21-.416a1.774 1.774 0 011.87 1.631l1.019 12.975zM50.98 434.35a1.772 1.772 0 00-1.963-1.669l-71.623 7.809-.69-1.839-26.855 2.706a1.773 1.773 0 00-1.59 1.895l2.174 29.256a1.773 1.773 0 001.936 1.634l26.516-2.526 72.034-5.113a1.773 1.773 0 001.645-1.861L50.98 434.35zm-2.09-2.844a2.954 2.954 0 013.27 2.783l1.584 30.291a2.954 2.954 0 01-2.741 3.101l-72.02 5.113-26.502 2.524a2.954 2.954 0 01-3.226-2.722l-2.175-29.256a2.955 2.955 0 012.65-3.159l27.761-2.797.687 1.832 70.711-7.71z" fill="#E4E3E1"/><path fill-rule="evenodd" clip-rule="evenodd" d="M35.019 433.927l1.179-.08 1 14.797 14.904-.662.053 1.18-14.878.662 1.215 17.982-1.179.079-2.294-33.958zm-71.985 21.895l-1.209-16.154 1.178-.089 2.524 33.729-1.178.088L-36.878 457l-14.2 1.11-.091-1.179 14.203-1.109zm443.413-240.251l-40.941-3.431.099-1.177 41.201 3.452 4.796 2.741h5.809v1.182h-6.123l-4.841-2.767zm31.168 8.038c-4.434 5.887-13.768 18.266-15.606 20.655-.823 1.07-.969 2.038-.859 2.802.111.762.483 1.358.78 1.669l13.371 9.946 1.369-1.824.471.353.002.002.473.354-.013.017-1.711 2.278c-4.938 6.568-12.782 16.936-14.589 19.071-.445.527-.606.964-.631 1.31-.024.342.079.661.285.966.432.637 1.264 1.13 1.935 1.377l.04.015 14.492 7.821-.561 1.04-14.42-7.782c-.779-.294-1.847-.897-2.464-1.809-.324-.477-.533-1.055-.485-1.713.047-.656.344-1.322.907-1.988 1.736-2.051 9.225-11.944 14.19-18.543l-13.438-9.997-.03-.03c-.463-.463-.988-1.3-1.142-2.364-.157-1.087.079-2.375 1.091-3.691 1.834-2.384 11.162-14.755 15.599-20.646l.944.711zm-289.059 186.5l40.828-3.166-.091-1.179-82.831 6.425.092 1.178 40.824-3.166 4.66 62.507 1.178-.088-4.66-62.511zM-.826 450.327l-1.095-12.487 1.177-.104 1.1 12.534c4.183.093 6.833 3.343 8.435 7.141 1.683 3.99 2.32 8.807 2.398 12.027l-1.181.028c-.076-3.129-.7-7.787-2.306-11.595-1.615-3.831-4.115-6.581-7.861-6.414-1.887.084-3.29.885-4.345 2.148-1.07 1.281-1.794 3.055-2.247 5.072-.905 4.034-.684 8.853-.193 12.062l-1.168.179c-.503-3.292-.74-8.271.208-12.5.475-2.115 1.257-4.09 2.493-5.571 1.135-1.358 2.642-2.285 4.585-2.52z" fill="#E4E3E1"/><path fill-rule="evenodd" clip-rule="evenodd" d="M22.785 306.212c0 7.797-6.024 14.187-13.672 14.77l-1.147 1.869-1.138-1.87c-7.646-.584-13.668-6.973-13.668-14.769 0-8.18 6.632-14.812 14.813-14.812 8.18 0 14.813 6.632 14.813 14.812zM9.078 324.783a1.106 1.106 0 11-2.211 0 1.106 1.106 0 012.211 0z" fill="#CD7858"/><path d="M7.995 314.212h3.016v-8.723l-3.016-1.772v10.495zm-1.092-10.053v10.053h.64v-10.411l-.64.358zm-1.003.446v9.607h.64v-9.965l-.64.358zm-1.016.504v9.103h.645v-9.466l-.645.363zm-1.056.459v8.644h.645v-9.006l-.645.362zm-.962.495v8.149h.644v-8.511l-.644.362zm9.238 8.149h2.95v-7.443l-2.95-1.735v9.178z" fill="#fff"/><path d="M11.007 305.48v8.732h.644v-9.094l-.644.362zm-.998.446v8.286h.64v-8.644l-.64.358zm-1.016.499v7.787h.644v-8.145l-.644.358zm-7.278 2.208v5.579h.645v-5.936l-.645.357zm-1.011.504v5.075h.64v-5.437l-.64.362z" fill="#fff"/><path fill-rule="evenodd" clip-rule="evenodd" d="M.502 296.906h14.685v17.439H.502v-17.439zm.269.265v16.909h14.148v-16.909H.77z" fill="#fff"/><path d="M116.798 318.09l2.237-2.509a5.909 5.909 0 018.145-.645l10.94 8.924a3.114 3.114 0 01.679 4.051 3.112 3.112 0 00.855 4.184l.48.338a3.734 3.734 0 01.72 5.446l-.766.92a4.836 4.836 0 00-1.113 3.388l.917 15.282a5.909 5.909 0 01-5.393 6.241l-33.897 2.91a5.908 5.908 0 01-6.383-5.29l-3.394-33.424a5.909 5.909 0 015.392-6.485l16.658-1.375a5.91 5.91 0 003.923-1.956zM36.185 177.415l-118.359 10.319a4.441 4.441 0 00.69 8.855l17.745-1.218a1.72 1.72 0 001.602-1.716c0-.904.7-1.654 1.603-1.716l3.311-.226a5.273 5.273 0 015.613 4.823l.547 6.555a4.742 4.742 0 01-4.396 5.124l-3.601.251a1.374 1.374 0 01-1.47-1.371c0-.81-.697-1.444-1.503-1.369l-18.329 1.713a4.846 4.846 0 00.871 9.652L38.861 206.79a5.909 5.909 0 005.37-6.438l-1.65-17.602a5.909 5.909 0 00-6.396-5.335zM-96.783 77.554l2.425 24.998a5.908 5.908 0 006.316 5.322l34.35-2.538a5.908 5.908 0 005.39-6.875l-5.109-30.289a5.64 5.64 0 00-1.11-2.525l-1.478-1.901a2.075 2.075 0 00-2.208-.721 2.075 2.075 0 01-2.522-1.293l-.545-1.514c-.522-1.45-1.867-2.444-3.408-2.442-4.552.006-12.482.385-20.858 1.88-10.28 1.836-11.779 12.697-11.243 17.898z" fill="#D6F0BF"/><path fill-rule="evenodd" clip-rule="evenodd" d="M4.633 196.276c.337.627.976 1.05 1.709 1.05.739 0 1.382-.43 1.717-1.065a2.14 2.14 0 00.245-1c0-1.003-.68-1.839-1.58-2.026a1.858 1.858 0 00-.72-.009" fill="#2AB776"/><path d="M6.239 198.473v-1.836" stroke="#2AB776" stroke-linejoin="round"/><path fill-rule="evenodd" clip-rule="evenodd" d="M6.01 193.655c0 1.774-1.13 3.212-2.525 3.212-1.394 0-2.524-1.438-2.524-3.212 0-1.774 1.13-3.213 2.524-3.213 1.395 0 2.524 1.439 2.524 3.213z" fill="#2AB776"/><path clip-rule="evenodd" d="M6.01 193.655c0 1.774-1.13 3.212-2.525 3.212-1.394 0-2.524-1.438-2.524-3.212 0-1.774 1.13-3.213 2.524-3.213 1.395 0 2.524 1.439 2.524 3.213z" stroke="#D6F0BF"/><path d="M3.485 198.473v-4.589" stroke="#2AB776" stroke-linejoin="round"/><path fill-rule="evenodd" clip-rule="evenodd" d="M116.145 344.041c.337.627.976 1.05 1.709 1.05.739 0 1.382-.43 1.717-1.065.156-.297.245-.638.245-1 0-1.003-.679-1.839-1.58-2.026a1.854 1.854 0 00-.72-.009" fill="#2AB776"/><path d="M117.751 346.238v-1.836" stroke="#2AB776" stroke-linejoin="round"/><path fill-rule="evenodd" clip-rule="evenodd" d="M117.522 341.419c0 1.775-1.13 3.213-2.524 3.213-1.394 0-2.524-1.438-2.524-3.213 0-1.774 1.13-3.212 2.524-3.212 1.394 0 2.524 1.438 2.524 3.212z" fill="#2AB776"/><path clip-rule="evenodd" d="M117.522 341.419c0 1.775-1.13 3.213-2.524 3.213-1.394 0-2.524-1.438-2.524-3.213 0-1.774 1.13-3.212 2.524-3.212 1.394 0 2.524 1.438 2.524 3.212z" stroke="#D6F0BF"/><path d="M114.998 346.238v-4.589" stroke="#2AB776" stroke-linejoin="round"/><path fill="url(#paint0_linear)" d="M-273 20.192h723.222v112.889H-273z"/><path transform="rotate(180 450.222 519.931)" fill="url(#paint1_linear)" d="M450.222 519.931h723.222v139.505H450.222z"/><path transform="rotate(90 441.961 0)" fill="url(#paint2_linear)" d="M441.961 0H954.09v139.505H441.961z"/><path fill-rule="evenodd" clip-rule="evenodd" d="M303.929 138.591c0 6.867-5.092 12.545-11.707 13.462l-1.896 3.236-1.88-3.237c-6.611-.921-11.699-6.596-11.699-13.461 0-7.506 6.085-13.591 13.591-13.591 7.506 0 13.591 6.085 13.591 13.591zm-11.649 19.417a1.942 1.942 0 11-3.884-.002 1.942 1.942 0 013.884.002z" fill="#D04B8D"/><path d="M293.461 132.816l-.138-.001-2.915 5.713-3.02-5.761-4.136 10.408h-1.069v.837h5.855v-.837h-1.161l1.161-3.253 2.37 4.09 2.277-4.09 1.161 3.253h-1.161v.837h5.808v-.837h-1.006l-4.026-10.359z" fill="#fff"/><path fill-rule="evenodd" clip-rule="evenodd" d="M290.326 164.609l-2.707 4.66h5.437l-2.73-4.66z" fill="#292B32"/><path fill="#292B32" d="M215 169.228h150v26H215z"/><path d="M242.978 186.188c0 .086.01.182.032.288.021.096.053.187.096.272.053.086.112.16.176.224a.306.306 0 00.224.096v.16h-2.08v-.16c.085 0 .16-.026.224-.08a.85.85 0 00.16-.224c.042-.096.074-.192.096-.288.021-.106.032-.202.032-.288v-4.32l-2.672 5.504-2.56-5.184v4c0 .086.01.182.032.288.021.096.053.187.096.272.042.086.096.16.16.224a.306.306 0 00.224.096v.16h-1.552v-.16c.085 0 .16-.032.224-.096a.616.616 0 00.144-.224 1.236 1.236 0 00.128-.56V181.5a1.99 1.99 0 00-.08-.56c-.043-.181-.182-.272-.416-.272v-.16h1.424l2.448 5.008 2.448-5.008h1.52v.16c-.16 0-.288.102-.384.304a1.195 1.195 0 00-.144.528v4.688zm2.206.352a.77.77 0 01.208-.544.74.74 0 01.544-.224c.213 0 .394.075.544.224.149.15.224.331.224.544a.74.74 0 01-.224.544.77.77 0 01-.544.208.767.767 0 01-.544-.208.767.767 0 01-.208-.544zm12.895-9.456c-.79 0-1.478.144-2.064.432a4.274 4.274 0 00-1.44 1.104 4.576 4.576 0 00-.864 1.52 5.463 5.463 0 00-.272 1.68c0 .63.122 1.248.368 1.856a5.393 5.393 0 001.008 1.6 5.44 5.44 0 001.52 1.12 4.25 4.25 0 001.872.416c.192 0 .416-.021.672-.064.266-.042.528-.122.784-.24.256-.128.49-.304.704-.528.224-.224.394-.517.512-.88h.16v1.776c-.16 0-.331.022-.512.064l-.576.144c-.278.075-.587.144-.928.208a5.558 5.558 0 01-1.056.096c-.928 0-1.744-.16-2.448-.48-.704-.32-1.291-.736-1.76-1.248a5.149 5.149 0 01-1.056-1.728 5.75 5.75 0 01-.352-1.968c0-.661.117-1.317.352-1.968a5.01 5.01 0 011.072-1.744c.48-.522 1.082-.944 1.808-1.264.725-.32 1.578-.48 2.56-.48.352 0 .666.032.944.096.288.064.544.128.768.192.16.054.304.096.432.128.138.022.272.032.4.032v1.776h-.16a1.859 1.859 0 00-.352-.816 1.753 1.753 0 00-.608-.512 2.411 2.411 0 00-.736-.24 3.708 3.708 0 00-.752-.08zm9.51 5.104c0-.117-.021-.245-.064-.384a1.123 1.123 0 00-.192-.368 1.041 1.041 0 00-.32-.288.879.879 0 00-.448-.112h-1.408v5.152a1.475 1.475 0 00.128.56c.053.086.107.16.16.224a.308.308 0 00.224.096v.16h-2.08v-.16c.085 0 .16-.032.224-.096a.85.85 0 00.16-.224.86.86 0 00.112-.272c.021-.106.032-.202.032-.288v-5.152h-1.376a.879.879 0 00-.448.112 1.041 1.041 0 00-.32.288 1.32 1.32 0 00-.176.368 1.305 1.305 0 00-.064.384h-.16v-1.68h6.16v1.68h-.144zm3.621 7.328c-.15.448-.342.752-.576.912-.224.16-.459.24-.704.24-.16 0-.304-.026-.432-.08a1.95 1.95 0 01-.336-.176 1.434 1.434 0 01-.224-.176l-.064-.08.528-1.296c.042.171.096.315.16.432a.944.944 0 00.224.288.507.507 0 00.352.128c.256 0 .458-.186.608-.56l.768-1.968-2.56-5.824a3.45 3.45 0 00-.272-.48c-.086-.138-.235-.208-.448-.208v-.16h2.064v.16c-.043 0-.096.038-.16.112a.428.428 0 00-.096.288.56.56 0 00.064.256l1.968 4.528 1.888-4.624a.529.529 0 00.048-.208.323.323 0 00-.112-.256.292.292 0 00-.208-.096v-.16h1.552v.16a.576.576 0 00-.448.224 1.77 1.77 0 00-.288.48l-3.296 8.144zm12.138-2.816v1.968h-.16a3.599 3.599 0 00-.112-.448 2.106 2.106 0 00-.224-.464 1.535 1.535 0 00-.352-.384.727.727 0 00-.448-.144h-5.088a.794.794 0 00-.464.144 1.793 1.793 0 00-.368.384c-.096.15-.176.304-.24.464a2.05 2.05 0 00-.096.448h-.16V186.7h.608a.243.243 0 00.176-.08 1.02 1.02 0 00.176-.192 1.95 1.95 0 00.176-.24l.144-.256.576-1.296c.234-.501.469-1.018.704-1.552.245-.533.48-1.05.704-1.552l.576-1.312 2.704 5.904c.085.182.165.326.24.432a.364.364 0 00.304.144h.624zm-6.224 0h4.16l-2.08-4.56-2.08 4.56zm8.046-2.704c.043.374.134.731.272 1.072.139.331.32.624.544.88.235.256.518.464.848.624.331.15.715.224 1.152.224.235 0 .48-.032.736-.096.267-.074.512-.176.736-.304.224-.128.422-.282.592-.464a1.49 1.49 0 00.368-.64h.144v1.2a.528.528 0 00-.224.064 24.04 24.04 0 00-.272.16 6.566 6.566 0 01-.864.416c-.362.139-.842.208-1.44.208-.48 0-.938-.069-1.376-.208a3.23 3.23 0 01-1.136-.64 3.184 3.184 0 01-.8-1.104c-.192-.448-.288-.981-.288-1.6 0-.394.064-.794.192-1.2.139-.405.342-.768.608-1.088.278-.33.63-.597 1.056-.8.427-.202.939-.304 1.536-.304.534 0 .998.091 1.392.272.406.182.736.432.992.752.267.32.464.699.592 1.136.128.438.192.918.192 1.44h-5.552zm2.32-3.072c-.373 0-.698.075-.976.224a2.42 2.42 0 00-.688.576 2.69 2.69 0 00-.448.8 3.937 3.937 0 00-.208.896h4.56a2.979 2.979 0 00-.176-.912 2.591 2.591 0 00-.416-.8 1.97 1.97 0 00-.688-.56 1.996 1.996 0 00-.96-.224zm6.134 5.264c0 .086.011.182.032.288a1.166 1.166 0 00.24.496.29.29 0 00.208.096v.16h-2.016v-.16a.258.258 0 00.192-.08.85.85 0 00.16-.224c.043-.096.075-.192.096-.288.021-.106.032-.202.032-.288V181.5c0-.074-.011-.16-.032-.256a1.156 1.156 0 00-.096-.272.652.652 0 00-.16-.208.241.241 0 00-.192-.096v-.16h2.016v.16a.308.308 0 00-.224.096.827.827 0 00-.144.208 2.005 2.005 0 00-.08.272 1.222 1.222 0 00-.032.256v1.936h3.648V181.5c0-.074-.011-.16-.032-.256a1.156 1.156 0 00-.096-.272.493.493 0 00-.144-.208.258.258 0 00-.208-.096v-.16h2.016v.16a.308.308 0 00-.224.096.827.827 0 00-.144.208 1.156 1.156 0 00-.096.272 2.275 2.275 0 00-.016.256v4.688c0 .086.011.182.032.288a1.166 1.166 0 00.24.496.29.29 0 00.208.096v.16h-2.016v-.16a.258.258 0 00.192-.08.85.85 0 00.16-.224c.043-.096.075-.192.096-.288.021-.106.032-.202.032-.288v-2.224h-3.648v2.224zm12.089.032c0 .086.01.176.032.272.032.096.069.187.112.272.042.086.09.16.144.224.053.054.122.08.208.08v.16h-2.032v-.16a.261.261 0 00.192-.08.85.85 0 00.16-.224 1.236 1.236 0 00.128-.544v-2.208a2.868 2.868 0 01-.784.592c-.267.128-.603.192-1.008.192a2.249 2.249 0 01-1.776-.816 3.047 3.047 0 01-.448-.848 3.43 3.43 0 01-.144-.992v-.64c0-.074-.011-.16-.032-.256a1.149 1.149 0 00-.064-.272.588.588 0 00-.128-.208c-.043-.064-.091-.096-.144-.096v-.16h1.872v.16c-.064 0-.128.032-.192.096a.778.778 0 00-.144.208 2.005 2.005 0 00-.08.272 1.16 1.16 0 00-.032.256v.64c0 .363.053.672.16.928.106.246.24.448.4.608.16.15.336.262.528.336.192.064.378.096.56.096.277 0 .528-.064.752-.192.234-.138.469-.346.704-.624V181.5a1.254 1.254 0 00-.128-.528.652.652 0 00-.16-.208.244.244 0 00-.192-.096v-.16h2.032v.16a.257.257 0 00-.208.096.778.778 0 00-.144.208c-.043.086-.08.176-.112.272a1.16 1.16 0 00-.032.256v4.72zm2.942-2.224c.042.374.133.731.272 1.072.138.331.32.624.544.88.234.256.517.464.848.624.33.15.714.224 1.152.224.234 0 .48-.032.736-.096.266-.074.512-.176.736-.304.224-.128.421-.282.592-.464.181-.192.304-.405.368-.64h.144v1.2a.524.524 0 00-.224.064 13.82 13.82 0 00-.272.16 6.693 6.693 0 01-.864.416c-.363.139-.843.208-1.44.208-.48 0-.939-.069-1.376-.208a3.212 3.212 0 01-1.136-.64 3.158 3.158 0 01-.8-1.104c-.192-.448-.288-.981-.288-1.6 0-.394.064-.794.192-1.2a3.39 3.39 0 01.608-1.088c.277-.33.629-.597 1.056-.8.426-.202.938-.304 1.536-.304.533 0 .997.091 1.392.272.405.182.736.432.992.752.266.32.464.699.592 1.136.128.438.192.918.192 1.44h-5.552zm2.32-3.072a2.03 2.03 0 00-.976.224c-.267.15-.496.342-.688.576a2.668 2.668 0 00-.448.8 3.885 3.885 0 00-.208.896h4.56a3.04 3.04 0 00-.176-.912 2.613 2.613 0 00-.416-.8 1.988 1.988 0 00-.688-.56 2.001 2.001 0 00-.96-.224zm10.126 5.728a.48.48 0 00-.24.064c-.075.032-.16.075-.256.128a5.213 5.213 0 01-.72.336c-.299.107-.672.16-1.12.16a4.27 4.27 0 01-1.504-.256 3.724 3.724 0 01-1.168-.736 3.421 3.421 0 01-.768-1.104 3.466 3.466 0 01-.272-1.376c0-.458.08-.896.24-1.312.17-.416.41-.784.72-1.104.309-.32.688-.576 1.136-.768a3.983 3.983 0 011.552-.288c.394 0 .714.048.96.144.245.086.453.171.624.256.096.054.186.096.272.128a.906.906 0 00.288.048v1.216h-.16a1.24 1.24 0 00-.288-.528 1.938 1.938 0 00-.48-.4 2.284 2.284 0 00-.592-.24 2.593 2.593 0 00-.624-.08c-.438 0-.822.08-1.152.24-.331.15-.603.352-.816.608a2.45 2.45 0 00-.48.848c-.107.32-.16.651-.16.992 0 .395.058.784.176 1.168.128.374.304.71.528 1.008.234.299.517.539.848.72.341.182.725.272 1.152.272a2.6 2.6 0 00.832-.128c.256-.085.474-.197.656-.336.192-.138.341-.288.448-.448.117-.17.186-.33.208-.48h.16v1.248zm5.912-.672a2.722 2.722 0 00.608.72c.139.107.278.198.416.272a.955.955 0 00.4.096v.16h-.608c-.49 0-.869-.101-1.136-.304a2.227 2.227 0 01-.624-.72l-.752-1.424c-.117-.224-.314-.416-.592-.576a1.656 1.656 0 00-.88-.256v2.272c0 .086.006.176.016.272.022.096.054.187.096.272a.85.85 0 00.16.224c.064.054.139.08.224.08v.16h-2.064v-.16a.315.315 0 00.208-.08.691.691 0 00.176-.224 1.14 1.14 0 00.096-.272c.022-.096.032-.186.032-.272v-4.704c0-.074-.01-.16-.032-.256a1.134 1.134 0 00-.096-.288.493.493 0 00-.144-.208.326.326 0 00-.24-.096v-.16h2.048v.16a.292.292 0 00-.208.096.827.827 0 00-.144.208 1.218 1.218 0 00-.096.288 1.222 1.222 0 00-.032.256v1.648c.459-.405.912-.794 1.36-1.168.448-.384.902-.778 1.36-1.184 0-.01.006-.021.016-.032a.043.043 0 00.016-.032c0-.053-.026-.08-.08-.08v-.16h1.392v.16a.507.507 0 00-.192.048c-.074.032-.149.07-.224.112a1.76 1.76 0 00-.256.16c-.48.406-.96.822-1.44 1.248-.48.416-.96.827-1.44 1.232.459 0 .832.086 1.12.256.299.171.55.443.752.816l.784 1.44zm6.595 1.248v-.816l-.08.08a2.895 2.895 0 01-.928.624c-.341.15-.757.224-1.248.224-.373 0-.693-.042-.96-.128a1.814 1.814 0 01-.656-.352 1.572 1.572 0 01-.384-.544 1.826 1.826 0 01-.112-.64c0-.362.096-.682.288-.96.203-.277.491-.522.864-.736a7.181 7.181 0 011.36-.576 24.568 24.568 0 011.856-.528c-.021-.416-.107-.752-.256-1.008a1.793 1.793 0 00-.528-.592 1.578 1.578 0 00-.64-.288 2.567 2.567 0 00-.576-.08c-.277 0-.523.043-.736.128-.213.075-.4.182-.56.32-.16.128-.293.278-.4.448a2.676 2.676 0 00-.224.512h-.144v-1.248a.773.773 0 00.336-.096c.128-.074.277-.154.448-.24.181-.085.395-.16.64-.224.256-.074.56-.112.912-.112.587 0 1.061.075 1.424.224.363.15.64.347.832.592.203.246.336.528.4.848.064.31.096.63.096.96v3.168c0 .214.053.416.16.608.107.182.251.272.432.272v.16h-1.616zm0-1.52v-2.288l-.16.032c-.256.064-.571.15-.944.256a5.956 5.956 0 00-1.04.416 3.405 3.405 0 00-.848.608 1.12 1.12 0 00-.352.816c0 .342.139.624.416.848.277.224.64.336 1.088.336.352 0 .661-.074.928-.224a3.26 3.26 0 00.736-.608l.176-.192zm8.193.48a1.423 1.423 0 00.128.576c.053.086.106.16.16.224.064.054.138.08.224.08v.16h-2.08v-.16a.292.292 0 00.208-.096.85.85 0 00.16-.224.884.884 0 00.112-.272c.021-.106.032-.202.032-.288v-2.24a1.053 1.053 0 00-.4.192c-.15.096-.304.224-.464.384-.16.15-.315.315-.464.496-.15.182-.288.363-.416.544-.107.15-.198.272-.272.368a3.172 3.172 0 00-.192.272c-.107.139-.214.272-.32.4-.107.118-.23.224-.368.32a1.442 1.442 0 01-.464.224 2.26 2.26 0 01-.64.08h-.592v-.16a.753.753 0 00.384-.112c.138-.074.272-.165.4-.272.128-.117.245-.24.352-.368.117-.138.218-.266.304-.384l.496-.688c.181-.245.368-.485.56-.72.192-.245.41-.437.656-.576a3.653 3.653 0 01-1.024-.16 2.363 2.363 0 01-.752-.384 1.693 1.693 0 01-.464-.544 1.617 1.617 0 01-.144-.672c0-.224.048-.437.144-.64.106-.202.272-.378.496-.528.224-.16.506-.282.848-.368a4.849 4.849 0 011.264-.144h2.64v.16a.306.306 0 00-.224.096 1.164 1.164 0 00-.16.208 1.156 1.156 0 00-.096.272 1.16 1.16 0 00-.032.256v4.688zm-3.84-4.096c0 .16.048.32.144.48.106.16.245.304.416.432.181.128.384.235.608.32.224.075.464.112.72.112h.896v-2.416h-1.04c-.64 0-1.094.102-1.36.304a.94.94 0 00-.384.768zm6.036 3.648c.309 0 .533.107.672.32.149.214.224.459.224.736 0 .16-.022.336-.064.528-.043.203-.128.4-.256.592-.118.203-.294.4-.528.592-.224.203-.523.39-.896.56l-.08-.144c.213-.192.378-.368.496-.528a1.63 1.63 0 00.272-.416.894.894 0 00.112-.336c.021-.106.032-.218.032-.336 0-.085-.027-.149-.08-.192a1.228 1.228 0 00-.176-.144 3.342 3.342 0 01-.256-.176c-.086-.074-.128-.197-.128-.368 0-.202.064-.368.192-.496a.631.631 0 01.464-.192z" fill="#fff"/><path fill-rule="evenodd" clip-rule="evenodd" d="M162.721 253.079c0 6.867-5.093 12.544-11.707 13.461l-1.896 3.236-1.88-3.237c-6.611-.92-11.7-6.596-11.7-13.46 0-7.507 6.085-13.592 13.592-13.592 7.506 0 13.591 6.085 13.591 13.592zm-11.65 19.416a1.941 1.941 0 11-3.882 0 1.941 1.941 0 013.882 0z" fill="#D04B8D"/><path d="M152.252 247.303l-.137-.001-2.916 5.714-3.02-5.762-4.135 10.409h-1.069v.836h5.855v-.836h-1.162l1.162-3.253 2.369 4.089 2.277-4.089 1.162 3.253h-1.162v.836h5.808v-.836h-1.006l-4.026-10.36z" fill="#fff"/><path fill-rule="evenodd" clip-rule="evenodd" d="M149.118 277.543l-2.707 4.66h5.437l-2.73-4.66z" fill="#292B32"/><path fill="#292B32" d="M74 282h150v26H74z"/><path d="M90.626 298.96c0 .085.01.181.032.288.022.096.053.186.096.272.053.085.112.16.176.224a.307.307 0 00.224.096v.16h-2.08v-.16a.34.34 0 00.224-.08.858.858 0 00.16-.224 1.438 1.438 0 00.128-.576v-4.32l-2.672 5.504-2.56-5.184v4c0 .085.01.181.032.288.022.096.053.186.096.272a.86.86 0 00.16.224.307.307 0 00.224.096v.16h-1.552v-.16c.086 0 .16-.032.224-.096a.625.625 0 00.144-.224c.043-.086.075-.176.096-.272.021-.107.032-.203.032-.288v-4.688a1.97 1.97 0 00-.08-.56c-.043-.182-.181-.272-.416-.272v-.16h1.424l2.448 5.008 2.448-5.008h1.52v.16c-.16 0-.288.101-.384.304a1.195 1.195 0 00-.144.528v4.688zm2.206.352c0-.214.07-.395.208-.544.15-.15.33-.224.544-.224.213 0 .395.074.544.224a.74.74 0 01.224.544.742.742 0 01-.224.544.773.773 0 01-.544.208.773.773 0 01-.544-.208.772.772 0 01-.208-.544zm7.263.528h.08c.085 0 .16-.027.224-.08a.868.868 0 00.16-.224c.043-.096.075-.192.096-.288.021-.107.032-.203.032-.288v-8.528a.82.82 0 00-.048-.256 1.14 1.14 0 00-.096-.272.63.63 0 00-.16-.208.29.29 0 00-.208-.096h-.08v-.16h8.192v.16h-.128a.241.241 0 00-.192.096.747.747 0 00-.144.224 1.964 1.964 0 00-.08.272 1.168 1.168 0 00-.032.24v8.528c0 .085.005.176.016.272.021.096.048.192.08.288.043.085.091.16.144.224a.29.29 0 00.208.096h.128v.16h-2.24v-.16h.144a.241.241 0 00.192-.096.625.625 0 00.144-.224.806.806 0 00.08-.272c.021-.107.032-.203.032-.288V290h-4.88v8.96c0 .085.011.181.032.288.021.096.048.186.08.272.043.085.096.16.16.224a.308.308 0 00.224.096h.08v.16h-2.24v-.16zm14.519 0a.48.48 0 00.256-.096.309.309 0 00.144-.272.533.533 0 00-.032-.128.815.815 0 00-.08-.24l-2.032-4.8-2.112 5.04c-.182.437-.539.656-1.072.656h-.352v-.16c.149 0 .309-.075.48-.224a1.85 1.85 0 00.432-.56l2.176-5.088c.053-.139.08-.251.08-.336 0-.128-.086-.192-.256-.192v-.16h1.296l2.464 5.76c.074.16.181.336.32.528.149.181.288.272.416.272v.16h-2.128v-.16zm6.45.272a3.864 3.864 0 01-1.44-.256 3.636 3.636 0 01-1.104-.72 3.44 3.44 0 01-.704-1.088 3.76 3.76 0 01-.24-1.36c0-.523.091-.998.272-1.424.182-.438.432-.811.752-1.12.32-.31.699-.55 1.136-.72a3.879 3.879 0 011.424-.256c.512 0 .982.085 1.408.256a3.088 3.088 0 011.824 1.76c.171.405.256.853.256 1.344 0 .458-.08.906-.24 1.344a3.18 3.18 0 01-.688 1.136c-.298.33-.672.597-1.12.8-.437.202-.949.304-1.536.304zm-.096-6.416a2.283 2.283 0 00-1.024.288c-.288.16-.533.373-.736.64a2.98 2.98 0 00-.448.88 3.59 3.59 0 00-.144 1.008c0 .394.059.778.176 1.152.128.362.304.688.528.976.235.288.512.517.832.688.32.17.678.256 1.072.256.395 0 .742-.086 1.04-.256.31-.171.566-.39.768-.656.203-.278.352-.587.448-.928.107-.342.16-.683.16-1.024 0-.352-.053-.704-.16-1.056a2.897 2.897 0 00-.496-.976 2.511 2.511 0 00-.848-.72c-.33-.182-.72-.272-1.168-.272zm15.703 5.776v1.968h-.16a1.906 1.906 0 00-.144-.448 1.858 1.858 0 00-.272-.464 1.887 1.887 0 00-.4-.384.87.87 0 00-.48-.144h-9.072v-.16a.241.241 0 00.192-.096.757.757 0 00.128-.224c.032-.086.054-.176.064-.272.022-.096.032-.176.032-.24v-4.688c0-.075-.01-.166-.032-.272a.797.797 0 00-.08-.288.616.616 0 00-.144-.224.306.306 0 00-.224-.096v-.16h1.984v.16a.308.308 0 00-.224.096.85.85 0 00-.16.224 1.917 1.917 0 00-.08.288 3.01 3.01 0 00-.016.272v5.152h2.896v-5.152c0-.075-.01-.166-.032-.272a.829.829 0 00-.24-.512.241.241 0 00-.192-.096v-.16h1.984v.16a.308.308 0 00-.224.096.63.63 0 00-.16.208 2.112 2.112 0 00-.08.272.955.955 0 00-.032.224v5.232h2.912v-5.152c0-.075-.01-.166-.032-.272a.797.797 0 00-.08-.288.616.616 0 00-.144-.224.326.326 0 00-.24-.096v-.16h2.016v.16a.326.326 0 00-.24.096 1.166 1.166 0 00-.144.224 1.917 1.917 0 00-.08.288 3.01 3.01 0 00-.016.272v4.272a2.883 2.883 0 00.064.544.739.739 0 00.128.24.326.326 0 00.24.096h.784zm5.273.528v-.816l-.08.08a2.928 2.928 0 01-.928.624c-.341.149-.757.224-1.248.224-.373 0-.693-.043-.96-.128a1.844 1.844 0 01-.656-.352 1.582 1.582 0 01-.384-.544 1.83 1.83 0 01-.112-.64c0-.363.096-.683.288-.96.203-.278.491-.523.864-.736a7.054 7.054 0 011.36-.576 23.666 23.666 0 011.856-.528c-.021-.416-.107-.752-.256-1.008a1.783 1.783 0 00-.528-.592 1.552 1.552 0 00-.64-.288 2.51 2.51 0 00-.576-.08c-.277 0-.523.042-.736.128-.213.074-.4.181-.56.32-.16.128-.293.277-.4.448-.096.17-.171.341-.224.512h-.144v-1.248a.773.773 0 00.336-.096c.128-.075.277-.155.448-.24.181-.086.395-.16.64-.224.256-.075.56-.112.912-.112.587 0 1.061.074 1.424.224.363.149.64.346.832.592.203.245.336.528.4.848.064.309.096.629.096.96v3.168c0 .213.053.416.16.608.107.181.251.272.432.272v.16h-1.616zm0-1.52v-2.288l-.16.032a29.05 29.05 0 00-.944.256 5.803 5.803 0 00-1.04.416c-.331.17-.613.373-.848.608a1.116 1.116 0 00-.352.816c0 .341.139.624.416.848.277.224.64.336 1.088.336.352 0 .661-.075.928-.224.267-.16.512-.363.736-.608l.176-.192zm10.209.992v1.968h-.16a3.556 3.556 0 00-.112-.448 2.085 2.085 0 00-.224-.464 1.502 1.502 0 00-.352-.384.727.727 0 00-.448-.144h-5.088a.794.794 0 00-.464.144 1.747 1.747 0 00-.368.384 2.723 2.723 0 00-.24.464c-.054.17-.086.32-.096.448h-.16v-1.968h.608a.247.247 0 00.176-.08c.064-.054.122-.118.176-.192.064-.075.122-.155.176-.24.053-.096.101-.182.144-.256.16-.363.352-.795.576-1.296.234-.502.469-1.019.704-1.552.245-.534.48-1.051.704-1.552l.576-1.312 2.704 5.904c.085.181.165.325.24.432a.364.364 0 00.304.144h.624zm-6.224 0h4.16l-2.08-4.56-2.08 4.56zm9.982-3.28c.491 0 .917.048 1.28.144.373.096.677.229.912.4.245.17.427.373.544.608a1.666 1.666 0 010 1.488 1.596 1.596 0 01-.56.608c-.245.17-.555.309-.928.416a5.38 5.38 0 01-1.328.144h-2.736v-.16c.085 0 .16-.027.224-.08a.868.868 0 00.16-.224c.053-.096.091-.192.112-.288.021-.107.032-.203.032-.288v-4.688c0-.075-.011-.16-.032-.256a.86.86 0 00-.112-.272.63.63 0 00-.16-.208.308.308 0 00-.224-.096v-.16h2.096v.16c-.16 0-.288.101-.384.304a1.195 1.195 0 00-.144.528v1.92h1.248zm-.112 3.28c.704 0 1.211-.112 1.52-.336.32-.235.48-.523.48-.864 0-.192-.043-.379-.128-.56a1.266 1.266 0 00-.4-.496 1.831 1.831 0 00-.64-.352 2.495 2.495 0 00-.88-.144h-1.088v2.752h1.136zm17.185.368h.08a.29.29 0 00.208-.096.844.844 0 00.16-.224.847.847 0 00.112-.272c.022-.107.032-.203.032-.288v-8.416l-4.128 9.632-3.92-9.136v7.92a1.254 1.254 0 00.128.56c.054.085.112.16.176.224a.308.308 0 00.224.096h.08v.16h-1.744v-.16h.08a.29.29 0 00.208-.096.844.844 0 00.16-.224c.043-.086.075-.176.096-.272.022-.107.032-.203.032-.288v-8.528c0-.075-.01-.16-.032-.256a1.14 1.14 0 00-.096-.272.617.617 0 00-.16-.208.29.29 0 00-.208-.096h-.08v-.16h1.632l3.712 8.752 3.712-8.752h1.808v.16h-.08a.308.308 0 00-.224.096.858.858 0 00-.176.208 1.236 1.236 0 00-.128.528v8.528a1.254 1.254 0 00.128.56c.054.085.112.16.176.224a.308.308 0 00.224.096h.08v.16h-2.272v-.16zm8.054.16v-.816l-.08.08a2.928 2.928 0 01-.928.624c-.342.149-.758.224-1.248.224-.374 0-.694-.043-.96-.128a1.836 1.836 0 01-.656-.352 1.582 1.582 0 01-.384-.544 1.83 1.83 0 01-.112-.64c0-.363.096-.683.288-.96.202-.278.49-.523.864-.736a7.027 7.027 0 011.36-.576 23.542 23.542 0 011.856-.528c-.022-.416-.107-.752-.256-1.008a1.805 1.805 0 00-.528-.592 1.552 1.552 0 00-.64-.288 2.51 2.51 0 00-.576-.08c-.278 0-.523.042-.736.128-.214.074-.4.181-.56.32-.16.128-.294.277-.4.448-.096.17-.171.341-.224.512h-.144v-1.248a.773.773 0 00.336-.096c.128-.075.277-.155.448-.24.181-.086.394-.16.64-.224.256-.075.56-.112.912-.112.586 0 1.061.074 1.424.224.362.149.64.346.832.592.202.245.336.528.4.848.064.309.096.629.096.96v3.168c0 .213.053.416.16.608.106.181.25.272.432.272v.16h-1.616zm0-1.52v-2.288l-.16.032a29.05 29.05 0 00-.944.256c-.363.106-.71.245-1.04.416-.331.17-.614.373-.848.608a1.116 1.116 0 00-.352.816c0 .341.138.624.416.848.277.224.64.336 1.088.336.352 0 .661-.075.928-.224.266-.16.512-.363.736-.608l.176-.192zm6.496-5.312c.576 0 1.072.101 1.488.304.427.192.779.448 1.056.768.288.32.502.688.64 1.104a4.01 4.01 0 010 2.544c-.128.416-.33.789-.608 1.12-.266.33-.602.597-1.008.8-.405.202-.885.304-1.44.304-.33 0-.672-.086-1.024-.256a4.188 4.188 0 01-.928-.672v3.296c0 .085.011.176.032.272.022.106.054.202.096.288.054.085.107.16.16.224a.308.308 0 00.224.096v.16h-2.08v-.16a.29.29 0 00.208-.096.844.844 0 00.16-.224.844.844 0 00.112-.288c.022-.096.032-.187.032-.272v-8.256c0-.096-.005-.187-.016-.272a.534.534 0 00-.048-.24.36.36 0 00-.16-.176.5.5 0 00-.288-.096v-.16h1.568v.704c.214-.256.47-.454.768-.592.31-.15.662-.224 1.056-.224zm.144 6.4a2.04 2.04 0 00.976-.256c.278-.16.507-.368.688-.624.182-.256.315-.539.4-.848.086-.32.128-.651.128-.992 0-.384-.053-.763-.16-1.136a3.238 3.238 0 00-.464-.992 2.4 2.4 0 00-.752-.72 1.745 1.745 0 00-.992-.288c-.224 0-.448.042-.672.128a1.83 1.83 0 00-.576.368c-.16.16-.293.352-.4.576a1.734 1.734 0 00-.144.72v2.096c0 .288.059.554.176.8.118.234.267.442.448.624.192.17.406.304.64.4.235.096.47.144.704.144zm9.531-.816a2.722 2.722 0 00.608.72c.138.106.277.197.416.272a.951.951 0 00.4.096v.16h-.608c-.491 0-.87-.102-1.136-.304a2.224 2.224 0 01-.624-.72l-.752-1.424c-.118-.224-.315-.416-.592-.576a1.652 1.652 0 00-.88-.256v2.272c0 .085.005.176.016.272.021.096.053.186.096.272.042.085.096.16.16.224a.34.34 0 00.224.08v.16h-2.064v-.16a.322.322 0 00.208-.08.731.731 0 00.176-.224 1.254 1.254 0 00.128-.544v-4.704c0-.075-.011-.16-.032-.256a1.188 1.188 0 00-.096-.288.481.481 0 00-.144-.208.326.326 0 00-.24-.096v-.16h2.048v.16a.29.29 0 00-.208.096.747.747 0 00-.144.208 1.108 1.108 0 00-.096.288 1.152 1.152 0 00-.032.256v1.648c.458-.406.912-.795 1.36-1.168.448-.384.901-.779 1.36-1.184 0-.011.005-.022.016-.032.01-.011.016-.022.016-.032 0-.054-.027-.08-.08-.08v-.16h1.392v.16a.498.498 0 00-.192.048c-.075.032-.15.069-.224.112a1.586 1.586 0 00-.256.16c-.48.405-.96.821-1.44 1.248-.48.416-.96.826-1.44 1.232.458 0 .832.085 1.12.256.298.17.549.442.752.816l.784 1.44zm7.618.672a.474.474 0 00-.24.064c-.075.032-.16.074-.256.128a5.34 5.34 0 01-.72.336c-.299.106-.672.16-1.12.16a4.297 4.297 0 01-1.504-.256 3.772 3.772 0 01-1.168-.736 3.421 3.421 0 01-.768-1.104 3.49 3.49 0 01-.272-1.376c0-.459.08-.896.24-1.312.171-.416.411-.784.72-1.104.309-.32.688-.576 1.136-.768a3.986 3.986 0 011.552-.288c.395 0 .715.048.96.144.245.085.453.17.624.256.096.053.187.096.272.128a.906.906 0 00.288.048v1.216h-.16a1.209 1.209 0 00-.288-.528 1.916 1.916 0 00-.48-.4 2.203 2.203 0 00-.592-.24 2.532 2.532 0 00-.624-.08c-.437 0-.821.08-1.152.24a2.237 2.237 0 00-.816.608 2.474 2.474 0 00-.48.848c-.107.32-.16.65-.16.992 0 .394.059.784.176 1.168.128.373.304.709.528 1.008.235.298.517.538.848.72.341.181.725.272 1.152.272.299 0 .576-.043.832-.128.256-.086.475-.198.656-.336.192-.139.341-.288.448-.448.117-.171.187-.331.208-.48h.16v1.248zm5.289.576v-.816l-.08.08a2.928 2.928 0 01-.928.624c-.341.149-.757.224-1.248.224-.373 0-.693-.043-.96-.128a1.844 1.844 0 01-.656-.352 1.582 1.582 0 01-.384-.544 1.83 1.83 0 01-.112-.64c0-.363.096-.683.288-.96.203-.278.491-.523.864-.736a7.054 7.054 0 011.36-.576 23.666 23.666 0 011.856-.528c-.021-.416-.107-.752-.256-1.008a1.783 1.783 0 00-.528-.592 1.552 1.552 0 00-.64-.288 2.51 2.51 0 00-.576-.08c-.277 0-.523.042-.736.128-.213.074-.4.181-.56.32-.16.128-.293.277-.4.448-.096.17-.171.341-.224.512h-.144v-1.248a.773.773 0 00.336-.096c.128-.075.277-.155.448-.24.181-.086.395-.16.64-.224.256-.075.56-.112.912-.112.587 0 1.061.074 1.424.224.363.149.64.346.832.592.203.245.336.528.4.848.064.309.096.629.096.96v3.168c0 .213.053.416.16.608.107.181.251.272.432.272v.16h-1.616zm0-1.52v-2.288l-.16.032a29.05 29.05 0 00-.944.256 5.803 5.803 0 00-1.04.416c-.331.17-.613.373-.848.608a1.116 1.116 0 00-.352.816c0 .341.139.624.416.848.277.224.64.336 1.088.336.352 0 .661-.075.928-.224.267-.16.512-.363.736-.608l.176-.192zm3.232.032c.31 0 .534.106.672.32.15.213.224.458.224.736 0 .16-.021.336-.064.528-.042.202-.128.4-.256.592-.117.202-.293.4-.528.592a3.516 3.516 0 01-.896.56l-.08-.144c.214-.192.379-.368.496-.528a1.62 1.62 0 00.272-.416.887.887 0 00.112-.336c.022-.107.032-.219.032-.336 0-.086-.026-.15-.08-.192a1.064 1.064 0 00-.176-.144 4.193 4.193 0 01-.256-.176c-.085-.075-.128-.198-.128-.368a.67.67 0 01.192-.496.633.633 0 01.464-.192z" fill="#fff"/><path fill-rule="evenodd" clip-rule="evenodd" d="M116.118 367l-2.707 4.66h5.437l-2.73-4.66z" fill="#292B32"/><path d="M7 371.457h218v26H7v-26z" fill="#292B32"/><path d="M23.079 378.856c-.79 0-1.478.144-2.064.432a4.249 4.249 0 00-1.44 1.104 4.576 4.576 0 00-.864 1.52 5.472 5.472 0 00-.272 1.68c0 .629.122 1.248.368 1.856a5.418 5.418 0 001.008 1.6 5.44 5.44 0 001.52 1.12c.576.277 1.2.416 1.872.416.192 0 .416-.021.672-.064.266-.043.528-.123.784-.24a2.54 2.54 0 00.704-.528c.224-.224.394-.517.512-.88h.16v1.776c-.16 0-.331.021-.512.064l-.576.144c-.278.075-.587.144-.928.208a5.558 5.558 0 01-1.056.096c-.928 0-1.744-.16-2.448-.48-.704-.32-1.291-.736-1.76-1.248a5.168 5.168 0 01-1.056-1.728 5.766 5.766 0 01-.352-1.968c0-.661.117-1.317.352-1.968a5.009 5.009 0 011.072-1.744c.48-.523 1.082-.944 1.808-1.264.725-.32 1.578-.48 2.56-.48.352 0 .666.032.944.096.288.064.544.128.768.192.16.053.304.096.432.128.138.021.272.032.4.032v1.776h-.16a1.842 1.842 0 00-.96-1.328 2.406 2.406 0 00-.736-.24 3.705 3.705 0 00-.752-.08zm9.184 8.896c.064.117.15.24.256.368.107.128.224.245.352.352.139.107.278.197.416.272a.953.953 0 00.4.096v.16h-.608c-.49 0-.869-.101-1.136-.304a2.23 2.23 0 01-.624-.72l-.752-1.424c-.117-.224-.314-.416-.592-.576a1.65 1.65 0 00-.88-.256v2.272c0 .085.006.176.016.272.022.096.054.187.096.272a.86.86 0 00.16.224c.064.053.139.08.224.08v.16h-2.064v-.16a.32.32 0 00.208-.08.716.716 0 00.176-.224 1.26 1.26 0 00.128-.544v-4.704c0-.075-.01-.16-.032-.256a1.13 1.13 0 00-.096-.288.487.487 0 00-.144-.208.326.326 0 00-.24-.096v-.16h2.048v.16a.29.29 0 00-.208.096.794.794 0 00-.144.208 1.13 1.13 0 00-.096.288 1.195 1.195 0 00-.032.256v1.648a61.9 61.9 0 011.36-1.168c.448-.384.902-.779 1.36-1.184 0-.011.006-.021.016-.032.011-.011.016-.021.016-.032 0-.053-.026-.08-.08-.08v-.16h1.392v.16a.504.504 0 00-.192.048 2.227 2.227 0 00-.224.112 1.76 1.76 0 00-.256.16c-.48.405-.96.821-1.44 1.248-.48.416-.96.827-1.44 1.232.459 0 .832.085 1.12.256.299.171.55.443.752.816l.784 1.44zm7.795-3.872c0 .181-.037.352-.112.512a2.05 2.05 0 01-.672.8c-.15.096-.293.171-.432.224.181.032.368.091.56.176.203.085.384.197.544.336a1.586 1.586 0 01.576 1.264c0 .149-.037.331-.112.544-.064.203-.187.4-.368.592-.17.181-.41.341-.72.48-.299.128-.688.192-1.168.192h-3.52v-.16c.085 0 .16-.032.224-.096a.86.86 0 00.16-.224.863.863 0 00.112-.272c.021-.107.032-.203.032-.288v-4.672a1.22 1.22 0 00-.144-.544c-.085-.203-.213-.304-.384-.304v-.16h3.264c.384 0 .71.053.976.16.277.096.501.224.672.384.181.149.31.32.384.512.085.181.128.363.128.544zm-3.856 1.328h1.232c.31 0 .565-.032.768-.096.213-.075.384-.171.512-.288a.993.993 0 00.272-.4c.064-.149.096-.304.096-.464a.846.846 0 00-.112-.4 1.092 1.092 0 00-.336-.368 1.703 1.703 0 00-.512-.288 1.973 1.973 0 00-.688-.112h-1.232v2.416zm1.568 3.28c.128 0 .288-.011.48-.032.203-.032.395-.091.576-.176.192-.096.352-.229.48-.4.139-.181.208-.416.208-.704 0-.309-.09-.56-.272-.752a1.745 1.745 0 00-.64-.432 2.516 2.516 0 00-.736-.208 5.132 5.132 0 00-.592-.048h-1.072v2.752h1.568zm5.025-2.72c.043.373.134.731.272 1.072.139.331.32.624.544.88.235.256.518.464.848.624.331.149.715.224 1.152.224.235 0 .48-.032.736-.096.267-.075.512-.176.736-.304.224-.128.422-.283.592-.464a1.49 1.49 0 00.368-.64h.144v1.2a.511.511 0 00-.224.064l-.272.16a6.604 6.604 0 01-.864.416c-.362.139-.842.208-1.44.208-.48 0-.938-.069-1.376-.208a3.236 3.236 0 01-1.136-.64 3.171 3.171 0 01-.8-1.104c-.192-.448-.288-.981-.288-1.6 0-.395.064-.795.192-1.2.139-.405.342-.768.608-1.088.278-.331.63-.597 1.056-.8.427-.203.939-.304 1.536-.304.534 0 .998.091 1.392.272.406.181.736.432.992.752.267.32.464.699.592 1.136.128.437.192.917.192 1.44h-5.552zm2.32-3.072c-.373 0-.698.075-.976.224a2.378 2.378 0 00-.688.576 2.67 2.67 0 00-.448.8 3.889 3.889 0 00-.208.896h4.56a3.009 3.009 0 00-.176-.912 2.595 2.595 0 00-.416-.8 1.967 1.967 0 00-.688-.56 1.997 1.997 0 00-.96-.224zm7.13-.528c.576 0 1.072.101 1.488.304.427.192.779.448 1.056.768.288.32.502.688.64 1.104a3.971 3.971 0 010 2.544c-.128.416-.33.789-.608 1.12a2.995 2.995 0 01-1.008.8c-.405.203-.885.304-1.44.304-.33 0-.672-.085-1.024-.256a4.102 4.102 0 01-.928-.672v3.296c0 .085.01.176.032.272.021.107.053.203.096.288.053.085.107.16.16.224a.307.307 0 00.224.096v.16h-2.08v-.16a.29.29 0 00.208-.096.86.86 0 00.16-.224.849.849 0 00.112-.288 1.26 1.26 0 00.032-.272v-8.256c0-.096-.005-.187-.016-.272a.534.534 0 00-.048-.24.365.365 0 00-.16-.176.516.516 0 00-.288-.096v-.16h1.568v.704c.214-.256.47-.453.768-.592.31-.149.661-.224 1.056-.224zm.144 6.4c.373-.011.699-.096.976-.256s.507-.368.688-.624c.181-.256.315-.539.4-.848a3.85 3.85 0 00.128-.992c0-.384-.053-.763-.16-1.136a3.272 3.272 0 00-.464-.992 2.411 2.411 0 00-.752-.72 1.747 1.747 0 00-.992-.288 1.824 1.824 0 00-1.248.496c-.16.16-.293.352-.4.576a1.734 1.734 0 00-.144.72v2.096c0 .288.059.555.176.8.117.235.267.443.448.624.192.171.405.304.64.4.235.096.47.144.704.144zm14.47-9.712c-.788 0-1.477.144-2.063.432a4.249 4.249 0 00-1.44 1.104 4.576 4.576 0 00-.864 1.52 5.475 5.475 0 00-.272 1.68c0 .629.123 1.248.368 1.856a5.418 5.418 0 001.008 1.6 5.44 5.44 0 001.52 1.12c.576.277 1.2.416 1.872.416.192 0 .416-.021.672-.064.267-.043.528-.123.784-.24.256-.128.49-.304.704-.528.224-.224.395-.517.512-.88h.16v1.776c-.16 0-.33.021-.512.064l-.576.144c-.278.075-.587.144-.928.208a5.55 5.55 0 01-1.056.096c-.928 0-1.744-.16-2.448-.48a5.365 5.365 0 01-1.76-1.248 5.171 5.171 0 01-1.056-1.728 5.766 5.766 0 01-.352-1.968c0-.661.117-1.317.352-1.968a5.01 5.01 0 011.072-1.744c.48-.523 1.083-.944 1.808-1.264.725-.32 1.578-.48 2.56-.48.352 0 .666.032.944.096.288.064.544.128.768.192.16.053.304.096.432.128.139.021.272.032.4.032v1.776h-.16a1.84 1.84 0 00-.96-1.328 2.405 2.405 0 00-.736-.24 3.705 3.705 0 00-.752-.08zm10.754 9.104c0 .085.01.181.032.288.032.096.069.187.112.272.042.085.096.16.16.224.074.064.144.096.208.096v.16h-2.048v-.16a.32.32 0 00.208-.08.86.86 0 00.16-.224 1.53 1.53 0 00.096-.288c.02-.107.032-.203.032-.288v-3.84l-3.808 3.728v.112c0 .085.01.181.032.288a1.168 1.168 0 00.24.496.29.29 0 00.208.096v.16h-2.032v-.16a.32.32 0 00.208-.08.86.86 0 00.16-.224 1.53 1.53 0 00.096-.288c.02-.107.032-.203.032-.288v-4.688c0-.075-.011-.16-.032-.256a1.177 1.177 0 00-.096-.272.637.637 0 00-.16-.208.29.29 0 00-.208-.096v-.16h2.032v.16a.307.307 0 00-.224.096.79.79 0 00-.144.208 2.006 2.006 0 00-.08.272 1.189 1.189 0 00-.032.256v3.824l3.808-3.728v-.096c0-.075-.011-.16-.032-.256a1.177 1.177 0 00-.096-.272.637.637 0 00-.16-.208.29.29 0 00-.208-.096v-.16h2.048v.16a.362.362 0 00-.24.096.635.635 0 00-.16.208 2.006 2.006 0 00-.08.272 1.189 1.189 0 00-.032.256v4.688zm5.508-5.792a3.65 3.65 0 011.44.272 3.05 3.05 0 011.104.72c.31.299.544.656.704 1.072.16.416.24.869.24 1.36 0 .523-.09 1.003-.272 1.44a3.318 3.318 0 01-.752 1.104c-.32.309-.698.549-1.136.72a3.876 3.876 0 01-1.424.256c-.544 0-1.029-.101-1.456-.304a3.302 3.302 0 01-1.088-.864 3.883 3.883 0 01-.688-1.28 5.285 5.285 0 01-.24-1.616c0-.331.016-.635.048-.912a6.26 6.26 0 01.176-.8c.086-.267.187-.523.304-.768.118-.245.256-.501.416-.768a5.104 5.104 0 011.68-1.664c.683-.405 1.376-.608 2.08-.608h2.032l-.624 1.024h-1.664c-.341 0-.682.064-1.024.192a3.29 3.29 0 00-.976.544 3.905 3.905 0 00-.8.864 4.388 4.388 0 00-.56 1.168c.288-.352.619-.629.992-.832.384-.213.88-.32 1.488-.32zm.096 6.4a2.452 2.452 0 001.04-.272 2.57 2.57 0 00.752-.64 2.75 2.75 0 00.448-.88c.107-.331.16-.667.16-1.008 0-.395-.064-.773-.192-1.136a2.999 2.999 0 00-.544-.976 2.761 2.761 0 00-.848-.672 2.238 2.238 0 00-1.072-.256c-.384 0-.725.085-1.024.256-.298.16-.549.373-.752.64a2.952 2.952 0 00-.464.912 3.767 3.767 0 00-.144 1.024c0 .341.059.693.176 1.056.128.352.304.672.528.96.235.288.512.528.832.72.331.181.699.272 1.104.272zm11.24-.608c0 .085.01.181.031.288.032.096.07.187.112.272a.86.86 0 00.16.224c.075.064.144.096.208.096v.16H92.92v-.16a.32.32 0 00.208-.08.86.86 0 00.16-.224 1.438 1.438 0 00.128-.576v-3.84l-3.808 3.728v.112c0 .085.011.181.032.288a1.168 1.168 0 00.24.496.29.29 0 00.208.096v.16h-2.032v-.16a.32.32 0 00.208-.08.86.86 0 00.16-.224 1.438 1.438 0 00.128-.576v-4.688c0-.075-.01-.16-.032-.256a1.168 1.168 0 00-.096-.272.637.637 0 00-.16-.208.29.29 0 00-.208-.096v-.16h2.032v.16a.307.307 0 00-.224.096.794.794 0 00-.144.208 2.006 2.006 0 00-.08.272 1.195 1.195 0 00-.032.256v3.824l3.808-3.728v-.096c0-.075-.01-.16-.032-.256a1.168 1.168 0 00-.096-.272.637.637 0 00-.16-.208.29.29 0 00-.208-.096v-.16h2.048v.16a.363.363 0 00-.24.096.637.637 0 00-.16.208 2.006 2.006 0 00-.08.272 1.195 1.195 0 00-.032.256v4.688zm5.46-5.792c.576 0 1.072.101 1.488.304.427.192.779.448 1.056.768.288.32.501.688.64 1.104a4.014 4.014 0 010 2.544 3.189 3.189 0 01-.608 1.12 3.001 3.001 0 01-1.008.8c-.405.203-.885.304-1.44.304-.33 0-.672-.085-1.024-.256a4.1 4.1 0 01-.928-.672v3.296c0 .085.01.176.032.272.021.107.053.203.096.288.053.085.107.16.16.224a.307.307 0 00.224.096v.16h-2.08v-.16a.29.29 0 00.208-.096.86.86 0 00.16-.224.85.85 0 00.112-.288 1.26 1.26 0 00.032-.272v-8.256c0-.096-.005-.187-.016-.272a.534.534 0 00-.048-.24.365.365 0 00-.16-.176.516.516 0 00-.288-.096v-.16h1.568v.704c.213-.256.47-.453.768-.592.31-.149.661-.224 1.056-.224zm.144 6.4c.373-.011.699-.096.976-.256s.507-.368.688-.624c.181-.256.315-.539.4-.848a3.85 3.85 0 00.128-.992c0-.384-.053-.763-.16-1.136a3.272 3.272 0 00-.464-.992 2.411 2.411 0 00-.752-.72 1.747 1.747 0 00-.992-.288 1.822 1.822 0 00-1.248.496c-.16.16-.293.352-.4.576a1.734 1.734 0 00-.144.72v2.096c0 .288.059.555.176.8.117.235.267.443.448.624.192.171.405.304.64.4.235.096.47.144.704.144zm9.786-.608c0 .085.011.181.032.288.022.096.054.192.096.288.054.085.107.16.16.224.064.053.139.08.224.08v.16h-2.08v-.16a.29.29 0 00.208-.096.844.844 0 00.16-.224.838.838 0 00.112-.272c.022-.107.032-.203.032-.288v-2.24c-.117.021-.25.085-.4.192a2.856 2.856 0 00-.464.384c-.16.149-.314.315-.464.496a9.373 9.373 0 00-.416.544c-.106.149-.197.272-.272.368a3.69 3.69 0 00-.192.272 11.43 11.43 0 01-.32.4 2.12 2.12 0 01-.368.32 1.432 1.432 0 01-.464.224c-.181.053-.394.08-.64.08h-.592v-.16a.753.753 0 00.384-.112c.139-.075.272-.165.4-.272.128-.117.246-.24.352-.368.118-.139.219-.267.304-.384l.496-.688c.182-.245.368-.485.56-.72.192-.245.411-.437.656-.576a3.696 3.696 0 01-1.024-.16 2.385 2.385 0 01-.752-.384 1.718 1.718 0 01-.464-.544 1.617 1.617 0 01-.144-.672c0-.224.048-.437.144-.64.107-.203.272-.379.496-.528a2.48 2.48 0 01.848-.368 4.854 4.854 0 011.264-.144h2.64v.16a.308.308 0 00-.224.096 1.223 1.223 0 00-.16.208 1.236 1.236 0 00-.128.528v4.688zm-3.84-4.096c0 .16.048.32.144.48.107.16.246.304.416.432.182.128.384.235.608.32.224.075.464.112.72.112h.896v-2.416h-1.04c-.64 0-1.093.101-1.36.304a.94.94 0 00-.384.768zm10.741 3.888a2.722 2.722 0 00.608.72c.138.107.277.197.416.272a.951.951 0 00.4.096v.16h-.608c-.491 0-.87-.101-1.136-.304a2.224 2.224 0 01-.624-.72l-.752-1.424c-.118-.224-.315-.416-.592-.576a1.652 1.652 0 00-.88-.256v2.272c0 .085.005.176.016.272.021.096.053.187.096.272.042.085.096.16.16.224a.34.34 0 00.224.08v.16h-2.064v-.16a.322.322 0 00.208-.08.731.731 0 00.176-.224 1.236 1.236 0 00.128-.544v-4.704c0-.075-.011-.16-.032-.256a1.188 1.188 0 00-.096-.288.487.487 0 00-.144-.208.326.326 0 00-.24-.096v-.16h2.048v.16a.29.29 0 00-.208.096.762.762 0 00-.144.208 1.108 1.108 0 00-.096.288 1.152 1.152 0 00-.032.256v1.648c.458-.405.912-.795 1.36-1.168.448-.384.901-.779 1.36-1.184 0-.011.005-.021.016-.032.01-.011.016-.021.016-.032 0-.053-.027-.08-.08-.08v-.16h1.392v.16a.498.498 0 00-.192.048c-.075.032-.15.069-.224.112a1.659 1.659 0 00-.256.16c-.48.405-.96.821-1.44 1.248-.48.416-.96.827-1.44 1.232.458 0 .832.085 1.12.256.298.171.549.443.752.816l.784 1.44zm5.074 1.36a3.844 3.844 0 01-1.44-.256 3.6 3.6 0 01-1.104-.72 3.428 3.428 0 01-.704-1.088 3.756 3.756 0 01-.24-1.36c0-.523.091-.997.272-1.424.182-.437.432-.811.752-1.12.32-.309.699-.549 1.136-.72a3.879 3.879 0 011.424-.256c.512 0 .982.085 1.408.256a3.097 3.097 0 011.824 1.76c.171.405.256.853.256 1.344 0 .459-.08.907-.24 1.344a3.172 3.172 0 01-.688 1.136 3.334 3.334 0 01-1.12.8c-.437.203-.949.304-1.536.304zm-.096-6.416a2.283 2.283 0 00-1.024.288c-.288.16-.533.373-.736.64a2.98 2.98 0 00-.448.88 3.601 3.601 0 00-.144 1.008c0 .395.059.779.176 1.152.128.363.304.688.528.976.235.288.512.517.832.688.32.171.678.256 1.072.256.395 0 .742-.085 1.04-.256.31-.171.566-.389.768-.656.203-.277.352-.587.448-.928.107-.341.16-.683.16-1.024 0-.352-.053-.704-.16-1.056a2.897 2.897 0 00-.496-.976 2.511 2.511 0 00-.848-.72c-.33-.181-.72-.272-1.168-.272zm10.535 1.184c0 .181-.037.352-.112.512-.074.16-.17.309-.288.448a2.008 2.008 0 01-.384.352 2.353 2.353 0 01-.432.224c.182.032.368.091.56.176.203.085.384.197.544.336.171.139.31.315.416.528.107.203.16.448.16.736 0 .149-.037.331-.112.544-.064.203-.186.4-.368.592-.17.181-.41.341-.72.48-.298.128-.688.192-1.168.192h-3.52v-.16c.086 0 .16-.032.224-.096a.844.844 0 00.16-.224.838.838 0 00.112-.272c.022-.107.032-.203.032-.288v-4.672a1.22 1.22 0 00-.144-.544c-.085-.203-.213-.304-.384-.304v-.16h3.264c.384 0 .71.053.976.16.278.096.502.224.672.384.182.149.31.32.384.512.086.181.128.363.128.544zm-3.856 1.328h1.232c.31 0 .566-.032.768-.096.214-.075.384-.171.512-.288a.99.99 0 00.272-.4c.064-.149.096-.304.096-.464a.841.841 0 00-.112-.4 1.078 1.078 0 00-.336-.368 1.69 1.69 0 00-.512-.288 1.97 1.97 0 00-.688-.112h-1.232v2.416zm1.568 3.28c.128 0 .288-.011.48-.032.203-.032.395-.091.576-.176.192-.096.352-.229.48-.4.139-.181.208-.416.208-.704 0-.309-.09-.56-.272-.752a1.736 1.736 0 00-.64-.432 2.51 2.51 0 00-.736-.208 5.126 5.126 0 00-.592-.048h-1.072v2.752h1.568zm3.889-2.784v-.8h3.632v.8h-3.632zm7.246 3.136h.08v.16h-2.304v-.16h.08c.085 0 .16-.027.224-.08a.868.868 0 00.16-.224.86.86 0 00.112-.272 1.28 1.28 0 00.032-.272v-8.56c0-.075-.011-.16-.032-.256a.86.86 0 00-.112-.272.64.64 0 00-.16-.208.308.308 0 00-.224-.096h-.08v-.16h6.16v1.696h-.16c0-.384-.085-.667-.256-.848-.16-.192-.416-.288-.768-.288h-3.28v8.992a1.28 1.28 0 00.128.544c.053.085.112.16.176.224.064.053.139.08.224.08zm8.934-4.96c0 .181-.037.352-.112.512-.074.16-.17.309-.288.448a2.008 2.008 0 01-.384.352 2.353 2.353 0 01-.432.224c.182.032.368.091.56.176.203.085.384.197.544.336.171.139.31.315.416.528.107.203.16.448.16.736 0 .149-.037.331-.112.544-.064.203-.186.4-.368.592-.17.181-.41.341-.72.48-.298.128-.688.192-1.168.192h-3.52v-.16c.086 0 .16-.032.224-.096a.844.844 0 00.16-.224.838.838 0 00.112-.272c.022-.107.032-.203.032-.288v-4.672a1.22 1.22 0 00-.144-.544c-.085-.203-.213-.304-.384-.304v-.16h3.264c.384 0 .71.053.976.16.278.096.502.224.672.384.182.149.31.32.384.512.086.181.128.363.128.544zm-3.856 1.328h1.232c.31 0 .566-.032.768-.096.214-.075.384-.171.512-.288a.99.99 0 00.272-.4c.064-.149.096-.304.096-.464a.841.841 0 00-.112-.4 1.078 1.078 0 00-.336-.368 1.69 1.69 0 00-.512-.288 1.97 1.97 0 00-.688-.112h-1.232v2.416zm1.568 3.28c.128 0 .288-.011.48-.032.203-.032.395-.091.576-.176.192-.096.352-.229.48-.4.139-.181.208-.416.208-.704 0-.309-.09-.56-.272-.752a1.736 1.736 0 00-.64-.432 2.51 2.51 0 00-.736-.208 5.126 5.126 0 00-.592-.048h-1.072v2.752h1.568zm8.37.512v-.816l-.08.08a2.895 2.895 0 01-.928.624c-.342.149-.758.224-1.248.224-.374 0-.694-.043-.96-.128a1.82 1.82 0 01-.656-.352 1.572 1.572 0 01-.384-.544 1.83 1.83 0 01-.112-.64c0-.363.096-.683.288-.96.202-.277.49-.523.864-.736a7.153 7.153 0 011.36-.576 24.434 24.434 0 011.856-.528c-.022-.416-.107-.752-.256-1.008a1.815 1.815 0 00-.528-.592 1.578 1.578 0 00-.64-.288 2.567 2.567 0 00-.576-.08c-.278 0-.523.043-.736.128-.214.075-.4.181-.56.32-.16.128-.294.277-.4.448a2.649 2.649 0 00-.224.512h-.144v-1.248a.773.773 0 00.336-.096c.128-.075.277-.155.448-.24.181-.085.394-.16.64-.224.256-.075.56-.112.912-.112.586 0 1.061.075 1.424.224.362.149.64.347.832.592.202.245.336.528.4.848.064.309.096.629.096.96v3.168c0 .213.053.416.16.608.106.181.25.272.432.272v.16h-1.616zm0-1.52v-2.288l-.16.032a29.05 29.05 0 00-.944.256c-.363.107-.71.245-1.04.416a3.361 3.361 0 00-.848.608 1.12 1.12 0 00-.352.816c0 .341.138.624.416.848.277.224.64.336 1.088.336.352 0 .661-.075.928-.224.266-.16.512-.363.736-.608l.176-.192zm6.496-5.312c.576 0 1.072.101 1.488.304.427.192.779.448 1.056.768.288.32.502.688.64 1.104a4.014 4.014 0 010 2.544c-.128.416-.33.789-.608 1.12a2.982 2.982 0 01-1.008.8c-.405.203-.885.304-1.44.304-.33 0-.672-.085-1.024-.256a4.125 4.125 0 01-.928-.672v3.296c0 .085.011.176.032.272.022.107.054.203.096.288.054.085.107.16.16.224a.308.308 0 00.224.096v.16h-2.08v-.16a.29.29 0 00.208-.096.844.844 0 00.16-.224.829.829 0 00.112-.288c.022-.096.032-.187.032-.272v-8.256c0-.096-.005-.187-.016-.272a.534.534 0 00-.048-.24.363.363 0 00-.16-.176.516.516 0 00-.288-.096v-.16h1.568v.704c.214-.256.47-.453.768-.592.31-.149.662-.224 1.056-.224zm.144 6.4a2.04 2.04 0 00.976-.256c.278-.16.507-.368.688-.624.182-.256.315-.539.4-.848.086-.32.128-.651.128-.992 0-.384-.053-.763-.16-1.136a3.249 3.249 0 00-.464-.992 2.4 2.4 0 00-.752-.72 1.745 1.745 0 00-.992-.288c-.224 0-.448.043-.672.128a1.83 1.83 0 00-.576.368c-.16.16-.293.352-.4.576a1.734 1.734 0 00-.144.72v2.096c0 .288.059.555.176.8.118.235.267.443.448.624.192.171.406.304.64.4.235.096.47.144.704.144zm11.803-.096v1.968h-.16a3.599 3.599 0 00-.112-.448 2.085 2.085 0 00-.224-.464 1.535 1.535 0 00-.352-.384.727.727 0 00-.448-.144h-5.088a.794.794 0 00-.464.144 1.793 1.793 0 00-.368.384 2.723 2.723 0 00-.24.464 2.05 2.05 0 00-.096.448h-.16v-1.968h.608a.247.247 0 00.176-.08 1.02 1.02 0 00.176-.192c.064-.075.122-.155.176-.24l.144-.256c.16-.363.352-.795.576-1.296.234-.501.469-1.019.704-1.552.245-.533.48-1.051.704-1.552l.576-1.312 2.704 5.904c.085.181.165.325.24.432a.364.364 0 00.304.144h.624zm-6.224 0h4.16l-2.08-4.56-2.08 4.56zm8.046-2.704c.043.373.133.731.272 1.072.139.331.32.624.544.88.235.256.517.464.848.624.331.149.715.224 1.152.224.235 0 .48-.032.736-.096.267-.075.512-.176.736-.304.224-.128.421-.283.592-.464.181-.192.304-.405.368-.64h.144v1.2a.51.51 0 00-.224.064l-.272.16a6.566 6.566 0 01-.864.416c-.363.139-.843.208-1.44.208-.48 0-.939-.069-1.376-.208a3.236 3.236 0 01-1.136-.64 3.171 3.171 0 01-.8-1.104c-.192-.448-.288-.981-.288-1.6 0-.395.064-.795.192-1.2.139-.405.341-.768.608-1.088a3.072 3.072 0 011.056-.8c.427-.203.939-.304 1.536-.304.533 0 .997.091 1.392.272.405.181.736.432.992.752.267.32.464.699.592 1.136.128.437.192.917.192 1.44h-5.552zm2.32-3.072c-.373 0-.699.075-.976.224a2.374 2.374 0 00-.688.576 2.677 2.677 0 00-.448.8 3.873 3.873 0 00-.208.896h4.56a3.009 3.009 0 00-.176-.912 2.602 2.602 0 00-.416-.8 1.967 1.967 0 00-.688-.56 1.996 1.996 0 00-.96-.224zm10.982 5.264c0 .085.01.181.032.288.032.096.069.187.112.272.042.085.096.16.16.224.074.064.144.096.208.096v.16h-2.048v-.16a.322.322 0 00.208-.08.868.868 0 00.16-.224c.042-.096.074-.192.096-.288.021-.107.032-.203.032-.288v-3.84l-3.808 3.728v.112c0 .085.01.181.032.288.021.096.053.187.096.272.042.085.09.16.144.224a.29.29 0 00.208.096v.16h-2.032v-.16a.322.322 0 00.208-.08.868.868 0 00.16-.224c.042-.096.074-.192.096-.288.021-.107.032-.203.032-.288v-4.688a1.236 1.236 0 00-.128-.528.64.64 0 00-.16-.208.292.292 0 00-.208-.096v-.16h2.032v.16a.306.306 0 00-.224.096.762.762 0 00-.144.208 1.964 1.964 0 00-.08.272 1.152 1.152 0 00-.032.256v3.824l3.808-3.728v-.096a1.236 1.236 0 00-.128-.528.64.64 0 00-.16-.208.292.292 0 00-.208-.096v-.16h2.048v.16a.36.36 0 00-.24.096.627.627 0 00-.16.208 1.964 1.964 0 00-.08.272 1.152 1.152 0 00-.032.256v4.688zm-1.232-7.84c0 .171-.043.357-.128.56a1.98 1.98 0 01-.368.544c-.16.16-.352.293-.576.4-.214.107-.454.16-.72.16-.246 0-.48-.048-.704-.144-.214-.107-.4-.24-.56-.4a2.026 2.026 0 01-.384-.528 1.38 1.38 0 01-.144-.592h.096c.01.064.042.155.096.272.064.107.16.219.288.336.128.117.293.219.496.304.213.085.48.128.8.128.33 0 .602-.043.816-.128.213-.085.384-.187.512-.304.128-.117.218-.229.272-.336a3.32 3.32 0 00.112-.272h.096zm10.548 8.352v1.936h-.16a1.06 1.06 0 00-.112-.448 1.858 1.858 0 00-.272-.464 1.645 1.645 0 00-.416-.352.87.87 0 00-.48-.144h-5.808v-.16a.262.262 0 00.192-.08.844.844 0 00.16-.224 1.475 1.475 0 00.128-.528v-4.688c0-.075-.01-.165-.032-.272a1.108 1.108 0 00-.064-.288.625.625 0 00-.144-.224.326.326 0 00-.24-.096v-.16h2.032v.16a.326.326 0 00-.24.096.747.747 0 00-.144.224 1.188 1.188 0 00-.096.288 2.65 2.65 0 00-.016.272v5.152h3.488v-5.152c0-.075-.01-.165-.032-.272a.844.844 0 00-.24-.512.275.275 0 00-.224-.096v-.16h2.032v.16a.326.326 0 00-.24.096.747.747 0 00-.144.224 1.917 1.917 0 00-.08.288 2.65 2.65 0 00-.016.272v4.272c0 .213.043.416.128.608.096.181.272.272.528.272h.512zm1.82-2.704c.042.373.133.731.272 1.072.138.331.32.624.544.88.234.256.517.464.848.624.33.149.714.224 1.152.224.234 0 .48-.032.736-.096.266-.075.512-.176.736-.304.224-.128.421-.283.592-.464.181-.192.304-.405.368-.64h.144v1.2a.51.51 0 00-.224.064 13.82 13.82 0 00-.272.16 6.693 6.693 0 01-.864.416c-.363.139-.843.208-1.44.208-.48 0-.939-.069-1.376-.208a3.227 3.227 0 01-1.136-.64 3.158 3.158 0 01-.8-1.104c-.192-.448-.288-.981-.288-1.6 0-.395.064-.795.192-1.2a3.39 3.39 0 01.608-1.088 3.072 3.072 0 011.056-.8c.426-.203.938-.304 1.536-.304.533 0 .997.091 1.392.272.405.181.736.432.992.752.266.32.464.699.592 1.136.128.437.192.917.192 1.44h-5.552zm2.32-3.072a2.03 2.03 0 00-.976.224 2.374 2.374 0 00-.688.576 2.656 2.656 0 00-.448.8 3.873 3.873 0 00-.208.896h4.56a3.04 3.04 0 00-.176-.912 2.602 2.602 0 00-.416-.8 1.976 1.976 0 00-.688-.56 2.001 2.001 0 00-.96-.224zm9.989 1.184c0 .181-.037.352-.112.512-.074.16-.17.309-.288.448a2.008 2.008 0 01-.384.352 2.353 2.353 0 01-.432.224c.182.032.368.091.56.176.203.085.384.197.544.336.171.139.31.315.416.528.107.203.16.448.16.736 0 .149-.037.331-.112.544-.064.203-.186.4-.368.592-.17.181-.41.341-.72.48-.298.128-.688.192-1.168.192h-3.52v-.16c.086 0 .16-.032.224-.096a.844.844 0 00.16-.224.838.838 0 00.112-.272c.022-.107.032-.203.032-.288v-4.672a1.22 1.22 0 00-.144-.544c-.085-.203-.213-.304-.384-.304v-.16h3.264c.384 0 .71.053.976.16.278.096.502.224.672.384.182.149.31.32.384.512.086.181.128.363.128.544zm-3.856 1.328h1.232c.31 0 .566-.032.768-.096.214-.075.384-.171.512-.288a.99.99 0 00.272-.4c.064-.149.096-.304.096-.464a.841.841 0 00-.112-.4 1.078 1.078 0 00-.336-.368 1.69 1.69 0 00-.512-.288 1.97 1.97 0 00-.688-.112h-1.232v2.416zm1.568 3.28c.128 0 .288-.011.48-.032.203-.032.395-.091.576-.176.192-.096.352-.229.48-.4.139-.181.208-.416.208-.704 0-.309-.09-.56-.272-.752a1.736 1.736 0 00-.64-.432 2.51 2.51 0 00-.736-.208 5.126 5.126 0 00-.592-.048h-1.072v2.752h1.568z" fill="#fff"/><defs><linearGradient id="paint0_linear" x1="88.611" y1="20.192" x2="88.611" y2="133.08" gradientUnits="userSpaceOnUse"><stop stop-color="#fff"/><stop offset="1" stop-color="#fff" stop-opacity="0"/></linearGradient><linearGradient id="paint1_linear" x1="811.833" y1="519.931" x2="811.833" y2="659.435" gradientUnits="userSpaceOnUse"><stop stop-color="#fff"/><stop offset="1" stop-color="#fff" stop-opacity="0"/></linearGradient><linearGradient id="paint2_linear" x1="698.026" y1="0" x2="698.026" y2="139.505" gradientUnits="userSpaceOnUse"><stop stop-color="#fff"/><stop offset="1" stop-color="#fff" stop-opacity="0"/></linearGradient></defs></svg>