<svg width="264" height="271" fill="none" xmlns="http://www.w3.org/2000/svg"><g clip-path="url(#clip0)"><path d="M170.475 249.681h-16.812v14.447h16.812v-14.447zM201.859 249.681h-16.812v14.447h16.812v-14.447z" stroke="#000" stroke-width=".567" stroke-miterlimit="22.926"/><path clip-rule="evenodd" d="M149.284 25.61a4.983 4.983 0 002.226 3.036c1.11.681 2.442.9 3.711.608a4.804 4.804 0 002.998-2.21 4.822 4.822 0 00.524-3.691 4.983 4.983 0 00-2.226-3.036 4.964 4.964 0 00-3.71-.608 4.795 4.795 0 00-3 2.209 4.82 4.82 0 00-.523 3.692v0zM161.803 10.113a3.037 3.037 0 00-1.358-1.848 3.027 3.027 0 00-2.26-.369 2.92 2.92 0 00-1.824 1.347 2.936 2.936 0 00-.317 2.249 3.031 3.031 0 003.616 2.22 2.925 2.925 0 001.827-1.348 2.942 2.942 0 00.316-2.252z" stroke="#2B2A29" stroke-width=".567" stroke-miterlimit="22.926"/><path d="M201.86 249.681h-48.197v14.598h48.197v-14.598zM235.877 249.681h-26.732v14.598h26.732v-14.598z" stroke="#2B2A29" stroke-width=".567" stroke-miterlimit="22.926"/><path clip-rule="evenodd" d="M58.22 135.744l-.068-.988.356-12.36c-1.302-.846-4.939-.58-10.904.424a11.22 11.22 0 00.014 12.13c4.902 1.739 7.861 2.004 10.601.794zM82.764 136.249l.066-.987-.356-12.36c1.302-.847 4.94-.581 10.904.424a11.214 11.214 0 01-.012 12.129c-4.903 1.739-7.86 2.004-10.602.794zM90.394 95.869H37.61v20.615l2.094-.009H88.343l2.05-.004V95.869z" stroke="#2B2A29" stroke-width=".567" stroke-miterlimit="22.926"/><path d="M94.355 32.209H7.078v10.939h87.277v-10.94z" fill="gray" stroke="gray" stroke-width=".567" stroke-miterlimit="22.926"/><path d="M113.989 32.209H94.411v10.946h19.578V32.208zM128.899 32.724h-14.91v10.43h14.91v-10.43z" stroke="#000" stroke-width=".567" stroke-miterlimit="22.926"/><path d="M171.276 237.456v-3.38a3.03 3.03 0 01-1.269.724.394.394 0 01-.151-.033.402.402 0 01-.125-.091.405.405 0 01-.121-.289.323.323 0 01.119-.278 2.59 2.59 0 01.419-.231c.259-.115.5-.265.718-.445.178-.156.338-.331.477-.524.084-.123.174-.243.271-.357a.33.33 0 01.236-.067.37.37 0 01.176.038.378.378 0 01.14.114.67.67 0 01.118.421v4.253c0 .498-.169.747-.508.747a.457.457 0 01-.363-.153.648.648 0 01-.137-.449zM177.161 233.436H175.4l-.212 1.202c.296-.173.63-.27.972-.283.229-.002.456.044.666.133.414.177.741.511.91.929.09.221.135.457.134.695.004.343-.079.68-.241.981a1.789 1.789 0 01-.696.703c-.32.176-.682.265-1.048.257a2.094 2.094 0 01-1.077-.245 1.526 1.526 0 01-.586-.564 1.207 1.207 0 01-.171-.555.403.403 0 01.121-.275.39.39 0 01.302-.129.494.494 0 01.464.36c.086.204.224.382.4.515a.931.931 0 00.564.184.86.86 0 00.501-.148.965.965 0 00.331-.409c.081-.186.121-.388.117-.591a1.349 1.349 0 00-.126-.609.877.877 0 00-.338-.378.91.91 0 00-.47-.124.982.982 0 00-.457.078 4.406 4.406 0 00-.395.273.77.77 0 01-.428.196.459.459 0 01-.323-.132.393.393 0 01-.14-.3c0-.012.012-.096.04-.252l.312-1.78a.848.848 0 01.192-.464.627.627 0 01.461-.145h1.957c.386 0 .579.148.579.442a.385.385 0 01-.141.312.63.63 0 01-.413.123zM179.368 238.065a.636.636 0 01-.423-.15.506.506 0 01-.137-.19.509.509 0 01-.04-.231.514.514 0 01.171-.394.59.59 0 01.412-.16.567.567 0 01.322.097c.102.07.181.169.226.284.061.147.09.304.086.463a1.55 1.55 0 01-.157.686 1.508 1.508 0 01-.379.509.666.666 0 01-.406.187.25.25 0 01-.257-.252.28.28 0 01.041-.144.281.281 0 01.11-.101.703.703 0 00.431-.604zM184.052 233.436h-1.762l-.211 1.202a2.08 2.08 0 01.972-.283 1.67 1.67 0 01.665.133c.414.177.742.511.911.929.09.221.135.457.133.695.004.343-.079.68-.241.981a1.777 1.777 0 01-.695.702c-.32.177-.682.266-1.048.258a2.094 2.094 0 01-1.077-.245 1.512 1.512 0 01-.586-.564 1.2 1.2 0 01-.172-.555.404.404 0 01.12-.275.39.39 0 01.303-.129.493.493 0 01.463.36c.086.204.225.382.401.515a.931.931 0 00.564.184.856.856 0 00.5-.148.985.985 0 00.333-.409c.08-.186.119-.388.116-.591a1.349 1.349 0 00-.126-.609.88.88 0 00-.337-.378.918.918 0 00-.472-.124.972.972 0 00-.455.078 4.137 4.137 0 00-.395.273.785.785 0 01-.429.196.46.46 0 01-.322-.133.377.377 0 01-.103-.134.41.41 0 01-.038-.165c0-.012.013-.096.041-.252l.311-1.78a.85.85 0 01.193-.464.614.614 0 01.46-.145h1.965c.386 0 .578.147.578.442a.385.385 0 01-.141.312.625.625 0 01-.419.123zM187.709 237.496v-.691h-1.862a.76.76 0 01-.529-.16.55.55 0 01-.175-.435c0-.048.008-.097.026-.142a.665.665 0 01.077-.153c.035-.053.071-.105.108-.155.036-.049.085-.109.137-.181l1.965-2.635a3.25 3.25 0 01.317-.376.42.42 0 01.299-.117c.375 0 .563.215.564.646v2.875h.159c.157-.006.313.021.459.079a.333.333 0 01.171.343.351.351 0 01-.141.314.737.737 0 01-.423.099h-.226v.691a.62.62 0 01-.126.429.441.441 0 01-.338.139.426.426 0 01-.335-.143.61.61 0 01-.127-.427zm-1.595-1.524h1.595v-2.158l-1.595 2.158z" fill="#333"/><path d="M10.653 115.43H.243v17.223h10.41V115.43z" fill="gray" stroke="gray" stroke-width=".567" stroke-miterlimit="22.926"/><path d="M10.863 58.081H7.078v40.043h3.785V58.082zM17.488 58.081h-4.626v40.043h4.626V58.082z" stroke="#000" stroke-width=".216" stroke-miterlimit="22.926"/><path d="M12.862 58.081h-2.63v40.043h2.63V58.082z" fill="#333" stroke="#333" stroke-width=".216" stroke-miterlimit="22.926"/><path d="M17.487 98.124H7.077v27.524h10.41V98.124z" fill="gray" stroke="gray" stroke-width=".567" stroke-miterlimit="22.926"/><path d="M4.028 132.653H.242v34.395h3.786v-34.395zM10.653 132.653H6.027v34.395h4.626v-34.395z" stroke="#000" stroke-width=".216" stroke-miterlimit="22.926"/><path d="M6.027 132.653h-2.63v34.395h2.63v-34.395z" fill="#333" stroke="#333" stroke-width=".216" stroke-miterlimit="22.926"/><path d="M10.653 167.048H.243v23.517h10.41v-23.517zM263.757 43.148h-10.409v30.514h10.409V43.148zM122.866 116.484H17.29v2.844h105.576v-2.844zM150.613 43.148h-2.84v61.643h2.84V43.148zM150.613 119.685h-2.84v22.607h2.84v-22.607z" fill="gray" stroke="gray" stroke-width=".567" stroke-miterlimit="22.926"/><path fill-rule="evenodd" clip-rule="evenodd" d="M125.622 106.883l17.721 9.282.053 1.427-18.46-9.326.686-1.383z" fill="gray" stroke="#000" stroke-width=".567" stroke-miterlimit="22.926"/><path d="M124.936 108.266a19.44 19.44 0 00-2.056 9.692M124.25 117.85h-1.377v1.267h1.377v-1.267zM143.343 117.853h-.671v1.264h.671v-1.264z" stroke="#000" stroke-width=".567" stroke-miterlimit="22.926"/><path d="M122.735 119.685h-2.839v10.005h2.839v-10.005zM122.735 151.246h-2.839v32.656h2.839v-32.656z" fill="gray" stroke="gray" stroke-width=".567" stroke-miterlimit="22.926"/><path fill-rule="evenodd" clip-rule="evenodd" d="M109.67 148.067l9.892-17.966 1.522-.054-9.94 18.716-1.474-.696z" fill="gray" stroke="#000" stroke-width=".567" stroke-miterlimit="22.926"/><path d="M111.145 148.763a21.604 21.604 0 0010.328 2.088M122.707 149.459h-1.349v1.396h1.349v-1.396zM122.708 130.102h-1.347v.679h1.347v-.679z" stroke="#000" stroke-width=".567" stroke-miterlimit="22.926"/><path d="M143.121 183.903H17.291v6.662h125.83v-6.662z" fill="gray" stroke="gray" stroke-width=".567" stroke-miterlimit="22.926"/><path fill-rule="evenodd" clip-rule="evenodd" d="M88.361 174.211v9.692h19.001l.01-9.692-.84-.007-2.114 3.386.045 5.432-6.848.124v-5.564h-2.944v3.371h-3.365v-3.371h13.109l2.117-3.378-18.17.007zM150.112 183.903l.135 15.41.575 66.125h2.84v-81.535h-3.55z" fill="gray" stroke="gray" stroke-width=".567" stroke-miterlimit="22.926"/><path d="M150.507 199.178h-2.944v66.26h2.944v-66.26z" fill="gray" stroke="gray" stroke-width=".567" stroke-miterlimit="22.926"/><path d="M153.663 264.793h-6.1v5.964h6.1v-5.964zM241.781 264.279h-88.118v6.478h88.118v-6.478z" fill="gray" stroke="gray" stroke-width=".567" stroke-miterlimit="22.926"/><path d="M241.83 249.426h-5.953v17.885h5.953v-17.885z" fill="gray" stroke="gray" stroke-width=".567" stroke-miterlimit="22.926"/><path fill-rule="evenodd" clip-rule="evenodd" d="M251.836 245.657l-10.446-21.28-1.607-.063 10.496 22.168 1.557-.825z" fill="gray" stroke="#000" stroke-width=".567" stroke-miterlimit="22.926"/><path d="M250.279 246.481a20.73 20.73 0 01-10.907 2.473M239.495 247.306h-1.426v1.653h1.426v-1.653zM239.491 224.377h-1.422v.806h1.422v-.806z" stroke="#000" stroke-width=".567" stroke-miterlimit="22.926"/><path d="M204.832 205.604h-3.009v18.223h3.009v-18.223zM228.005 220.845h-22.66v3.015h22.66v-3.015z" fill="gray" stroke="gray" stroke-width=".567" stroke-miterlimit="22.926"/><path fill-rule="evenodd" clip-rule="evenodd" d="M221.782 211.474v9.591l6.279.003.03 2.759h12.746l-.055-12.353h-.635l-2.311 2.956.048 4.77-6.848.108v-4.878h-2.945v2.956h-3.365v-2.956h13.11l2.311-2.956H221.782z" fill="gray" stroke="gray" stroke-width=".567" stroke-miterlimit="22.926"/><path d="M253.348 217.718h-12.935v6.143h12.935v-6.143z" fill="gray" stroke="gray" stroke-width=".567" stroke-miterlimit="22.926"/><path fill-rule="evenodd" clip-rule="evenodd" d="M193.515 188.913l8.139 16.223 1.25.048-8.177-16.899-1.212.628z" fill="gray" stroke="#000" stroke-width=".567" stroke-miterlimit="22.926"/><path d="M194.728 188.285a16.45 16.45 0 018.497-1.888M204.24 186.397h-1.11v1.26h1.11v-1.26zM204.241 204.522h-1.109v.614h1.109v-.614z" stroke="#000" stroke-width=".567" stroke-miterlimit="22.926"/><path d="M204.832 179.794h-3.009v6.11h3.009v-6.11z" fill="gray" stroke="gray" stroke-width=".567" stroke-miterlimit="22.926"/><path d="M253.452 179.794h-48.79v3.015h48.79v-3.015z" fill="gray" stroke="gray" stroke-width=".567" stroke-miterlimit="22.926"/><path fill-rule="evenodd" clip-rule="evenodd" d="M193.515 162.941l8.139 16.511 1.25.049-8.177-17.2-1.212.64z" fill="gray" stroke="#000" stroke-width=".567" stroke-miterlimit="22.926"/><path d="M194.728 162.301a16.208 16.208 0 018.497-1.919M204.24 160.379h-1.11v1.282h1.11v-1.282zM204.241 178.828h-1.109v.624h1.109v-.624z" stroke="#000" stroke-width=".567" stroke-miterlimit="22.926"/><path d="M204.832 140.291h-3.009v19.699h3.009v-19.699zM253.349 140.25h-48.517v3.016h48.517v-3.016zM160.812 139.448h-10.989v2.844h10.989v-2.844z" fill="gray" stroke="gray" stroke-width=".567" stroke-miterlimit="22.926"/><path d="M191.151 140.305h-1.255v1.555h1.255v-1.555z" stroke="#000" stroke-width=".567" stroke-miterlimit="22.926"/><path fill-rule="evenodd" clip-rule="evenodd" d="M191.151 143.092l-6.356 3.379-.643-1.054 6.371-3.557.628 1.232z" fill="gray" stroke="#000" stroke-width=".567" stroke-miterlimit="22.926"/><path d="M183.467 142.892a6.984 6.984 0 00.948 3.614M183.83 142.856c.453 2.318-1.098 9.455-2.197 9.514" stroke="#000" stroke-width=".567" stroke-miterlimit="22.926"/><path fill-rule="evenodd" clip-rule="evenodd" d="M161.323 142.994l19.721 10.639.549-1.052-19.735-10.641-.535 1.054z" fill="gray" stroke="#000" stroke-width=".567" stroke-miterlimit="22.926"/><path d="M162.637 140.438h-1.479v1.453h1.479v-1.453z" stroke="#000" stroke-width=".567" stroke-miterlimit="22.926"/><path d="M260.992 71.185h-7.939v151.91h7.939V71.185zM17.487 32.209H7.077V58.08h10.41V32.209z" fill="gray" stroke="gray" stroke-width=".567" stroke-miterlimit="22.926"/><path clip-rule="evenodd" d="M23.365 31.98h-2.05V2.6h146.192v29.608h-2.051V4.688H23.365V31.98z" stroke="#000" stroke-width=".216" stroke-miterlimit="22.926"/><path d="M169.458.093H19.253V2.6h150.205V.093z" fill="#333" stroke="#333" stroke-width=".216" stroke-miterlimit="22.926"/><path d="M169.457.093h-2.061v32.115h2.061V.093zM21.315.093h-2.062V31.98h2.062V.093z" fill="#333" stroke="#333" stroke-width=".216" stroke-miterlimit="22.926"/><path d="M115.223 36.517h-1.234v2.844h1.234v-2.844zM128.049 37.36H115.55v1.159h12.499v-1.16zM128.899 36.517h-.85v2.844h.85v-2.844z" stroke="#000" stroke-width=".567" stroke-miterlimit="22.926"/><path d="M177.314 32.209h-47.943v10.939h47.943v-10.94z" fill="gray" stroke="gray" stroke-width=".567" stroke-miterlimit="22.926"/><path d="M217.897 32.209h-40.224V36h40.224V32.21zM217.897 38.003h-40.224v4.635h40.224v-4.635z" stroke="#000" stroke-width=".216" stroke-miterlimit="22.926"/><path d="M217.897 35.369h-40.224v2.633h40.224v-2.633z" stroke="#333" stroke-width=".216" stroke-miterlimit="22.926"/><path d="M263.758 32.209h-45.426v10.939h45.426v-10.94zM201.822 139.863h-10.358v2.429h10.358v-2.429z" fill="gray" stroke="gray" stroke-width=".567" stroke-miterlimit="22.926"/><path d="M149.836 183.731h-6.44v14.985h6.44v-14.985zM87.27 36.696H72.313v6.452h14.959v-6.452zM17.29 37.041h-6.44v14.986h6.44V37.04zM258.618 36.356h-6.441v14.986h6.441V36.356zM154.479 36.356h-14.958v6.452h14.958v-6.452zM149.836 104.566h-6.44v14.985h6.44v-14.985zM17.29 103.526h-6.44v17.066h6.44v-17.066zM17.29 182.638h-6.44v7.927h6.44v-7.927z" fill="#CCC" stroke="#CCC" stroke-width=".567" stroke-miterlimit="22.926"/><path d="M103.906 77.374v-3.381c-.358.341-.793.59-1.268.724a.374.374 0 01-.277-.124.41.41 0 01-.12-.288.325.325 0 01.118-.279c.133-.089.273-.166.419-.23.258-.115.5-.265.718-.445.179-.156.339-.332.477-.525.138-.193.229-.311.27-.356a.324.324 0 01.238-.067.384.384 0 01.315.152c.085.123.127.27.118.42v4.254c0 .498-.169.747-.507.747a.467.467 0 01-.364-.153.65.65 0 01-.137-.45zM107.652 74.937c.149-.186.336-.338.549-.447.207-.098.434-.148.664-.144.224-.002.445.043.651.132.198.088.376.216.522.376.152.166.27.361.347.573.082.221.123.455.122.69.004.334-.078.662-.239.953-.156.28-.387.512-.667.667a1.954 1.954 0 01-.97.24 1.791 1.791 0 01-1.768-1.206 3.943 3.943 0 01-.239-1.46 5.011 5.011 0 01.145-1.256c.079-.33.22-.64.416-.917a1.76 1.76 0 01.656-.55c.275-.128.576-.191.879-.186.289-.006.576.058.836.186.218.104.406.263.545.46a.954.954 0 01.183.528.394.394 0 01-.114.277.386.386 0 01-.293.124.475.475 0 01-.289-.098.552.552 0 01-.196-.273.788.788 0 00-.271-.358.71.71 0 00-.429-.137.758.758 0 00-.39.114 1.014 1.014 0 00-.329.307 2.87 2.87 0 00-.321 1.405zm1.001 2.311a.758.758 0 00.62-.306 1.26 1.26 0 00.244-.804c.005-.2-.034-.4-.115-.582a.858.858 0 00-.315-.371.8.8 0 00-.442-.129.853.853 0 00-.439.123.909.909 0 00-.339.353 1.11 1.11 0 00-.128.545c-.012.3.079.594.257.835a.796.796 0 00.657.336zM111.998 77.983a.634.634 0 01-.423-.15.53.53 0 01-.178-.421.516.516 0 01.172-.394.585.585 0 01.411-.16.57.57 0 01.323.096c.101.07.18.17.226.284.059.147.086.305.081.464.002.237-.051.472-.156.686a1.513 1.513 0 01-.379.51.668.668 0 01-.406.187.246.246 0 01-.188-.076.254.254 0 01-.073-.177.281.281 0 01.153-.244.699.699 0 00.437-.605zM114.861 77.006h1.936a.704.704 0 01.442.12.385.385 0 01.151.323.44.44 0 01-.12.308.483.483 0 01-.365.125h-2.73a.589.589 0 01-.434-.153.501.501 0 01-.156-.362.94.94 0 01.101-.356c.054-.125.128-.24.218-.343.329-.343.626-.636.89-.879.179-.172.368-.333.568-.48.183-.127.352-.273.506-.434a1.72 1.72 0 00.307-.445c.068-.14.105-.293.107-.449a.809.809 0 00-.113-.429.779.779 0 00-.309-.292.881.881 0 00-.428-.103.864.864 0 00-.764.429c-.051.097-.092.2-.125.304-.043.138-.11.268-.196.383a.389.389 0 01-.32.134.415.415 0 01-.404-.277.441.441 0 01-.027-.18c.003-.184.042-.366.115-.535.079-.19.196-.361.342-.505.166-.16.363-.285.579-.366a2.22 2.22 0 01.821-.14c.332-.008.661.052.967.18.173.077.328.188.457.326.266.284.415.658.416 1.047.003.295-.076.586-.228.838a2.606 2.606 0 01-.466.59c-.158.143-.423.367-.795.672a5.918 5.918 0 00-.766.71 1.996 1.996 0 00-.177.24zM120.773 75.446a1.68 1.68 0 01-.547.436c-.209.1-.438.15-.67.147a1.563 1.563 0 01-1.174-.515 1.694 1.694 0 01-.342-.57 2.023 2.023 0 01.014-1.407c.085-.225.215-.429.382-.6.169-.17.37-.305.592-.395.241-.096.499-.144.759-.14.294-.007.587.051.856.171.249.115.465.29.631.507.184.251.318.536.393.838.096.374.142.758.137 1.144.008.425-.04.85-.143 1.263-.08.328-.223.638-.42.913a1.74 1.74 0 01-.662.55 2.048 2.048 0 01-.875.18 1.799 1.799 0 01-.838-.183 1.427 1.427 0 01-.542-.458.933.933 0 01-.186-.525.403.403 0 01.115-.279.39.39 0 01.294-.123.5.5 0 01.292.091.546.546 0 01.197.274.742.742 0 00.699.494.802.802 0 00.401-.108c.13-.075.24-.18.323-.304.219-.434.327-.915.314-1.401zm-.086-1.137a1.533 1.533 0 00-.068-.466 1.174 1.174 0 00-.194-.37.91.91 0 00-.296-.246.813.813 0 00-.712-.006.737.737 0 00-.264.223c-.172.23-.258.514-.244.801a1.19 1.19 0 00.244.788.769.769 0 00.62.293.867.867 0 00.439-.12.925.925 0 00.342-.352c.093-.168.139-.357.134-.549l-.001.004zM172.57 87.442v-3.38c-.358.34-.794.59-1.269.724a.371.371 0 01-.276-.125.413.413 0 01-.09-.132.419.419 0 01-.031-.156.325.325 0 01.119-.278 2.59 2.59 0 01.419-.231c.258-.115.5-.265.717-.445.179-.156.339-.331.478-.524a4.45 4.45 0 01.27-.357.324.324 0 01.238-.067.383.383 0 01.315.152.67.67 0 01.118.42v4.254c0 .498-.169.747-.508.747a.461.461 0 01-.363-.152.651.651 0 01-.137-.45zM176.316 85.005c.149-.186.336-.337.548-.446.207-.099.434-.148.664-.145a1.569 1.569 0 011.174.507c.152.167.27.362.347.575.081.22.123.455.122.69.004.333-.078.66-.239.952-.155.28-.387.512-.667.667a1.96 1.96 0 01-.971.24 1.789 1.789 0 01-1.767-1.203 3.943 3.943 0 01-.239-1.459 5.01 5.01 0 01.145-1.255c.078-.33.219-.642.415-.918a1.77 1.77 0 01.657-.55c.275-.127.575-.19.878-.185.29-.007.576.057.836.185.219.105.407.264.546.462a.954.954 0 01.183.527.403.403 0 01-.114.277.386.386 0 01-.293.124.473.473 0 01-.289-.098.565.565 0 01-.197-.274.78.78 0 00-.271-.358.71.71 0 00-.428-.136.77.77 0 00-.392.114c-.13.076-.243.181-.328.306a2.864 2.864 0 00-.32 1.4zm1.001 2.307a.757.757 0 00.619-.306c.172-.232.259-.516.245-.805a1.35 1.35 0 00-.115-.58.876.876 0 00-.315-.372.802.802 0 00-.442-.128.856.856 0 00-.439.122.909.909 0 00-.338.355 1.108 1.108 0 00-.127.544c-.012.3.079.595.257.836a.794.794 0 00.655.334zM180.662 88.052a.632.632 0 01-.423-.151.521.521 0 01-.178-.421.516.516 0 01.172-.395.586.586 0 01.411-.16c.115 0 .227.034.322.098a.63.63 0 01.227.284c.058.147.086.304.082.463.001.237-.053.472-.156.686-.09.195-.219.368-.381.51a.66.66 0 01-.406.186.252.252 0 01-.257-.252.282.282 0 01.153-.246.703.703 0 00.434-.602zM185.346 83.422h-1.762l-.211 1.201c.296-.172.629-.27.971-.282a1.696 1.696 0 011.575 1.065c.09.22.136.457.134.695.004.342-.079.68-.242.98a1.782 1.782 0 01-.695.703c-.32.177-.682.265-1.048.257a2.098 2.098 0 01-1.077-.244 1.525 1.525 0 01-.586-.564 1.199 1.199 0 01-.171-.556.401.401 0 01.121-.274.393.393 0 01.302-.13.494.494 0 01.464.36c.085.205.224.382.4.516.163.12.361.185.564.183a.857.857 0 00.501-.148.97.97 0 00.332-.409c.08-.186.12-.387.116-.59a1.349 1.349 0 00-.126-.61.877.877 0 00-.337-.377.918.918 0 00-.472-.125.966.966 0 00-.455.08c-.138.082-.27.173-.395.272a.784.784 0 01-.429.195.456.456 0 01-.323-.132.407.407 0 01-.141-.299c0-.013.014-.097.041-.257l.312-1.78a.847.847 0 01.193-.464.62.62 0 01.459-.145h1.958c.386 0 .579.147.579.442a.394.394 0 01-.141.312.632.632 0 01-.411.125zM189.436 85.51a1.658 1.658 0 01-.547.436c-.208.1-.437.15-.669.147a1.557 1.557 0 01-1.173-.515 1.694 1.694 0 01-.343-.568 1.955 1.955 0 01-.119-.681 1.985 1.985 0 01.133-.727 1.744 1.744 0 01.974-.99c.241-.097.498-.145.758-.142.295-.007.587.052.857.172.248.115.464.29.63.507.185.251.318.536.394.838.096.374.142.758.137 1.144.006.424-.043.846-.145 1.257-.08.33-.223.64-.421.915a1.756 1.756 0 01-.662.55 2.043 2.043 0 01-.876.18 1.803 1.803 0 01-.838-.184 1.419 1.419 0 01-.541-.457.943.943 0 01-.185-.526c0-.105.041-.205.115-.28a.377.377 0 01.293-.121.499.499 0 01.293.09c.092.07.16.165.196.274.052.144.146.27.271.359.124.09.274.137.428.135a.797.797 0 00.401-.108.97.97 0 00.322-.305c.22-.433.329-.914.317-1.4zm-.086-1.137a1.503 1.503 0 00-.068-.466 1.152 1.152 0 00-.193-.37.904.904 0 00-.297-.245.798.798 0 00-.712-.006.736.736 0 00-.264.224c-.172.23-.259.512-.245.8a1.19 1.19 0 00.245.788.778.778 0 00.619.293.866.866 0 00.44-.12.922.922 0 00.343-.352c.092-.167.138-.356.133-.547l-.001.001zM81.821 14.315a1.7 1.7 0 01.549-.447c.207-.098.434-.148.664-.145a1.57 1.57 0 011.175.508c.15.167.266.362.342.574.082.22.123.452.123.686.004.333-.079.661-.24.952a1.71 1.71 0 01-.667.667 1.957 1.957 0 01-.97.24 1.788 1.788 0 01-1.767-1.206 3.927 3.927 0 01-.24-1.46 4.965 4.965 0 01.145-1.255c.079-.33.22-.641.415-.918a1.77 1.77 0 01.657-.55c.275-.127.576-.19.878-.185.29-.006.577.057.838.185.218.105.405.263.544.461a.957.957 0 01.184.527.4.4 0 01-.115.277.38.38 0 01-.293.125.473.473 0 01-.289-.099.564.564 0 01-.197-.273.773.773 0 00-.27-.358.705.705 0 00-.429-.136.769.769 0 00-.391.114 1.03 1.03 0 00-.329.306c-.224.435-.333.92-.317 1.41zm1.002 2.307a.757.757 0 00.619-.307c.172-.231.259-.515.245-.804.005-.2-.034-.399-.115-.582a.865.865 0 00-.316-.37.798.798 0 00-.44-.13.856.856 0 00-.44.123.903.903 0 00-.338.355 1.118 1.118 0 00-.13.543c-.013.3.078.594.256.835a.796.796 0 00.657.337h.002zM86.166 17.36a.636.636 0 01-.423-.15.522.522 0 01-.177-.421.514.514 0 01.17-.394.587.587 0 01.412-.16.56.56 0 01.322.097c.102.07.181.17.227.284.06.147.09.305.086.463.001.238-.052.473-.156.687a1.502 1.502 0 01-.38.51.667.667 0 01-.406.187.252.252 0 01-.257-.258.277.277 0 01.152-.244.7.7 0 00.43-.6zM87.843 13.196c0-.248.07-.49.201-.7.145-.228.35-.41.594-.527.285-.136.598-.203.914-.196.263-.005.525.034.775.115.205.067.395.175.556.318a1.308 1.308 0 01.438.998c.004.23-.061.457-.187.65-.14.203-.333.365-.558.468.194.071.371.18.523.321.136.13.243.287.313.461.072.185.108.382.106.581.003.298-.075.592-.227.849-.157.26-.388.468-.664.597a2.31 2.31 0 01-1.028.215 2.366 2.366 0 01-1.053-.215 1.517 1.517 0 01-.66-.593 1.633 1.633 0 01-.223-.845 1.366 1.366 0 01.942-1.373 1.178 1.178 0 01-.762-1.124zm2.656 2.46a1.023 1.023 0 00-.12-.506.81.81 0 00-.333-.33 1.002 1.002 0 00-.482-.115.867.867 0 00-.634.252.945.945 0 00-.257.706c-.004.178.038.353.12.51a.87.87 0 00.329.344.948.948 0 00.931 0 .856.856 0 00.326-.343c.084-.16.126-.338.122-.519H90.5zm-.927-3.177a.751.751 0 00-.562.218.765.765 0 00-.214.558.697.697 0 00.22.526.78.78 0 00.563.21.873.873 0 00.318-.055.742.742 0 00.244-.155.661.661 0 00.157-.234.768.768 0 00.056-.299.786.786 0 00-.099-.394.702.702 0 00-.275-.274.814.814 0 00-.406-.097l-.002-.004zM94.94 14.82c-.15.182-.335.33-.546.436-.21.1-.438.15-.67.147a1.563 1.563 0 01-1.173-.515 1.698 1.698 0 01-.343-.57c-.08-.218-.12-.448-.12-.68a1.988 1.988 0 01.135-.727 1.737 1.737 0 01.973-.99 1.97 1.97 0 01.758-.141c.295-.007.587.052.857.171.248.116.464.29.63.508.185.25.318.535.394.837.096.374.142.759.137 1.145.006.423-.042.846-.145 1.258-.08.329-.223.639-.42.914-.172.236-.4.424-.663.55a2.041 2.041 0 01-.876.18 1.8 1.8 0 01-.837-.184 1.433 1.433 0 01-.542-.457.945.945 0 01-.185-.526c0-.104.041-.205.115-.279a.384.384 0 01.293-.122.5.5 0 01.49.364.741.741 0 00.698.495c.141 0 .28-.038.401-.109a.97.97 0 00.322-.304 2.94 2.94 0 00.317-1.401zm-.085-1.137a1.53 1.53 0 00-.069-.466 1.154 1.154 0 00-.193-.37.918.918 0 00-.297-.246.805.805 0 00-.712-.006.745.745 0 00-.264.223c-.172.23-.259.514-.245.801-.014.284.072.563.245.788a.772.772 0 00.62.294.865.865 0 00.439-.121.92.92 0 00.343-.351c.092-.167.138-.356.133-.546zM64.055 156.017v-3.381a3.03 3.03 0 01-1.268.724.36.36 0 01-.152-.033.366.366 0 01-.125-.091.413.413 0 01-.12-.288.332.332 0 01.118-.279c.133-.089.273-.166.42-.23.257-.115.498-.265.716-.445.18-.156.34-.332.477-.525.14-.193.23-.312.271-.356a.322.322 0 01.237-.067.37.37 0 01.177.038.373.373 0 01.139.114.673.673 0 01.118.42v4.252c0 .498-.17.747-.508.747a.467.467 0 01-.363-.153.65.65 0 01-.137-.447zM68.568 156.017v-3.381a3.03 3.03 0 01-1.268.724.36.36 0 01-.151-.033.366.366 0 01-.126-.091.413.413 0 01-.12-.288.33.33 0 01.119-.279c.132-.089.272-.166.419-.23.258-.115.5-.265.718-.445.178-.156.338-.332.476-.525.139-.193.229-.312.27-.356a.322.322 0 01.238-.067.37.37 0 01.176.038.374.374 0 01.14.114.673.673 0 01.117.42v4.252c0 .498-.169.747-.507.747a.484.484 0 01-.199-.036.483.483 0 01-.165-.117.65.65 0 01-.137-.447zM72.147 156.626a.628.628 0 01-.423-.15.52.52 0 01-.178-.421.518.518 0 01.172-.394.587.587 0 01.41-.16.57.57 0 01.324.096c.1.071.18.17.226.284.06.147.089.305.086.464.001.238-.052.473-.156.686-.09.195-.219.369-.38.51a.661.661 0 01-.407.187.246.246 0 01-.187-.076.252.252 0 01-.072-.177.27.27 0 01.153-.244.71.71 0 00.432-.605zM75.46 156.017v-3.381c-.359.341-.794.59-1.27.724a.365.365 0 01-.276-.124.402.402 0 01-.12-.288.33.33 0 01.118-.279 2.69 2.69 0 01.42-.23c.258-.115.499-.265.717-.445.179-.156.339-.332.477-.525.084-.123.174-.242.27-.356a.333.333 0 01.237-.067.372.372 0 01.177.038.375.375 0 01.14.114.673.673 0 01.118.42v4.252c0 .498-.17.747-.509.747a.482.482 0 01-.198-.036.482.482 0 01-.165-.117.65.65 0 01-.137-.447zM79.91 153.237a.897.897 0 00.587-.2.716.716 0 00.218-.81.717.717 0 00-.699-.464.948.948 0 00-.372.063.604.604 0 00-.232.168c-.065.081-.119.171-.16.267-.051.109-.098.212-.14.309a.257.257 0 01-.134.121.5.5 0 01-.222.045.377.377 0 01-.272-.121.427.427 0 01-.125-.321.852.852 0 01.117-.407c.089-.155.205-.293.343-.407.165-.137.354-.242.558-.31.24-.081.492-.12.746-.117.222-.002.444.031.656.099.188.06.362.157.514.284.14.117.253.263.33.429.074.166.112.346.111.528a1.2 1.2 0 01-.162.637c-.124.195-.28.369-.46.515.178.094.343.214.487.357a1.328 1.328 0 01.398.97 1.646 1.646 0 01-.534 1.216 1.906 1.906 0 01-.625.386 2.199 2.199 0 01-.799.14 1.905 1.905 0 01-1.378-.56 1.805 1.805 0 01-.343-.496 1.07 1.07 0 01-.116-.423.459.459 0 01.485-.479c.072.001.141.022.2.061a.291.291 0 01.127.147c.092.278.231.538.413.767a.782.782 0 00.621.251.927.927 0 00.796-.45.959.959 0 00.139-.515.942.942 0 00-.238-.681.88.88 0 00-.66-.248c-.049 0-.125.005-.23.015-.104.009-.171.015-.2.015a.449.449 0 01-.316-.102.362.362 0 01-.111-.284.36.36 0 01.134-.288.618.618 0 01.397-.11l.15.003zM216.662 172.257h1.936a.71.71 0 01.441.119.39.39 0 01.152.323.437.437 0 01-.12.309.474.474 0 01-.366.126h-2.73a.594.594 0 01-.433-.154.5.5 0 01-.156-.362.926.926 0 01.1-.356c.054-.125.128-.241.219-.343.329-.343.626-.636.891-.879.178-.172.368-.333.567-.481.183-.127.352-.272.505-.433a1.72 1.72 0 00.309-.446c.067-.139.103-.292.105-.448a.811.811 0 00-.113-.429.783.783 0 00-.307-.292.89.89 0 00-.429-.103.867.867 0 00-.764.429c-.05.098-.091.2-.124.304-.043.138-.11.268-.196.383a.387.387 0 01-.321.134.407.407 0 01-.307-.123.442.442 0 01-.124-.334 1.526 1.526 0 01.458-1.04 1.69 1.69 0 01.579-.366c.263-.098.541-.145.821-.139.332-.009.662.051.969.178.172.078.327.189.456.327.266.284.414.658.415 1.047.004.295-.075.586-.228.838a2.631 2.631 0 01-.465.591c-.159.142-.424.366-.796.671a5.905 5.905 0 00-.765.71 1.884 1.884 0 00-.179.239zM220.689 173.235a.63.63 0 01-.422-.151.509.509 0 01-.178-.421.517.517 0 01.171-.394.587.587 0 01.411-.16.57.57 0 01.323.097c.102.071.18.17.226.285.06.146.089.304.086.462.002.238-.052.473-.156.687a1.512 1.512 0 01-.379.51.672.672 0 01-.407.187.253.253 0 01-.26-.253.28.28 0 01.153-.245.697.697 0 00.432-.604zM222.366 169.07c0-.248.07-.491.202-.7.144-.229.35-.411.593-.526.285-.137.598-.204.914-.197.262-.004.522.035.771.115.205.067.394.175.556.318.142.126.255.282.33.457.072.171.109.354.108.54.004.231-.062.457-.187.651a1.385 1.385 0 01-.558.468c.194.071.371.18.522.321a1.3 1.3 0 01.314.461c.072.185.108.382.105.581.004.299-.074.592-.226.849-.157.26-.388.468-.664.597a2.322 2.322 0 01-1.028.215 2.373 2.373 0 01-1.053-.215 1.53 1.53 0 01-.661-.593 1.636 1.636 0 01-.222-.845 1.365 1.365 0 01.942-1.373 1.18 1.18 0 01-.758-1.124zm2.656 2.459a1.046 1.046 0 00-.118-.505.823.823 0 00-.334-.33 1 1 0 00-.482-.115.875.875 0 00-.635.252.942.942 0 00-.257.706c-.004.178.038.353.121.511a.872.872 0 00.328.343.96.96 0 00.931 0 .87.87 0 00.327-.343 1.09 1.09 0 00.122-.519h-.003zm-.927-3.176a.743.743 0 00-.562.218.77.77 0 00-.213.558.708.708 0 00.48.688.781.781 0 00.303.049.883.883 0 00.317-.056.756.756 0 00.244-.155.644.644 0 00.157-.234.746.746 0 00.056-.299.79.79 0 00-.098-.394.7.7 0 00-.276-.274.81.81 0 00-.406-.097l-.002-.004zM229.464 170.694a1.668 1.668 0 01-.547.436c-.209.1-.438.15-.669.147a1.555 1.555 0 01-.651-.136 1.556 1.556 0 01-.523-.378 1.715 1.715 0 01-.343-.569 2.03 2.03 0 01.015-1.408 1.73 1.73 0 01.973-.99c.242-.097.5-.145.759-.141.295-.007.588.052.857.171.248.116.465.29.631.508.184.251.317.535.393.837.096.374.142.759.137 1.145.006.424-.042.846-.145 1.258-.08.329-.223.639-.42.914a1.754 1.754 0 01-.662.549 2.047 2.047 0 01-.875.181 1.8 1.8 0 01-.838-.184 1.444 1.444 0 01-.542-.457.95.95 0 01-.186-.526.4.4 0 01.115-.279.386.386 0 01.293-.123.503.503 0 01.49.365.737.737 0 00.699.494.796.796 0 00.401-.108.956.956 0 00.322-.304 2.94 2.94 0 00.316-1.402zm-.085-1.137a1.504 1.504 0 00-.069-.466 1.145 1.145 0 00-.192-.37.928.928 0 00-.297-.246.806.806 0 00-.712-.006.749.749 0 00-.264.223 1.24 1.24 0 00-.244.801c-.015.284.072.563.244.788a.768.768 0 00.62.294.87.87 0 00.439-.121.932.932 0 00.343-.351c.091-.167.137-.356.132-.546zM216.026 200.098h1.936a.697.697 0 01.441.119c.05.038.089.087.116.143a.398.398 0 01.036.18.419.419 0 01-.121.308.487.487 0 01-.365.127h-2.729a.597.597 0 01-.434-.155.497.497 0 01-.156-.361.926.926 0 01.1-.356c.054-.126.128-.244.219-.347.329-.344.626-.636.89-.878.179-.172.369-.333.567-.482.183-.125.353-.269.507-.429.125-.132.229-.282.308-.446a1.07 1.07 0 00.105-.447.803.803 0 00-.113-.43.77.77 0 00-.308-.291.866.866 0 00-.428-.104.864.864 0 00-.765.429c-.05.097-.092.199-.124.305-.043.137-.11.267-.196.382a.389.389 0 01-.321.133.41.41 0 01-.308-.122.443.443 0 01-.122-.334 1.533 1.533 0 01.458-1.041c.166-.159.363-.284.578-.366.263-.098.542-.145.822-.139a2.38 2.38 0 01.968.178c.171.079.326.19.456.327.266.285.414.659.415 1.048.003.295-.076.586-.228.838a2.631 2.631 0 01-.465.591c-.159.142-.424.366-.796.67a6.126 6.126 0 00-.766.71 2.182 2.182 0 00-.177.24zM220.054 201.076a.638.638 0 01-.424-.151.53.53 0 01-.177-.422.513.513 0 01.171-.394.589.589 0 01.412-.159.57.57 0 01.322.097.64.64 0 01.227.284c.059.147.089.304.085.462.001.238-.052.473-.155.687-.09.195-.219.368-.381.509a.658.658 0 01-.406.187.258.258 0 01-.257-.252.28.28 0 01.152-.246.699.699 0 00.431-.602zM222.405 195.581h2.47a.921.921 0 01.514.111.418.418 0 01.159.368.775.775 0 01-.187.412c-.126.171-.267.36-.429.567a6.185 6.185 0 00-1.084 2.385c-.025.129-.052.296-.086.502-.034.205-.056.363-.078.472a1.076 1.076 0 01-.22.525.502.502 0 01-.381.147.456.456 0 01-.363-.158.685.685 0 01-.137-.466c.009-.219.042-.436.1-.647.086-.333.195-.66.327-.979a9.581 9.581 0 011.37-2.365h-1.984a.775.775 0 01-.465-.113.411.411 0 01-.154-.354.326.326 0 01.163-.332c.148-.057.306-.083.465-.075zM226.244 196.911c-.001-.248.07-.49.202-.7.144-.228.349-.411.593-.526.285-.137.598-.204.914-.197.263-.005.525.034.775.115.205.067.395.175.556.318.142.126.255.282.33.457.072.171.109.355.108.54.004.231-.062.458-.187.651-.14.204-.333.365-.558.468.194.071.371.181.522.322.137.128.244.285.314.46.072.185.108.383.105.582a1.546 1.546 0 01-.89 1.445c-.321.15-.673.223-1.028.215a2.36 2.36 0 01-1.053-.215 1.521 1.521 0 01-.66-.593 1.63 1.63 0 01-.223-.846 1.363 1.363 0 01.942-1.373 1.177 1.177 0 01-.762-1.123zm2.656 2.459a1.04 1.04 0 00-.118-.504.824.824 0 00-.335-.332 1.02 1.02 0 00-.482-.115.858.858 0 00-.835.579.947.947 0 00-.056.38c-.004.178.038.354.121.511a.86.86 0 00.328.343.948.948 0 00.931 0 .87.87 0 00.327-.343c.083-.16.125-.338.121-.519h-.002zm-.927-3.175a.738.738 0 00-.776.776.705.705 0 00.22.527.782.782 0 00.563.209.875.875 0 00.317-.056.67.67 0 00.402-.388.762.762 0 00.056-.298.784.784 0 00-.098-.394.724.724 0 00-.276-.276.82.82 0 00-.406-.098l-.002-.002z" fill="#333"/><path d="M80.015 18.034H95.4" stroke="#333" stroke-width=".567" stroke-miterlimit="22.926"/><path d="M82.138 25.138h1.937a.702.702 0 01.441.119.387.387 0 01.152.323.428.428 0 01-.121.309.483.483 0 01-.365.126h-2.73a.59.59 0 01-.433-.155.494.494 0 01-.156-.362.917.917 0 01.102-.35c.053-.127.127-.244.218-.348.33-.343.626-.636.89-.879.18-.172.369-.332.568-.48a3.27 3.27 0 00.506-.434c.126-.13.23-.281.308-.445.068-.14.104-.293.106-.448a.806.806 0 00-.113-.43.782.782 0 00-.309-.291.881.881 0 00-.428-.104.868.868 0 00-.764.43c-.05.097-.092.199-.125.304-.043.138-.11.267-.196.383a.39.39 0 01-.32.134.417.417 0 01-.404-.278.454.454 0 01-.027-.18 1.531 1.531 0 01.458-1.04c.166-.16.363-.284.579-.366.262-.098.541-.145.821-.139.332-.01.662.052.968.178.172.079.327.19.456.328.266.283.415.658.416 1.048.003.295-.076.585-.228.837a2.63 2.63 0 01-.466.59 26.01 26.01 0 01-.796.671 6.018 6.018 0 00-.765.71 2.092 2.092 0 00-.18.239zM86.166 26.115a.636.636 0 01-.423-.15.522.522 0 01-.177-.422.514.514 0 01.17-.393.587.587 0 01.412-.16.567.567 0 01.322.097c.102.07.181.169.227.284.06.147.09.304.086.463 0 .237-.052.472-.156.686-.09.195-.219.369-.38.51a.668.668 0 01-.406.186.253.253 0 01-.257-.252.279.279 0 01.152-.245.702.702 0 00.43-.604zM91.489 23.346c.004.351-.021.702-.075 1.048a2.438 2.438 0 01-.274.795c-.155.279-.38.512-.653.677-.27.159-.578.24-.89.237a1.697 1.697 0 01-1.011-.32 1.943 1.943 0 01-.673-.883 3.228 3.228 0 01-.171-.682 5.663 5.663 0 01-.054-.808 7.82 7.82 0 01.059-1.011c.03-.264.093-.524.186-.773a1.663 1.663 0 011.628-1.096c.237-.003.472.04.694.125.205.082.392.206.546.364.166.173.301.374.399.593.216.551.314 1.142.288 1.734zm-1.017-.073a6.168 6.168 0 00-.082-1.116 1.37 1.37 0 00-.274-.655.674.674 0 00-.535-.22.685.685 0 00-.68.494 4.524 4.524 0 00-.191 1.523c-.005.383.024.766.086 1.144.032.245.126.477.274.674a.717.717 0 001.057-.009c.146-.2.239-.434.27-.68a7.02 7.02 0 00.078-1.158l-.003.003zM93.223 23.07c.15-.186.337-.338.55-.446.207-.1.434-.149.663-.145.224-.002.446.042.652.131.198.088.376.216.522.376.152.167.27.361.347.573.082.222.123.456.122.692.004.332-.078.66-.24.951-.154.28-.386.512-.667.667a1.953 1.953 0 01-.97.24 1.877 1.877 0 01-1.075-.305 1.91 1.91 0 01-.692-.901 3.927 3.927 0 01-.239-1.46 5.002 5.002 0 01.145-1.255c.078-.33.22-.641.415-.918.17-.234.396-.423.657-.55.275-.127.575-.19.879-.185.29-.007.576.057.836.185.218.105.405.263.545.46a.958.958 0 01.184.529.396.396 0 01-.116.276.379.379 0 01-.292.125.48.48 0 01-.29-.098.57.57 0 01-.196-.274.78.78 0 00-.27-.358.708.708 0 00-.429-.136.77.77 0 00-.39.114 1.018 1.018 0 00-.33.306 2.883 2.883 0 00-.32 1.405zm1.002 2.306a.758.758 0 00.62-.306c.171-.232.258-.516.244-.804.006-.2-.034-.4-.115-.582a.862.862 0 00-.315-.371.8.8 0 00-.441-.129.856.856 0 00-.44.123.9.9 0 00-.337.355 1.104 1.104 0 00-.129.544c-.011.3.08.595.257.836a.795.795 0 00.656.334z" fill="#333"/><path d="M185.047 249.681h-14.572v14.598h14.572v-14.598z" stroke="#2B2A29" stroke-width=".567" stroke-miterlimit="22.926"/><path d="M185.047 249.681l-14.572 14.598M170.475 249.681l14.572 14.598" stroke="#000" stroke-width=".567" stroke-miterlimit="22.926"/><path d="M170.475 256.51h-16.812v.94h16.812v-.94z" stroke="#2B2A29" stroke-width=".567" stroke-miterlimit="22.926"/><path d="M163.672 250.354h-.468v12.102h.468v-12.102zM164.861 250.268h-.469v12.102h.469v-12.102zM167.295 250.276l-1.67 11.986.465.065 1.669-11.987-.464-.064zM169.181 250.098h-.468V262.2h.468v-12.102zM161.365 250.613h-.469v12.103h.469v-12.103zM160.176 250.527h-.469v12.103h.469v-12.103zM157.273 250.537l-.464.065 1.669 11.986.464-.065-1.669-11.986z" stroke="#2B2A29" stroke-width=".567" stroke-miterlimit="22.926"/><path d="M155.855 250.357h-.469v12.103h.469v-12.103z" fill="#898989" stroke="#2B2A29" stroke-width=".567" stroke-miterlimit="22.926"/><path d="M253.053 143.266h-41.287v17.03h41.287v-17.03z" stroke="#2B2A29" stroke-width=".567" stroke-miterlimit="22.926"/><path d="M246.088 144.476h-27.357a4.113 4.113 0 00-4.109 4.117v5.65a4.113 4.113 0 004.109 4.116h27.357a4.112 4.112 0 004.109-4.116v-5.65a4.112 4.112 0 00-4.109-4.117z" stroke="#2B2A29" stroke-width=".567" stroke-miterlimit="22.926"/><path d="M246.168 146.817h-22.621a2.726 2.726 0 00-2.724 2.729v3.745a2.725 2.725 0 002.724 2.728h22.621a2.726 2.726 0 002.724-2.728v-3.745a2.727 2.727 0 00-2.724-2.729z" stroke="#2B2A29" stroke-width=".567" stroke-miterlimit="22.926"/><path d="M246.036 151.74c.27 0 .489-.253.489-.565 0-.312-.219-.565-.489-.565s-.489.253-.489.565c0 .312.219.565.489.565z" stroke="#2B2A29" stroke-width=".567" stroke-miterlimit="22.926"/><path d="M211.766 143.266h-6.934v17.03h6.934v-17.03zM204.832 143.266l6.934 17.03M211.766 143.266l-6.934 16.724" stroke="#000" stroke-width=".567" stroke-miterlimit="22.926"/><path clip-rule="evenodd" d="M246.981 201.521v-8.759c-4.532 0-12.443-1.582-12.625 4.247-.195 6.183 9.374 4.561 12.625 4.512z" stroke="#2B2A29" stroke-width=".567" stroke-miterlimit="22.926"/><path clip-rule="evenodd" d="M240.389 200.042c1.469-.257 2.228-1.301 2.399-2.976a3.162 3.162 0 00-2.399-2.919h-2.44a3.566 3.566 0 00-2.29 3.015 2.985 2.985 0 002.309 2.882l2.421-.002z" stroke="#2B2A29" stroke-width=".567" stroke-miterlimit="22.926"/><path clip-rule="evenodd" d="M241.424 198.377c.765.067 1.09-.373 1.023-1.267.068-.725-.103-1.278-1.023-1.243h-1.038a1.52 1.52 0 00-.975 1.288 1.264 1.264 0 00.983 1.226l1.03-.004z" stroke="#2B2A29" stroke-width=".567" stroke-miterlimit="22.926"/><path clip-rule="evenodd" d="M242.447 197.111c.03-1.197-.46-1.23-.812-1.24h-.154c-.072 0 1.029 1.516-.057 2.511h.279c.315-.012.739-.098.744-1.271z" stroke="#2B2A29" stroke-width=".567" stroke-miterlimit="22.926"/><path d="M253.053 160.313h-10.929v19.464h10.929v-19.464z" stroke="#2B2A29" stroke-width=".567" stroke-miterlimit="22.926"/><path clip-rule="evenodd" d="M242.611 170.045c0-4.205 2.128-7.61 4.753-7.61s4.753 3.407 4.753 7.61-2.128 7.611-4.753 7.611-4.753-3.407-4.753-7.611z" stroke="#2B2A29" stroke-width=".567" stroke-miterlimit="22.926"/><path clip-rule="evenodd" d="M243.523 170.032c0-3.613 1.72-6.543 3.841-6.543 2.121 0 3.841 2.93 3.841 6.543 0 3.614-1.72 6.542-3.841 6.542-2.121 0-3.841-2.928-3.841-6.542z" stroke="#2B2A29" stroke-width=".567" stroke-miterlimit="22.926"/><path clip-rule="evenodd" d="M246.416 170.045a.84.84 0 01.136-.467.842.842 0 01.856-.362.842.842 0 01.66.655.834.834 0 01-1.136.94.831.831 0 01-.516-.766v0z" stroke="#2B2A29" stroke-width=".567" stroke-miterlimit="22.926"/><path clip-rule="evenodd" d="M246.728 170.045a.523.523 0 11.522.515.52.52 0 01-.522-.515z" stroke="#2B2A29" stroke-width=".567" stroke-miterlimit="22.926"/><path d="M253.053 182.809h-6.072v28.664h6.072v-28.664zM246.981 182.809l6.072 28.664M253.053 182.809l-6.072 28.149" stroke="#000" stroke-width=".567" stroke-miterlimit="22.926"/><path d="M253.053 211.474h-12.271v6.244h12.271v-6.244z" stroke="#2B2A29" stroke-width=".567" stroke-miterlimit="22.926"/><path d="M253.053 211.474l-12.271 6.244M240.782 211.474l12.271 6.244" stroke="#000" stroke-width=".567" stroke-miterlimit="22.926"/><path d="M253.053 65.982H204.48v38.796h48.573V65.982z" stroke="#2B2A29" stroke-width=".567" stroke-miterlimit="22.926"/><path d="M253.053 85.38h-15.142v19.398h15.142V85.38zM253.053 65.982h-15.142V85.38h15.142V65.982zM234.699 65.85H204.48v38.928h30.219V65.85z" stroke="#2B2A29" stroke-width=".567" stroke-miterlimit="22.926"/><path clip-rule="evenodd" d="M224.269 104.563v-8.8h10.43l-10.43 8.8z" stroke="#2B2A29" stroke-width=".567" stroke-miterlimit="22.926"/><path d="M253.053 65.982h-2.429v38.796h2.429V65.982zM253.053 55.034h-10.929v10.948h10.929V55.034zM253.053 104.778h-10.929v10.949h10.929v-10.949zM157.899 65.496h-7.286v38.795h7.286V65.496z" stroke="#2B2A29" stroke-width=".567" stroke-miterlimit="22.926"/><path d="M151.809 71.865h-1.196v26.057h1.196V71.865z" stroke="#2B2A29" stroke-width=".567" stroke-miterlimit="22.926"/><path clip-rule="evenodd" d="M154.255 66.613a1.443 1.443 0 00-1.336.893 1.444 1.444 0 00.312 1.579 1.443 1.443 0 002.225-.216 1.456 1.456 0 00-.177-1.83 1.452 1.452 0 00-1.024-.426zM155.537 70.416a1.008 1.008 0 100 2.016 1.008 1.008 0 000-2.016v0z" stroke="#000" stroke-width=".567" stroke-miterlimit="22.926"/><path d="M156.3 95.93h-1.197v6.653h1.197V95.93zM147.773 57.727h-14.572v21.605h14.572V57.727z" stroke="#2B2A29" stroke-width=".567" stroke-miterlimit="22.926"/><path d="M140.45 57.727h-.938v21.605h.938V57.727z" stroke="#2B2A29" stroke-width=".567" stroke-miterlimit="22.926"/><path d="M146.596 67.018h-12.081v.444h12.081v-.444zM146.682 65.892h-12.081v.444h12.081v-.444z" stroke="#2B2A29" stroke-width=".567" stroke-miterlimit="22.926"/><path clip-rule="evenodd" d="M134.643 64.728l11.965-1.581.065.439-11.965 1.581-.065-.44z" stroke="#2B2A29" stroke-width=".567" stroke-miterlimit="22.926"/><path d="M146.336 68.744h-12.08v.444h12.08v-.444zM146.422 69.87h-12.08v.444h12.08v-.444z" stroke="#2B2A29" stroke-width=".567" stroke-miterlimit="22.926"/><path clip-rule="evenodd" d="M134.384 71.48l11.964 1.58.065-.439-11.964-1.581-.065.44z" stroke="#2B2A29" stroke-width=".567" stroke-miterlimit="22.926"/><path d="M146.592 73.964h-12.081v.444h12.081v-.444zM146.491 75.418H134.41v.443h12.081v-.444zM146.491 76.732H134.41v.444h12.081v-.444zM146.491 78.212H134.41v.444h12.081v-.444zM147.773 43.148h-14.572v14.579h14.572V43.148zM133.201 43.148l14.572 14.579" stroke="#2B2A29" stroke-width=".567" stroke-miterlimit="22.926"/><path d="M147.773 43.148l-14.572 14.579c3.152.136.121-.52 3.704 0M146.767 58.874h-12.08v.444h12.08v-.444zM146.767 60.19h-12.08v.444h12.08v-.444zM146.767 61.67h-12.08v.444h12.08v-.444z" stroke="#2B2A29" stroke-width=".567" stroke-miterlimit="22.926"/><path d="M147.773 93.91h-14.572v2.92h14.572v-2.92z" fill="gray" stroke="gray" stroke-width=".567" stroke-miterlimit="22.926"/><path d="M147.773 79.332h-14.572V93.91h14.572V79.332zM133.201 79.332l14.572 14.578" stroke="#2B2A29" stroke-width=".567" stroke-miterlimit="22.926"/><path d="M147.773 79.332L133.201 93.91c3.152.136.121-.52 3.704 0" stroke="#2B2A29" stroke-width=".567" stroke-miterlimit="22.926"/><path d="M19.978 114.855c-1.492-.777-1.555-1.587 0-2.431 1.612-.864 1.512-1.671 0-2.432M19.978 109.992c-1.492-.777-1.555-1.586 0-2.431 1.612-.864 1.512-1.671 0-2.431M19.978 105.13c-1.492-.779-1.555-1.587 0-2.432 1.612-.863 1.512-1.671 0-2.431M19.978 100.267c-1.492-.778-1.555-1.587 0-2.432 1.612-.863 1.512-1.67 0-2.43M19.978 95.404c-1.492-.777-1.555-1.587 0-2.431 1.612-.864 1.512-1.671 0-2.432M19.852 68.908c-1.491-.778-1.554-1.587 0-2.431 1.613-.864 1.513-1.67 0-2.432M19.852 64.045c-1.491-.778-1.554-1.586 0-2.43 1.613-.864 1.513-1.672 0-2.432M19.852 59.183c-1.491-.778-1.554-1.587 0-2.432 1.613-.863 1.513-1.671 0-2.432" stroke="#000" stroke-width=".216" stroke-miterlimit="22.926"/><path d="M19.852 54.32c-1.491-.778-1.554-1.587 0-2.431 1.613-.865 1.513-1.672 0-2.432M19.852 49.457c-1.491-.778-1.554-1.587 0-2.432 1.613-.863 1.513-1.67 0-2.431M94.892 46.48c.777-1.494 1.585-1.557 2.427 0 .862 1.615 1.668 1.516 2.427 0" stroke="#000" stroke-width=".216" stroke-miterlimit="22.926"/><path d="M99.746 46.48c.776-1.494 1.584-1.557 2.427 0 .862 1.615 1.668 1.516 2.427 0" stroke="#000" stroke-width=".216" stroke-miterlimit="22.926"/><path d="M104.6 46.48c.777-1.494 1.584-1.557 2.427 0 .862 1.615 1.668 1.516 2.427 0" stroke="#000" stroke-width=".216" stroke-miterlimit="22.926"/><path d="M109.454 46.48c.776-1.494 1.584-1.557 2.427 0 .862 1.615 1.668 1.516 2.428 0M114.309 46.48c.776-1.494 1.583-1.557 2.427 0 .862 1.615 1.667 1.516 2.426 0" stroke="#000" stroke-width=".216" stroke-miterlimit="22.926"/><path d="M54.236 168.04H39.664v14.598h14.572V168.04z" stroke="#2B2A29" stroke-width=".567" stroke-miterlimit="22.926"/><path clip-rule="evenodd" d="M41.683 178.582a2.526 2.526 0 011.554-2.329 2.51 2.51 0 012.743.547 2.524 2.524 0 01-1.78 4.305 2.528 2.528 0 01-1.78-.739 2.522 2.522 0 01-.737-1.784v0zM41.683 171.89a2.521 2.521 0 013.007-2.474 2.517 2.517 0 011.979 1.981 2.526 2.526 0 01-1.07 2.589 2.515 2.515 0 01-3.916-2.096v0zM47.781 178.582a2.525 2.525 0 011.555-2.329 2.51 2.51 0 013.431 1.839 2.526 2.526 0 01-1.07 2.588 2.506 2.506 0 01-2.363.232 2.504 2.504 0 01-1.362-1.365 2.522 2.522 0 01-.19-.965v0zM47.781 171.89a2.527 2.527 0 011.554-2.331 2.512 2.512 0 012.744.547 2.524 2.524 0 01-1.781 4.305 2.522 2.522 0 01-2.516-2.521v0z" stroke="#2B2A29" stroke-width=".567" stroke-miterlimit="22.926"/><path d="M88.361 168.04H73.79v14.598h14.572V168.04z" stroke="#2B2A29" stroke-width=".567" stroke-miterlimit="22.926"/><path clip-rule="evenodd" d="M81.075 175.816a.476.476 0 00.431-.589.481.481 0 00-.381-.358.475.475 0 00-.558.47.493.493 0 00.508.477v0z" stroke="#2B2A29" stroke-width=".567" stroke-miterlimit="22.926"/><path d="M85.117 169.859h-8.084c-1.035 0-1.874.84-1.874 1.877v7.206c0 1.037.84 1.878 1.874 1.878h8.084a1.876 1.876 0 001.874-1.878v-7.206a1.875 1.875 0 00-1.874-1.877z" stroke="#000" stroke-width=".567" stroke-miterlimit="22.926"/><path d="M73.79 168.04H59.216v14.598H73.79V168.04z" stroke="#2B2A29" stroke-width=".567" stroke-miterlimit="22.926"/><path d="M66.502 172.619c.74 0 1.341-.113 1.341-.252s-.6-.252-1.341-.252-1.342.113-1.342.252.6.252 1.342.252z" stroke="#2B2A29" stroke-width=".216" stroke-miterlimit="22.926"/><path clip-rule="evenodd" d="M67.843 172.54c-.89.119-1.792.119-2.682 0 .154.283.235.601.235.924 0 .626-.424 1.369-.222 1.979.335 1.021 2.422 1.018 2.673-.132a2.332 2.332 0 000-.892 3.237 3.237 0 01-.191-1.03 1.87 1.87 0 01.187-.849v0z" stroke="#2B2A29" stroke-width=".216" stroke-miterlimit="22.926"/><path d="M66.735 176.191h-.456v2.52h.456v-2.52z" stroke="#2B2A29" stroke-width=".216" stroke-miterlimit="22.926"/><path clip-rule="evenodd" d="M67.378 179.085h-1.68l.58-.375h.457l.643.375z" stroke="#2B2A29" stroke-width=".216" stroke-miterlimit="22.926"/><path d="M39.664 168.04H25.422v14.598h14.242V168.04zM25.422 168.04l14.242 14.598M39.664 168.04l-14.242 14.598M25.422 168.04H10.85v14.598h14.572V168.04z" stroke="#2B2A29" stroke-width=".567" stroke-miterlimit="22.926"/><path d="M21.494 175.338h-6.716M18.136 171.975v6.728M20.51 172.96l-4.748 4.758M20.51 177.718l-4.748-4.757" stroke="#000" stroke-width=".567" stroke-miterlimit="22.926"/><path d="M59.217 168.04h-4.98v14.598h4.98V168.04zM54.236 168.04l4.981 14.598M59.217 168.04l-4.98 14.598M119.895 168.04h-12.528v15.863h12.528V168.04zM107.367 168.04l12.528 15.863M119.895 168.04l-12.528 15.863" stroke="#2B2A29" stroke-width=".567" stroke-miterlimit="22.926"/><path d="M107.367 168.04H88.361v6.167h19.006v-6.167zM107.367 168.04l-19.006 6.167M88.361 168.04l19.006 6.167" stroke="#2B2A29" stroke-width=".567" stroke-miterlimit="22.926"/><path clip-rule="evenodd" d="M50.537 133.072l-.16-7.651c3.901-.19 8.03-1.484 8.066-2.025l.066-.999c.04-.623 1.232.401 1.826.377l.066 12.159c-.305-.14-2.036 1.344-2.182.811-.12-.437.249-.813-.066-.995-2.331-1.35-4.697-1.358-7.616-1.677z" stroke="#2B2A29" stroke-width=".567" stroke-miterlimit="22.926"/><path clip-rule="evenodd" d="M58.152 134.755l.343-11.39-.03.028-9.36.906c-1.457 2.774-1.11 6.389-.132 9.489 4.06.874 7.203 1.311 9.18.967zM90.45 133.578l.16-7.651c-3.901-.191-8.031-1.485-8.067-2.026l-.065-.999c-.04-.622-1.232.401-1.827.377l-.066 12.159c.305-.14 2.036 1.344 2.182.811.12-.438-.248-.814.066-.996 2.33-1.35 4.697-1.356 7.617-1.675z" stroke="#2B2A29" stroke-width=".567" stroke-miterlimit="22.926"/><path clip-rule="evenodd" d="M82.833 135.261l-.342-11.39.03.028 9.36.906c1.456 2.773 1.114 6.389.132 9.489-4.057.873-7.202 1.308-9.18.967z" stroke="#2B2A29" stroke-width=".567" stroke-miterlimit="22.926"/><path d="M84.346 119.327H55.202v19.464h29.144v-19.464z" stroke="#2B2A29" stroke-width=".567" stroke-miterlimit="22.926"/><path clip-rule="evenodd" d="M15.705 134.037a4.98 4.98 0 002.225 3.036c1.11.682 2.442.9 3.711.609a4.808 4.808 0 003.632-4.002c.09-.634.053-1.28-.11-1.899a4.981 4.981 0 00-2.225-3.036 4.966 4.966 0 00-3.711-.609 4.808 4.808 0 00-3.632 4.002c-.09.634-.053 1.28.11 1.899z" stroke="#2B2A29" stroke-width=".567" stroke-miterlimit="22.926"/><path clip-rule="evenodd" d="M21.666 130.836c-.78-.232.847-1.046 1.775-2.103.818-.931 5.14-3.323 5.912-2.561l-.052-.594-7.635 5.258z" stroke="#000" stroke-width=".567" stroke-miterlimit="22.926"/><path clip-rule="evenodd" d="M29.352 126.172c-.913 2.271-4.503 6.88-7.33 6.058-.496-.144-.466-.386-.817-.62.985 1.832 8.026 2.403 8.733 3.483-2.664 2.739-8.131-1.654-8.373-2.798-1.55-2.409-3.372-6.02-7.111-5.579 1.669 1.809 4.037 5.202 6.624 5.211-2.365 1.374-5.762 3.491-6.773 6.249 3.508-.119 5.634-.515 6.61-4.174.086-.333-.15-1.249-.065-1.426 2.227 1.195 5.209 5.428 3.44 6.215-.76-.281-3.197-3.727-2.527-5.193.123-.271.04-.363-.034-.655-.544-2.308-.45-5.831-1.48-7.402-.77 1.851-1.942 6.523.717 7.498-1.778-1.062-4.055-3.46-6.268-2.249.664.202 5.94 1.802 6.292 2.341l8.362-6.959z" stroke="#000" stroke-width=".567" stroke-miterlimit="22.926"/><path d="M209.145 249.681h-7.286v14.598h7.286v-14.598z" stroke="#2B2A29" stroke-width=".567" stroke-miterlimit="22.926"/><path d="M209.145 249.681l-7.286 14.598M201.859 249.681l7.286 14.598" stroke="#000" stroke-width=".567" stroke-miterlimit="22.926"/><path clip-rule="evenodd" d="M222.512 257.581a.598.598 0 00.584-.712.599.599 0 00-.467-.468.596.596 0 00-.611.253.599.599 0 00.494.927zM216.052 253.198a.591.591 0 00.549-.368.596.596 0 00-.777-.778.595.595 0 00.228 1.146zM216.052 262.075a.591.591 0 00.549-.368.596.596 0 00-.777-.778.595.595 0 00.228 1.146zM228.909 262.043a.59.59 0 00.584-.711.593.593 0 10-1.002.535.593.593 0 00.418.176v0zM228.909 253.163a.599.599 0 00.55-.368.595.595 0 10-.55.368v0z" stroke="#000" stroke-width=".567" stroke-miterlimit="22.926"/><path d="M216.553 252.922l.954.957M215.562 251.931l-.85-.853M215.644 253.036l-.507.493M216.561 252.295l.569-.571M223.282 257.156l1.349-.018M221.882 257.174l-1.204.017M222.729 257.887v.708M222.838 256.712l-.01-.807M229.351 252.072l1.116-.76M228.194 252.861l-.996.678M229.293 252.987l.389.592M228.737 251.947l-.452-.667M229.537 261.836l1.116.76M228.38 261.046l-.996-.678M229.479 260.92l.389-.59M228.923 261.96l-.453.668M215.438 261.639l-1.284.417M216.769 261.205l1.144-.373M215.748 260.776l-.209-.676M215.993 261.93l.248.768" stroke="#000" stroke-width=".567" stroke-miterlimit="22.926"/><path d="M235.877 263.552h-26.732v.727h26.732v-.727zM253.052 160.296h-.726v19.498h.726v-19.498z" fill="#CCF" stroke="#000" stroke-width=".567" stroke-miterlimit="22.926"/><path d="M162.889 46.06c.776-1.494 1.584-1.557 2.427 0 .862 1.615 1.668 1.516 2.428 0M167.744 46.06c.776-1.494 1.583-1.557 2.426 0 .862 1.615 1.668 1.516 2.427 0M172.597 46.06c.776-1.494 1.584-1.557 2.427 0 .862 1.615 1.669 1.516 2.428 0M177.452 46.06c.776-1.494 1.583-1.557 2.426 0 .863 1.615 1.668 1.516 2.427 0M182.305 46.06c.776-1.494 1.584-1.557 2.427 0 .862 1.615 1.669 1.516 2.428 0M208.754 45.935c.776-1.495 1.584-1.558 2.427 0 .862 1.614 1.667 1.515 2.427 0M213.608 45.935c.776-1.495 1.583-1.558 2.427 0 .861 1.614 1.668 1.515 2.427 0M218.462 45.935c.776-1.495 1.584-1.558 2.427 0 .862 1.614 1.667 1.515 2.426 0M223.315 45.935c.777-1.495 1.585-1.558 2.428 0 .862 1.614 1.668 1.515 2.427 0M228.17 45.935c.776-1.495 1.584-1.558 2.427 0 .862 1.614 1.667 1.515 2.427 0M158.036 46.06c.776-1.494 1.583-1.557 2.426 0 .863 1.615 1.668 1.516 2.427 0M153.181 46.06c.776-1.494 1.584-1.557 2.427 0 .862 1.615 1.668 1.516 2.428 0" stroke="#000" stroke-width=".216" stroke-miterlimit="22.926"/><path d="M233.023 45.935c.778-1.495 1.585-1.558 2.428 0 .862 1.614 1.668 1.515 2.427 0M237.878 45.935c.776-1.495 1.584-1.558 2.427 0 .862 1.614 1.667 1.515 2.427 0M242.732 45.935c.777-1.495 1.584-1.558 2.427 0 .863 1.614 1.668 1.515 2.427 0" stroke="#000" stroke-width=".216" stroke-miterlimit="22.926"/><path clip-rule="evenodd" d="M154.047 57.674a4.984 4.984 0 002.226 3.037c1.11.681 2.442.9 3.711.608a4.802 4.802 0 002.998-2.21 4.824 4.824 0 00.524-3.692 4.983 4.983 0 00-2.226-3.035 4.967 4.967 0 00-3.711-.608 4.8 4.8 0 00-2.999 2.208 4.82 4.82 0 00-.523 3.692v0z" stroke="#2B2A29" stroke-width=".567" stroke-miterlimit="22.926"/><path clip-rule="evenodd" d="M160.006 54.474c-.779-.233.848-1.046 1.775-2.103.818-.931 5.141-3.323 5.912-2.561l-.052-.594-7.635 5.258z" stroke="#000" stroke-width=".567" stroke-miterlimit="22.926"/><path clip-rule="evenodd" d="M167.693 49.81c-.913 2.271-4.503 6.88-7.33 6.058-.497-.145-.467-.386-.817-.62.984 1.832 8.025 2.403 8.733 3.482-2.664 2.74-8.131-1.654-8.373-2.797-1.549-2.41-3.373-6.02-7.111-5.579 1.669 1.808 4.038 5.202 6.625 5.21-2.366 1.374-5.763 3.49-6.774 6.25 3.509-.119 5.635-.516 6.61-4.175.09-.333-.149-1.248-.066-1.425 2.228 1.195 5.211 5.428 3.44 6.215-.759-.282-3.196-3.729-2.526-5.193.124-.272.04-.364-.034-.655-.544-2.309-.449-5.831-1.479-7.403-.771 1.852-1.943 6.523.717 7.498-1.778-1.061-4.055-3.46-6.269-2.248.665.201 5.941 1.802 6.292 2.34l8.362-6.958z" stroke="#000" stroke-width=".567" stroke-miterlimit="22.926"/><path d="M51.887 43.61H37.315v7.3h14.572v-7.3zM37.315 50.91l14.572-7.3M37.315 43.61l14.572 7.3" stroke="#2B2A29" stroke-width=".567" stroke-miterlimit="22.926"/><path clip-rule="evenodd" d="M205.315 216.07c0-.21.014-.419.041-.626v0c.589-4.639 4.87-4.133 8.111-4.133 3.255 0 7.604-.42 7.999 4.35l.017.01v5.173h-16.115l-.011-4.125a5.028 5.028 0 01-.042-.649v0z" stroke="#2B2A29" stroke-width=".567" stroke-miterlimit="22.926"/><path clip-rule="evenodd" d="M213.4 209.896c4.495 0 8.139 2.367 8.139 5.285s-3.644 5.284-8.139 5.284c-4.495 0-8.139-2.366-8.139-5.284 0-2.918 3.644-5.285 8.139-5.285z" stroke="#2B2A29" stroke-width=".567" stroke-miterlimit="22.926"/><path d="M213.414 219.451c3.864 0 6.997-1.911 6.997-4.27 0-2.358-3.133-4.27-6.997-4.27-3.865 0-6.997 1.912-6.997 4.27 0 2.359 3.132 4.27 6.997 4.27z" stroke="#2B2A29" stroke-width=".567" stroke-miterlimit="22.926"/><path clip-rule="evenodd" d="M213.4 214.474c.488 0 .885.258.885.58 0 .323-.397.581-.885.581s-.886-.258-.886-.581c0-.322.393-.58.886-.58z" stroke="#2B2A29" stroke-width=".216" stroke-miterlimit="22.926"/><path clip-rule="evenodd" d="M213.4 214.474a.585.585 0 01.554.341.574.574 0 01.043.337.585.585 0 01-.788.442.582.582 0 01-.363-.54.566.566 0 01.554-.58v0z" stroke="#2B2A29" stroke-width=".567" stroke-miterlimit="22.926"/><path d="M119.162 46.48c.776-1.494 1.584-1.557 2.427 0 .862 1.615 1.668 1.516 2.428 0" stroke="#000" stroke-width=".216" stroke-miterlimit="22.926"/><path d="M124.017 46.48c.776-1.494 1.584-1.557 2.427 0 .862 1.615 1.667 1.516 2.426 0M187.16 46.06c.776-1.494 1.583-1.557 2.427 0 .862 1.615 1.667 1.516 2.426 0M203.899 45.935c.777-1.495 1.584-1.558 2.427 0 .862 1.614 1.669 1.515 2.428 0M192.013 46.06c.777-1.494 1.584-1.557 2.427 0 .862 1.615 1.669 1.516 2.428 0" stroke="#000" stroke-width=".216" stroke-miterlimit="22.926"/><path d="M90.613 43.61H51.887v7.3h38.726v-7.3z" stroke="#2B2A29" stroke-width=".567" stroke-miterlimit="22.926"/><path d="M84.255 43.61h-26.01v1.2h26.01v-1.2z" stroke="#2B2A29" stroke-width=".567" stroke-miterlimit="22.926"/><path clip-rule="evenodd" d="M53.002 47.26a1.452 1.452 0 01.893-1.338 1.444 1.444 0 011.972 1.055 1.45 1.45 0 01-1.42 1.732 1.444 1.444 0 01-1.445-1.448v0zM56.799 48.544a1.01 1.01 0 01.621-.932 1.005 1.005 0 011.373.735 1.011 1.011 0 01-.989 1.205 1.004 1.004 0 01-1.005-1.008v0z" stroke="#000" stroke-width=".567" stroke-miterlimit="22.926"/><path d="M88.908 48.11h-6.642v1.2h6.642v-1.2zM72.001 95.967H55.848v18.075H72V95.967zM55.847 96.042H39.693v18.001h16.154V96.042z" stroke="#2B2A29" stroke-width=".567" stroke-miterlimit="22.926"/><path clip-rule="evenodd" d="M33.328 113.298a6.14 6.14 0 01-6.734 1.155 6.162 6.162 0 01-2.515-9.185 6.143 6.143 0 019.482-.679 6.168 6.168 0 01-.233 8.709v0z" stroke="#2B2A29" stroke-width=".567" stroke-miterlimit="22.926"/><path d="M55.847 111.102H39.693v2.94h16.154v-2.94zM72.001 111.102H55.848v2.94H72v-2.94z" stroke="#2B2A29" stroke-width=".567" stroke-miterlimit="22.926"/><path d="M88.155 96.042H72v18.074h16.154V96.042z" stroke="#2B2A29" stroke-width=".567" stroke-miterlimit="22.926"/><path d="M88.155 111.177H72v2.939h16.154v-2.939z" stroke="#2B2A29" stroke-width=".567" stroke-miterlimit="22.926"/><path clip-rule="evenodd" d="M33.92 53.256a4.254 4.254 0 01.802 5.896 4.101 4.101 0 01-2.751 1.587 4.09 4.09 0 01-3.058-.858 4.253 4.253 0 01-.802-5.893 4.1 4.1 0 014.366-1.47 4.098 4.098 0 011.443.738z" stroke="#2B2A29" stroke-width=".567" stroke-miterlimit="22.926"/><path clip-rule="evenodd" d="M29.379 56.82c.085-.686-1.107.304-2.25.667-1.006.32-4.354 2.88-4.026 3.745l-.446-.243 6.722-4.168z" stroke="#000" stroke-width=".567" stroke-miterlimit="22.926"/><path clip-rule="evenodd" d="M23.103 61.233c2.084.066 6.91-1.161 7.24-3.654.057-.439-.141-.498-.204-.853 1.091 1.4-.881 7.105-.283 8.028 3.05-1.144 1.503-6.929.695-7.511-1.347-2.04-3.535-4.705-1.907-7.48.836 1.928 2.668 4.945 1.786 6.973 1.885-1.38 4.7-3.31 7.197-3.154-1.297 2.705-2.338 4.23-5.523 3.74-.291-.046-.923-.548-1.09-.543.172 2.154 2.443 5.94 3.665 4.826.04-.691-1.809-3.78-3.18-3.76-.258 0-.298-.093-.5-.252-1.613-1.218-4.392-2.352-5.262-3.698 1.706.034 5.748.718 5.598 3.135-.216-1.755-1.304-4.36.4-5.677-.071.59-.633 5.268-.336 5.727l-8.296 4.153z" stroke="#000" stroke-width=".567" stroke-miterlimit="22.926"/><path d="M107.394 106.252h-17v10.219h17v-10.219zM90.394 116.471l17-10.219M90.394 106.252l17 10.219M238.5 125.265h-29.569v14.598H238.5v-14.598z" stroke="#2B2A29" stroke-width=".567" stroke-miterlimit="22.926"/><path d="M238.501 132.601h-29.569v.939h29.569v-.939z" stroke="#2B2A29" stroke-width=".567" stroke-miterlimit="22.926"/><path d="M221.221 126.444h-.442v12.103h.442v-12.103zM222.346 126.358h-.443v12.103h.443v-12.103z" stroke="#2B2A29" stroke-width=".567" stroke-miterlimit="22.926"/><path clip-rule="evenodd" d="M223.509 138.419l1.578-11.987-.439-.065-1.578 11.987.439.065z" stroke="#2B2A29" stroke-width=".567" stroke-miterlimit="22.926"/><path d="M219.498 126.705h-.443v12.102h.443v-12.102zM218.375 126.619h-.443v12.102h.443v-12.102z" stroke="#2B2A29" stroke-width=".567" stroke-miterlimit="22.926"/><path clip-rule="evenodd" d="M216.769 138.679l-1.578-11.986.438-.066 1.579 11.987-.439.065z" stroke="#2B2A29" stroke-width=".567" stroke-miterlimit="22.926"/><path d="M214.289 126.449h-.443v12.102h.443v-12.102zM212.838 126.55h-.443v12.102h.443V126.55zM211.525 126.55h-.442v12.102h.442V126.55zM210.048 126.55h-.443v12.102h.443V126.55zM253.052 125.265H238.5v14.598h14.552v-14.598zM253.053 139.863L238.5 125.265" stroke="#2B2A29" stroke-width=".567" stroke-miterlimit="22.926"/><path d="M253.053 125.265L238.5 139.863c-.136-3.157.52-.121 0-3.71M229.35 126.273h-.443v12.102h.443v-12.102zM228.039 126.273h-.444v12.102h.444v-12.102zM226.561 126.273h-.443v12.102h.443v-12.102zM208.931 125.265h-14.552v14.598h14.552v-14.598zM208.931 139.863l-14.552-14.598" stroke="#2B2A29" stroke-width=".567" stroke-miterlimit="22.926"/><path d="M208.931 125.265l-14.552 14.598c-.137-3.157.519-.121 0-3.71M231.517 126.686h-.443v12.102h.443v-12.102zM232.641 126.6h-.443v12.102h.443V126.6z" stroke="#2B2A29" stroke-width=".567" stroke-miterlimit="22.926"/><path clip-rule="evenodd" d="M233.805 138.66l1.578-11.986-.439-.066-1.579 11.987.44.065z" stroke="#2B2A29" stroke-width=".567" stroke-miterlimit="22.926"/><path d="M236.857 126.514h-.443v12.102h.443v-12.102zM157.899 104.292h-7.286v17.578h7.286v-17.578zM157.899 121.87l-7.286-17.578M150.613 121.87l7.286-17.578M157.899 121.87h-7.286v17.578h7.286V121.87zM157.899 139.448l-7.286-17.578M150.613 139.448l7.286-17.578" stroke="#2B2A29" stroke-width=".567" stroke-miterlimit="22.926"/><path clip-rule="evenodd" d="M155.247 22.409c-.779-.233.848-1.046 1.775-2.103.817-.931 5.14-3.323 5.912-2.561l-.053-.594-7.634 5.258z" stroke="#000" stroke-width=".567" stroke-miterlimit="22.926"/><path clip-rule="evenodd" d="M162.932 17.745c-.913 2.271-4.503 6.88-7.33 6.058-.497-.145-.468-.386-.817-.62.984 1.832 8.025 2.403 8.733 3.483-2.665 2.738-8.132-1.654-8.373-2.798-1.549-2.41-3.373-6.02-7.112-5.579 1.669 1.808 4.038 5.202 6.626 5.21-2.367 1.373-5.763 3.49-6.774 6.249 3.509-.118 5.634-.515 6.61-4.174.086-.333-.15-1.248-.066-1.426 2.228 1.196 5.21 5.429 3.44 6.216-.759-.282-3.196-3.729-2.526-5.193.124-.272.04-.364-.034-.655-.544-2.309-.449-5.832-1.479-7.403-.772 1.852-1.944 6.524.717 7.498-1.778-1.061-4.055-3.46-6.269-2.248.665.201 5.941 1.802 6.292 2.34l8.362-6.958zM158.171 12.063c.474.142-.514.638-1.082 1.281-.498.568-3.131 2.025-3.599 1.56l.032.363 4.649-3.204z" stroke="#000" stroke-width=".567" stroke-miterlimit="22.926"/><path clip-rule="evenodd" d="M153.488 14.905c.556-1.384 2.742-4.192 4.465-3.69.304.085.285.234.498.377-.6-1.116-4.889-1.465-5.32-2.122 1.627-1.669 4.953 1.008 5.101 1.704.942 1.468 2.056 3.668 4.332 3.399-1.016-1.101-2.459-3.168-4.035-3.176 1.441-.837 3.513-2.127 4.126-3.807-2.142.072-3.432.315-4.026 2.543-.055.203.09.761.039.868-1.357-.728-3.17-3.307-2.096-3.787.463.172 1.948 2.272 1.542 3.165-.075.166-.024.22.021.4.332 1.405.273 3.552.901 4.509.468-1.128 1.184-3.973-.437-4.568 1.083.646 2.471 2.108 3.82 1.373-.405-.123-3.619-1.1-3.833-1.427l-5.098 4.239z" stroke="#000" stroke-width=".567" stroke-miterlimit="22.926"/><path clip-rule="evenodd" d="M30.983 8.418a2.306 2.306 0 00-2.749-1.687 2.225 2.225 0 00-1.678 1.854 2.309 2.309 0 002.8 2.566 2.228 2.228 0 001.627-2.733z" stroke="#2B2A29" stroke-width=".567" stroke-miterlimit="22.926"/><path clip-rule="evenodd" d="M28.223 9.9c.36.108-.393.485-.823.973-.378.43-2.379 1.54-2.736 1.186l.024.276L28.223 9.9z" stroke="#000" stroke-width=".567" stroke-miterlimit="22.926"/><path clip-rule="evenodd" d="M24.664 12.06c.422-1.052 2.084-3.186 3.392-2.806.231.067.217.18.38.288-.457-.849-3.717-1.116-4.044-1.613 1.234-1.268 3.765.766 3.877 1.295.717 1.116 1.561 2.787 3.293 2.583-.771-.837-1.87-2.403-3.068-2.412 1.096-.636 2.668-1.616 3.136-2.893-1.628.055-2.608.24-3.06 1.932-.041.155.07.578.03.66-1.028-.553-2.412-2.513-1.592-2.877.351.13 1.48 1.726 1.17 2.403-.058.126-.019.172.015.304.252 1.069.208 2.7.685 3.427.356-.858.9-3.019-.332-3.472.823.492 1.878 1.602 2.902 1.041a16.515 16.515 0 01-2.913-1.084l-3.871 3.223z" stroke="#000" stroke-width=".567" stroke-miterlimit="22.926"/><path d="M201.859 256.51h-16.812v.94h16.812v-.94z" stroke="#2B2A29" stroke-width=".567" stroke-miterlimit="22.926"/><path d="M195.057 250.354h-.469v12.102h.469v-12.102zM196.245 250.268h-.469v12.102h.469v-12.102zM198.68 250.277l-1.669 11.986.464.065 1.669-11.987-.464-.064zM200.566 250.098h-.469V262.2h.469v-12.102zM192.749 250.613h-.468v12.103h.468v-12.103zM191.561 250.527h-.469v12.103h.469v-12.103zM188.656 250.538l-.464.065 1.669 11.986.464-.065-1.669-11.986zM187.24 250.357h-.469v12.103h.469v-12.103z" stroke="#2B2A29" stroke-width=".567" stroke-miterlimit="22.926"/><path clip-rule="evenodd" d="M34.132 13.122l.584.798 8.218 9.225c-.452 1.488-3.406 3.631-8.615 6.712a11.181 11.181 0 01-5.257-3.497 11.212 11.212 0 01-2.53-5.791c2.635-4.495 4.726-6.606 7.6-7.447z" stroke="#2B2A29" stroke-width=".567" stroke-miterlimit="22.926"/><path clip-rule="evenodd" d="M29.971 20.122l4.798 5.955c3.107-2.37 7.098-4.045 7.473-3.653l.692.721c.429.45.686-1.102 1.155-1.466l-7.767-9.344c-.143.303-2.421.285-2.19.787.19.412.713.462.59.804-.916 2.537-2.72 4.069-4.75 6.196z" stroke="#2B2A29" stroke-width=".567" stroke-miterlimit="22.926"/><path clip-rule="evenodd" d="M34.716 13.92l7.587 8.49h-.041l-7.743 5.345c-2.895-1.185-4.956-4.172-6.201-7.174 2.54-3.283 4.668-5.646 6.398-6.66z" stroke="#2B2A29" stroke-width=".567" stroke-miterlimit="22.926"/><path clip-rule="evenodd" d="M64.321 91.968c3.603 0 7.124-1.07 10.12-3.076a18.24 18.24 0 006.709-8.189A18.278 18.278 0 0077.2 60.817a18.185 18.185 0 00-19.85-3.956 18.222 18.222 0 00-8.175 6.721c-2.002 3-3.07 6.529-3.07 10.138a18.299 18.299 0 005.345 12.893 18.233 18.233 0 0012.87 5.355v0z" stroke="#333" stroke-width=".709" stroke-miterlimit="22.926"/><path d="M53.752 81.293a1.69 1.69 0 01.548-.446 1.5 1.5 0 01.665-.145 1.567 1.567 0 011.174.507c.151.167.27.362.346.575.081.22.123.452.123.686.004.333-.079.66-.24.951-.155.281-.386.512-.667.667a1.958 1.958 0 01-.97.24 1.787 1.787 0 01-1.767-1.205 3.928 3.928 0 01-.24-1.46 4.997 4.997 0 01.145-1.255c.078-.33.22-.642.415-.919.171-.234.396-.422.657-.549.275-.128.575-.191.879-.186.29-.006.576.058.836.186.218.104.406.263.545.461a.946.946 0 01.184.527.4.4 0 01-.115.277.38.38 0 01-.293.125.477.477 0 01-.287-.094.564.564 0 01-.196-.273.788.788 0 00-.27-.359.713.713 0 00-.43-.135.77.77 0 00-.39.113c-.131.077-.243.181-.329.306a2.865 2.865 0 00-.323 1.405zm1.002 2.308a.761.761 0 00.618-.307 1.25 1.25 0 00.245-.804c.005-.2-.034-.399-.114-.582a.873.873 0 00-.316-.367.807.807 0 00-.441-.128.856.856 0 00-.44.122.906.906 0 00-.337.355 1.105 1.105 0 00-.128.544c-.011.3.08.595.257.836a.795.795 0 00.656.33zM58.073 78.844h2.47a.925.925 0 01.513.112.417.417 0 01.16.367.787.787 0 01-.187.413c-.125.172-.268.36-.429.567a6.11 6.11 0 00-1.084 2.385 17.21 17.21 0 00-.086.501c-.03.206-.056.363-.077.472a1.079 1.079 0 01-.221.525.507.507 0 01-.38.148.457.457 0 01-.364-.158.698.698 0 01-.137-.467c.009-.218.043-.435.1-.646.087-.333.196-.66.327-.978a9.505 9.505 0 011.372-2.366h-1.977a.786.786 0 01-.466-.113.411.411 0 01-.154-.355.326.326 0 01.163-.331c.146-.056.301-.082.457-.076zM62.612 84.34a.635.635 0 01-.423-.151.526.526 0 01-.178-.422.516.516 0 01.172-.394.59.59 0 01.412-.16.57.57 0 01.322.097c.102.07.18.17.226.284.06.147.09.304.086.463a1.56 1.56 0 01-.156.686c-.09.195-.22.368-.38.51a.666.666 0 01-.407.187.257.257 0 01-.257-.257.28.28 0 01.153-.246.7.7 0 00.43-.598zM65.475 83.362h1.936a.707.707 0 01.441.119.389.389 0 01.152.323.428.428 0 01-.12.308.486.486 0 01-.366.127h-2.73a.59.59 0 01-.433-.154.497.497 0 01-.156-.362.946.946 0 01.1-.355c.054-.127.128-.245.22-.348.328-.343.624-.636.89-.878.178-.172.368-.333.567-.482.183-.125.352-.269.506-.429.126-.131.23-.282.308-.446.067-.14.103-.292.105-.447a.809.809 0 00-.113-.43.781.781 0 00-.308-.291.888.888 0 00-.428-.104.866.866 0 00-.764.429c-.05.098-.092.2-.124.305-.043.138-.11.267-.197.382a.391.391 0 01-.32.133.415.415 0 01-.404-.276.45.45 0 01-.026-.18 1.53 1.53 0 01.457-1.04 1.7 1.7 0 01.58-.366c.262-.098.54-.146.82-.14.332-.009.662.052.968.179.172.078.327.19.457.327.266.283.414.658.415 1.048.003.295-.076.585-.228.837a2.609 2.609 0 01-.465.59c-.16.143-.425.367-.796.671a5.95 5.95 0 00-.766.71 2.018 2.018 0 00-.178.24zM68.799 80.175c0-.248.07-.491.201-.7.144-.229.35-.411.594-.527.285-.136.598-.204.914-.197.261-.004.522.035.771.115.205.067.395.175.557.318a1.308 1.308 0 01.438.998 1.16 1.16 0 01-.188.65c-.14.204-.333.366-.558.468.193.072.371.181.523.322.136.129.243.286.314.46.072.186.108.383.105.582.004.298-.075.592-.226.849-.158.26-.39.467-.664.596-.322.15-.674.224-1.028.216a2.372 2.372 0 01-1.054-.216 1.525 1.525 0 01-.66-.593 1.633 1.633 0 01-.223-.845 1.367 1.367 0 01.943-1.373 1.175 1.175 0 01-.76-1.123zm2.656 2.459a1.021 1.021 0 00-.12-.505.811.811 0 00-.333-.331 1.011 1.011 0 00-.482-.115.864.864 0 00-.836.583.945.945 0 00-.055.38c-.004.177.038.353.12.51a.864.864 0 00.329.344.954.954 0 00.931 0 .857.857 0 00.326-.344c.085-.16.129-.34.126-.522h-.006zm-.927-3.176a.752.752 0 00-.562.218.765.765 0 00-.214.559.699.699 0 00.22.526.78.78 0 00.563.21.865.865 0 00.317-.056.735.735 0 00.245-.154.676.676 0 00.157-.234.766.766 0 00.056-.3.782.782 0 00-.099-.393.702.702 0 00-.276-.275.807.807 0 00-.401-.099l-.006-.002zM74.164 84.055h-.637v-2.392h.67l.693.891.698-.891h.665v2.392h-.637v-1.477l-.593.744h-.268l-.589-.744-.002 1.477zM77.71 81.663h-.727v-.154l.3-.273a.93.93 0 00.142-.152.21.21 0 00.04-.124.129.129 0 00-.047-.104.198.198 0 00-.127-.04.414.414 0 00-.276.118v-.216c.085-.066.19-.1.297-.098a.394.394 0 01.257.086.273.273 0 01.108.225.38.38 0 01-.048.192.859.859 0 01-.171.194l-.171.16h.428l-.006.186zM56.683 72.558h3.513c.283-.02.565.057.8.216a.704.704 0 01.276.586.78.78 0 01-.219.56.875.875 0 01-.662.229h-4.953a1.067 1.067 0 01-.787-.28.893.893 0 01-.283-.656c.017-.225.078-.444.182-.645.097-.23.231-.443.397-.63a37.51 37.51 0 011.615-1.595c.324-.313.667-.604 1.028-.873.332-.23.64-.493.919-.785.227-.239.416-.512.558-.81a1.93 1.93 0 00.192-.812 1.46 1.46 0 00-.205-.773 1.424 1.424 0 00-.559-.53 1.606 1.606 0 00-.771-.188 1.57 1.57 0 00-1.386.772 3.313 3.313 0 00-.227.554c-.078.25-.199.485-.356.694a.707.707 0 01-.582.243.76.76 0 01-.56-.222.824.824 0 01-.221-.608c.005-.334.076-.664.209-.97.144-.345.356-.656.622-.917.302-.29.659-.516 1.05-.664a4.026 4.026 0 011.491-.254c.602-.016 1.2.094 1.756.324.312.142.593.344.828.594.483.515.753 1.194.754 1.901a2.883 2.883 0 01-.414 1.52 4.752 4.752 0 01-.845 1.073c-.285.259-.766.664-1.443 1.217-.5.388-.965.818-1.39 1.288a3.85 3.85 0 00-.327.44zM68.333 65.31v3.466l3.924-4.1c.147-.16.308-.307.48-.438a.894.894 0 01.53-.142.97.97 0 01.696.253.818.818 0 01.266.617 1.228 1.228 0 01-.451.87l-2.43 2.305 2.8 4.02c.169.23.317.475.444.731.094.19.145.398.148.61a.76.76 0 01-.257.573.991.991 0 01-.703.243c-.24.01-.476-.052-.68-.179a1.528 1.528 0 01-.444-.475c-.121-.198-.23-.378-.323-.54l-2.362-3.64-1.636 1.57v2.043c.027.332-.074.661-.283.92a.957.957 0 01-.727.301.973.973 0 01-.491-.136.944.944 0 01-.363-.363 1.184 1.184 0 01-.114-.438 9.016 9.016 0 01-.02-.721v-7.35c-.026-.326.069-.65.265-.91a.915.915 0 01.723-.304.952.952 0 01.73.3 1.3 1.3 0 01.278.914z" fill="#333"/></g><defs><clipPath id="clip0"><path fill="#fff" d="M0 0h264v271H0z"/></clipPath></defs></svg>