<svg width="52" height="52" fill="none" xmlns="http://www.w3.org/2000/svg"><path d="M24.586 2.414L2.414 24.586a2 2 0 000 2.828l22.172 22.172a2 2 0 002.828 0l22.172-22.172a2 2 0 000-2.828L27.414 2.414a2 2 0 00-2.828 0z" stroke="#443732" stroke-width="2" fill="#fff"/><path fill-rule="evenodd" clip-rule="evenodd" d="M30 29h-3v3h-2v-3h-3v-2h3v-3h2v3h3v2zm2-7H20a2 2 0 00-2 2v8a2 2 0 002 2h12a2 2 0 002-2v-8a2 2 0 00-2-2zM24 18a2 2 0 00-2 2v2h8v-2a2 2 0 00-2-2h-4zm5 2v1h-6v-1c0-.551.448-1 1-1h4c.552 0 1 .449 1 1z" fill="#443732"/></svg>