<svg width="50" height="50" fill="none" xmlns="http://www.w3.org/2000/svg"><path d="M23.586 1.414L1.414 23.586a2 2 0 000 2.828l22.172 22.172a2 2 0 002.828 0l22.172-22.172a2 2 0 000-2.828L26.414 1.414a2 2 0 00-2.828 0z" fill="#443732"/><path fill-rule="evenodd" clip-rule="evenodd" d="M33 32V19H20v13" fill="#fff"/><path fill-rule="evenodd" clip-rule="evenodd" d="M16.5 32.5h10v-9h-10v9z" fill="#fff"/><path fill-rule="evenodd" clip-rule="evenodd" d="M27 23H16v10h11V23zm-10 9h9v-8h-9v8z" fill="#443732"/><path fill-rule="evenodd" clip-rule="evenodd" d="M23 32v-4h-3v4" fill="#443732"/><path d="M24 27.5h-5M34 23.5h-5M34 27.5h-5" stroke="#443732"/></svg>