<svg width="50" height="50" fill="none" xmlns="http://www.w3.org/2000/svg"><path d="M23.586 1.414L1.414 23.586a2 2 0 000 2.828l22.172 22.172a2 2 0 002.828 0l22.172-22.172a2 2 0 000-2.828L26.414 1.414a2 2 0 00-2.828 0z" fill="#443732"/><path fill-rule="evenodd" clip-rule="evenodd" d="M32.667 27.833v3.001l-7.997 2-8.003-2v-3.001" fill="#fff"/><path fill-rule="evenodd" clip-rule="evenodd" d="M24.667 21.333s3.333-4 8-4l1 11.334c-4.667 0-9 4-9 4V21.333z" fill="#fff"/><path clip-rule="evenodd" d="M24.667 21.333s3.333-4 8-4l1 11.334c-4.667 0-9 4-9 4V21.333z" stroke="#443732" stroke-linecap="round" stroke-linejoin="round"/><path fill-rule="evenodd" clip-rule="evenodd" d="M24.667 21.333s-3.334-4-8-4l-1 11.334c4.666 0 9 4 9 4V21.333z" fill="#fff"/><path clip-rule="evenodd" d="M24.667 21.333s-3.334-4-8-4l-1 11.334c4.666 0 9 4 9 4V21.333z" stroke="#443732" stroke-linecap="round" stroke-linejoin="round"/></svg>