<svg width="20" height="18" fill="none" xmlns="http://www.w3.org/2000/svg"><path fill-rule="evenodd" clip-rule="evenodd" d="M17.667 11.833v3.001l-7.997 2-8.003-2v-3.001" fill="#fff"/><path fill-rule="evenodd" clip-rule="evenodd" d="M9.667 5.333s3.333-4 8-4l1 11.334c-4.667 0-9 4-9 4V5.333z" fill="#fff"/><path clip-rule="evenodd" d="M9.667 5.333s3.333-4 8-4l1 11.334c-4.667 0-9 4-9 4V5.333z" stroke="#443732" stroke-linecap="round" stroke-linejoin="round"/><path fill-rule="evenodd" clip-rule="evenodd" d="M9.667 5.333s-3.334-4-8-4l-1 11.334c4.666 0 9 4 9 4V5.333z" fill="#fff"/><path clip-rule="evenodd" d="M9.667 5.333s-3.334-4-8-4l-1 11.334c4.666 0 9 4 9 4V5.333z" stroke="#443732" stroke-linecap="round" stroke-linejoin="round"/></svg>