<svg width="50" height="50" fill="none" xmlns="http://www.w3.org/2000/svg"><path d="M23.586 1.414L1.414 23.586a2 2 0 000 2.828l22.172 22.172a2 2 0 002.828 0l22.172-22.172a2 2 0 000-2.828L26.414 1.414a2 2 0 00-2.828 0z" fill="#443732"/><path d="M19.5 31.5h10" stroke="#fff" stroke-linejoin="round"/><path fill-rule="evenodd" clip-rule="evenodd" d="M19 26.3c0 3.038 2.238 3.7 5 3.7s5-.662 5-3.7V22H19v4.3z" fill="#fff"/><path d="M27.3 27.5h3.2c1.052 0 2-.448 2-1.5s-.448-2.497-1.5-2.497h-3.5M24.5 20.5v-4M27.5 20.5v-2M21.5 20.5v-3" stroke="#fff" stroke-linejoin="round"/></svg>