<svg width="17" height="19" fill="none" xmlns="http://www.w3.org/2000/svg"><path fill-rule="evenodd" clip-rule="evenodd" d="M9 13.713C9.734 15.078 11.127 16 12.724 16c1.61 0 3.012-.936 3.742-2.321A4.657 4.657 0 0017 11.5c0-2.185-1.48-4.007-3.443-4.415a4.094 4.094 0 00-1.57-.018" fill="#443732"/><path d="M12.5 18.5v-4" stroke="#443732" stroke-linejoin="round"/><path fill-rule="evenodd" clip-rule="evenodd" d="M12 8c0 3.866-2.462 7-5.5 7S1 11.866 1 8s2.462-7 5.5-7S12 4.134 12 8z" fill="#443732"/><path clip-rule="evenodd" d="M12 8c0 3.866-2.462 7-5.5 7S1 11.866 1 8s2.462-7 5.5-7S12 4.134 12 8z" stroke="#fff"/><path d="M6.5 18.5v-10" stroke="#443732" stroke-linejoin="round"/></svg>