<svg width="50" height="50" fill="none" xmlns="http://www.w3.org/2000/svg"><path d="M23.586 1.414L1.414 23.586a2 2 0 000 2.828l22.172 22.172a2 2 0 002.828 0l22.172-22.172a2 2 0 000-2.828L26.414 1.414a2 2 0 00-2.828 0z" fill="#443732"/><path fill-rule="evenodd" clip-rule="evenodd" d="M23.5 33a1.5 1.5 0 10-.001-3.001A1.5 1.5 0 0023.5 33zM28.5 33a1.5 1.5 0 10-.001-3.001A1.5 1.5 0 0028.5 33zM20 22h12l-1 6H21l-1-6z" fill="#fff"/><path d="M16 19c1.312 0 2.747.019 3 1 .22.854 2.5 4.5 3 8" stroke="#fff" stroke-linejoin="round"/></svg>