<svg width="16" height="16" fill="none" xmlns="http://www.w3.org/2000/svg"><path fill-rule="evenodd" clip-rule="evenodd" d="M.992 8.896l-.661-.662a1.127 1.127 0 010-1.596L6.638.332a1.126 1.126 0 011.596 0l.661.66c.441.44.441 1.155 0 1.596L2.589 8.896c-.442.44-1.157.44-1.597 0zm6.773 6.773l-.66-.661a1.13 1.13 0 010-1.597l6.306-6.306a1.128 1.128 0 011.596 0l.661.66a1.126 1.126 0 010 1.597l-6.306 6.307a1.13 1.13 0 01-1.597 0z" fill="#443732"/><path fill-rule="evenodd" clip-rule="evenodd" d="M14.082 15.207L.792 1.917 1.92.788l13.29 13.29-1.13 1.13z" fill="#443732"/></svg>