<svg width="52" height="52" fill="none" xmlns="http://www.w3.org/2000/svg"><path d="M24.586 2.414L2.414 24.586a2 2 0 000 2.828l22.172 22.172a2 2 0 002.828 0l22.172-22.172a2 2 0 000-2.828L27.414 2.414a2 2 0 00-2.828 0z" stroke="#443732" stroke-width="2" fill="#443732"/><path fill-rule="evenodd" clip-rule="evenodd" d="M34 24.374c-.16-.292-.28-.34-.594-.221-.765.292-1.555.31-2.354.205-.876-.117-1.707-.4-2.541-.678a7.537 7.537 0 00-3.712-.274c-.23.04-.286-.002-.275-.235.013-.263.05-.525.079-.787.086-.774.068-1.542-.173-2.289-.331-1.027-.976-1.755-2.06-2.031-1.004-.256-1.954.276-2.219 1.227-.118.425-.467.57-.846.668-.312.08-.629.14-.941.218a.81.81 0 00-.265.123c-.134.095-.133.228.009.313.085.052.191.08.291.092.724.089 1.45.163 2.132.441.445.182.858.421 1.188.781.344.376.371.714.076 1.133-.373.53-.677 1.091-.827 1.725-.35 1.477.12 3.22 1.69 4.208 1.069.672 2.24.979 3.492 1.005 1.247.027 2.427-.238 3.526-.834.631-.342 1.185-.789 1.707-1.274a13.939 13.939 0 002.497-3.106l.12-.193v-.217z" fill="#fff"/><path d="M24 31c-.672 1.111-1.25 2-2.5 2-1.252 0-1.828-.889-2.5-2M29 31c-.672 1.111-1.25 2-2.5 2-1.252 0-1.828-.889-2.5-2M34 31c-.672 1.111-1.25 2-2.5 2-1.252 0-1.828-.889-2.5-2" stroke="#443732" stroke-width="4.5" stroke-linecap="round" stroke-linejoin="round"/><path d="M24 31c-.672 1.111-1.25 2-2.5 2-1.252 0-1.828-.889-2.5-2M29 31c-.672 1.111-1.25 2-2.5 2-1.252 0-1.828-.889-2.5-2M34 31c-.672 1.111-1.25 2-2.5 2-1.252 0-1.828-.889-2.5-2" stroke="#fff" stroke-width="1.5" stroke-linecap="round" stroke-linejoin="round"/></svg>