<svg width="21" height="18" fill="none" xmlns="http://www.w3.org/2000/svg"><path fill-rule="evenodd" clip-rule="evenodd" d="M18 6.374c-.16-.292-.28-.34-.594-.221-.765.292-1.555.31-2.354.205-.876-.117-1.707-.4-2.541-.678a7.536 7.536 0 00-3.712-.274c-.23.04-.286-.002-.275-.235.013-.263.05-.525.079-.787.086-.774.068-1.542-.173-2.289C8.1 1.068 7.454.34 6.37.064 5.365-.192 4.415.34 4.15 1.292c-.118.424-.467.57-.846.667-.312.08-.629.14-.941.218a.81.81 0 00-.265.123c-.134.095-.133.228.009.313a.75.75 0 00.292.092c.723.089 1.45.163 2.131.441.445.182.858.421 1.188.782.344.375.371.713.076 1.132-.373.53-.676 1.091-.827 1.725-.35 1.477.12 3.22 1.69 4.208 1.069.672 2.24.979 3.492 1.005 1.246.027 2.427-.238 3.526-.834.631-.342 1.185-.789 1.707-1.273a13.938 13.938 0 002.497-3.107l.12-.193v-.217z" fill="#443732"/><path d="M8 13c-.673 1.111-1.25 2-2.5 2-1.252 0-1.827-.889-2.5-2M13 13c-.672 1.111-1.25 2-2.5 2-1.252 0-1.827-.889-2.5-2M18 13c-.672 1.111-1.25 2-2.5 2-1.252 0-1.828-.889-2.5-2" stroke="#fff" stroke-width="4.5" stroke-linecap="round" stroke-linejoin="round"/><path d="M8 13c-.673 1.111-1.25 2-2.5 2-1.252 0-1.827-.889-2.5-2M13 13c-.672 1.111-1.25 2-2.5 2-1.252 0-1.827-.889-2.5-2M18 13c-.672 1.111-1.25 2-2.5 2-1.252 0-1.828-.889-2.5-2" stroke="#443732" stroke-width="1.5" stroke-linecap="round" stroke-linejoin="round"/></svg>